<?xml version="1.0" encoding="UTF-8" standalone="no"?>
<!-- Created with Inkscape (http://www.inkscape.org/) -->

<svg
   xmlns:dc="http://purl.org/dc/elements/1.1/"
   xmlns:cc="http://creativecommons.org/ns#"
   xmlns:rdf="http://www.w3.org/1999/02/22-rdf-syntax-ns#"
   xmlns:svg="http://www.w3.org/2000/svg"
   xmlns="http://www.w3.org/2000/svg"
   xmlns:sodipodi="http://sodipodi.sourceforge.net/DTD/sodipodi-0.dtd"
   xmlns:inkscape="http://www.inkscape.org/namespaces/inkscape"
   id="svg8160"
   version="1.1"
   inkscape:version="0.48.4 r9939"
   width="570.46899"
   height="117.5"
   xml:space="preserve"
   sodipodi:docname="1.project.svg"><metadata
     id="metadata8166"><rdf:RDF><cc:Work
         rdf:about=""><dc:format>image/svg+xml</dc:format><dc:type
           rdf:resource="http://purl.org/dc/dcmitype/StillImage" /><dc:title></dc:title></cc:Work></rdf:RDF></metadata><defs
     id="defs8164" /><sodipodi:namedview
     pagecolor="#ffffff"
     bordercolor="#666666"
     borderopacity="1"
     objecttolerance="10"
     gridtolerance="10"
     guidetolerance="10"
     inkscape:pageopacity="0"
     inkscape:pageshadow="2"
     inkscape:window-width="1280"
     inkscape:window-height="962"
     id="namedview8162"
     showgrid="false"
     fit-margin-top="20"
     fit-margin-right="20"
     fit-margin-bottom="20"
     fit-margin-left="20"
     inkscape:zoom="1.026087"
     inkscape:cx="191.70387"
     inkscape:cy="129.74099"
     inkscape:window-x="-8"
     inkscape:window-y="-8"
     inkscape:window-maximized="1"
     inkscape:current-layer="g8168" /><g
     id="g8168"
     inkscape:groupmode="layer"
     inkscape:label="ink_ext_XXXXXX"
     transform="matrix(1.25,0,0,-1.25,11.992312,152.61719)"><path
   inkscape:connector-curvature="0"
   id="path8206"
   style="fill:#e9afaf;fill-opacity:1;stroke:#000000;stroke-width:2.4;stroke-linecap:butt;stroke-linejoin:round;stroke-miterlimit:4;stroke-opacity:1;stroke-dasharray:none;stroke-dashoffset:0"
   d="m 91.004807,45.000253 108.270673,0 0,60.190817 -108.270673,0 0,-60.190817 z" /><path
   inkscape:connector-curvature="0"
   id="path8226"
   style="fill:#c6e9af;fill-opacity:1;stroke:#000000;stroke-width:2.4;stroke-linecap:butt;stroke-linejoin:round;stroke-miterlimit:4;stroke-opacity:1;stroke-dasharray:none;stroke-dashoffset:0"
   d="m 291.4904,45.118323 138.47876,0 0,59.992127 -138.47876,0 0,-59.992127 z" /><path
   inkscape:connector-curvature="0"
   id="path8234"
   style="fill:none;stroke:#000000;stroke-width:1.90899611;stroke-linecap:butt;stroke-linejoin:miter;stroke-miterlimit:4;stroke-opacity:1;stroke-dasharray:none"
   d="m 272.61887,72.260066 -65.2584,0.01872" /><path
   inkscape:connector-curvature="0"
   id="path8238"
   style="fill:#ffffff;stroke:#000000;stroke-width:1.92000008;stroke-linecap:butt;stroke-linejoin:miter;stroke-miterlimit:4;stroke-opacity:1;stroke-dasharray:none"
   d="m 268.77647,81.457826 8.304,-4.84776 8.3184,-4.8468 -8.3544,-4.78224 -8.3544,-4.77192 0.0384,9.61968 0.048,9.62904 z" /><path
   inkscape:connector-curvature="0"
   id="path8242"
   style="fill:#ffffff;stroke:#000000;stroke-width:1.92000008;stroke-linecap:butt;stroke-linejoin:miter;stroke-miterlimit:4;stroke-opacity:1;stroke-dasharray:none"
   d="m 221.57087,62.546546 -8.3328,4.82928 -8.3256,4.81872 8.3448,4.80936 8.3448,4.80096 -0.0216,-9.62904 -0.01,-9.62928 z" /><g
   id="g8244"
   transform="matrix(2.4,0,0,2.4,-168.33243,-129.70462)"><g
   transform="matrix(0.999999,0.00130287,0.00130287,-0.999999,166.948,80.2512)"
   style=""
   id="text8246"><path
     d="m 0.21093747,0 0,-1.6593748 0.25312497,0 0,0.2359375 c 0.1218744,-0.18229 0.29791586,-0.2734358 0.52812493,-0.2734375 0.0999989,1.7e-6 0.19192583,0.017971 0.27578123,0.053906 0.083853,0.035939 0.1466131,0.083074 0.1882812,0.1414062 0.041665,0.058335 0.070832,0.1276055 0.0875,0.2078125 0.010415,0.052085 0.015623,0.1432303 0.015625,0.2734374 l 0,1.0203124 -0.28125,0 0,-1.0093749 c -1.2e-6,-0.1145822 -0.010939,-0.2002591 -0.032813,-0.2570312 -0.021876,-0.056769 -0.060678,-0.1020819 -0.1164062,-0.1359375 -0.05573,-0.033853 -0.1210947,-0.05078 -0.19609373,-0.050781 -0.11979246,1.4e-6 -0.22317776,0.038022 -0.3101562,0.1140625 -0.0869797,0.076043 -0.13046923,0.2203136 -0.13046874,0.43281242 l 0,0.90624988 z"
     style="font-size:3.19999957px;font-style:oblique;font-variant:normal;writing-mode:lr-tb;fill:#000000;fill-opacity:1;fill-rule:nonzero;stroke:none;font-family:DejaVu Sans;-inkscape-font-specification:DejaVuSans-Oblique"
     id="path3013" /><path
     d="m 2.1350498,-0.82968739 c -10e-8,-0.30729051 0.085416,-0.53489441 0.2562499,-0.68281241 0.1427078,-0.122915 0.316666,-0.1843733 0.521875,-0.184375 0.2281238,1.7e-6 0.4145819,0.074741 0.5593749,0.2242187 0.14479,0.1494805 0.2171858,0.3559907 0.2171874,0.61953121 -1.6e-6,0.21354228 -0.032033,0.38151084 -0.096094,0.50390619 -0.064064,0.12239604 -0.157293,0.21744802 -0.2796875,0.28515621 C 3.1915589,0.00364583 3.0579653,0.03749996 2.9131747,0.03749999 2.6808824,0.03749996 2.4931222,-0.03697912 2.3498935,-0.18593748 2.2066642,-0.33489545 2.1350497,-0.54947854 2.1350498,-0.82968739 z m 0.2890624,0 c -4e-7,0.21250059 0.046354,0.37161499 0.1390625,0.47734369 0.092708,0.1057294 0.2093742,0.15859392 0.35,0.15859373 0.1395822,1.9e-7 0.2557279,-0.0531247 0.3484374,-0.15937498 0.092707,-0.10624953 0.1390611,-0.26822851 0.1390625,-0.48593744 -1.4e-6,-0.20520721 -0.046616,-0.36067581 -0.1398437,-0.46640621 -0.09323,-0.1057277 -0.2091156,-0.1585922 -0.3476562,-0.1585937 -0.1406258,1.5e-6 -0.2572923,0.052606 -0.35,0.1578125 -0.092709,0.1052095 -0.1390629,0.2640635 -0.1390625,0.47656241 z"
     style="font-size:3.19999957px;font-style:oblique;font-variant:normal;writing-mode:lr-tb;fill:#000000;fill-opacity:1;fill-rule:nonzero;stroke:none;font-family:DejaVu Sans;-inkscape-font-specification:DejaVuSans-Oblique"
     id="path3015" /><path
     d="m 4.8121992,-0.25156247 0.040625,0.24843747 c -0.079167,0.01666665 -0.1500007,0.02499998 -0.2125,0.025 -0.1020839,-2e-8 -0.1812504,-0.01614584 -0.2374999,-0.0484375 -0.05625,-0.0322916 -0.095834,-0.07473947 -0.11875,-0.12734373 -0.022917,-0.0526039 -0.034375,-0.16328091 -0.034375,-0.3320312 l 0,-0.95468737 -0.20625,0 0,-0.21875 0.20625,0 0,-0.4109374 0.2796874,-0.16875 0,0.5796874 0.2828125,0 0,0.21875 -0.2828125,0 0,0.97031236 c -5e-7,0.0802087 0.00495,0.13177116 0.014844,0.15468748 0.0099,0.022917 0.026041,0.0411461 0.048437,0.0546875 0.022395,0.0135419 0.054426,0.0203127 0.096094,0.0203125 0.031249,2.4e-7 0.072395,-0.003646 0.1234375,-0.0109375 z"
     style="font-size:3.19999957px;font-style:oblique;font-variant:normal;writing-mode:lr-tb;fill:#000000;fill-opacity:1;fill-rule:nonzero;stroke:none;font-family:DejaVu Sans;-inkscape-font-specification:DejaVuSans-Oblique"
     id="path3017" /><path
     d="m 5.4540991,-1.9671872 0,-0.3234375 0.2812499,0 0,0.3234375 z m 0,1.9671872 0,-1.6593748 0.2812499,0 0,1.6593748 z"
     style="font-size:3.19999957px;font-style:oblique;font-variant:normal;writing-mode:lr-tb;fill:#000000;fill-opacity:1;fill-rule:nonzero;stroke:none;font-family:DejaVu Sans;-inkscape-font-specification:DejaVuSans-Oblique"
     id="path3019" /><path
     d="m 6.232224,0 0,-1.4406248 -0.2484375,0 0,-0.21875 0.2484375,0 0,-0.1765625 c -3e-7,-0.1114563 0.0099,-0.1942687 0.029687,-0.2484374 0.027083,-0.072914 0.074739,-0.132029 0.1429687,-0.1773437 0.068229,-0.04531 0.1638014,-0.067967 0.2867187,-0.067969 0.079166,2.3e-6 0.1666657,0.00938 0.2625,0.028125 l -0.042187,0.2453125 c -0.058334,-0.010415 -0.1135425,-0.015623 -0.165625,-0.015625 -0.085417,2e-6 -0.145834,0.018231 -0.18125,0.054687 -0.035417,0.03646 -0.053126,0.1046894 -0.053125,0.2046874 l 0,0.153125 0.3234375,0 0,0.21875 -0.3234375,0 0,1.4406248 z"
     style="font-size:3.19999957px;font-style:oblique;font-variant:normal;writing-mode:lr-tb;fill:#000000;fill-opacity:1;fill-rule:nonzero;stroke:none;font-family:DejaVu Sans;-inkscape-font-specification:DejaVuSans-Oblique"
     id="path3021" /><path
     d="m 7.0540988,-1.9671872 0,-0.3234375 0.28125,0 0,0.3234375 z m 0,1.9671872 0,-1.6593748 0.28125,0 0,1.6593748 z"
     style="font-size:3.19999957px;font-style:oblique;font-variant:normal;writing-mode:lr-tb;fill:#000000;fill-opacity:1;fill-rule:nonzero;stroke:none;font-family:DejaVu Sans;-inkscape-font-specification:DejaVuSans-Oblique"
     id="path3023" /><path
     d="m 8.9009737,-0.53437493 0.2906249,0.0359375 c -0.045835,0.16979197 -0.1307306,0.30156265 -0.2546874,0.39531244 -0.1239596,0.09375 -0.2822928,0.14062495 -0.475,0.14062498 -0.2427089,-3e-8 -0.4351566,-0.07473953 -0.5773436,-0.22421871 -0.1421877,-0.14947882 -0.2132814,-0.35911399 -0.2132813,-0.62890617 -1e-7,-0.27916551 0.071875,-0.49583191 0.215625,-0.64999991 0.1437495,-0.154165 0.3302076,-0.2312483 0.5593749,-0.23125 0.2218739,1.7e-6 0.4031237,0.075522 0.54375,0.2265625 0.1406234,0.151043 0.2109358,0.3635427 0.2109374,0.63749991 -1.6e-6,0.0166675 -5.225e-4,0.0416674 -0.00156,0.075 l -1.2374998,0 c 0.010416,0.18229222 0.061979,0.32187539 0.1546875,0.41874995 0.092708,0.0968752 0.2083325,0.14531267 0.3468749,0.14531248 0.103124,1.9e-7 0.1911447,-0.0270831 0.2640625,-0.08125 0.072915,-0.0541663 0.1307278,-0.14062457 0.1734375,-0.25937497 z m -0.9234374,-0.45468744 0.9265624,0 c -0.012501,-0.13958223 -0.047918,-0.24426953 -0.10625,-0.31406243 -0.089584,-0.1083319 -0.2057302,-0.1624985 -0.3484375,-0.1625 -0.1291674,1.5e-6 -0.237761,0.043231 -0.3257812,0.1296875 -0.088021,0.08646 -0.1367191,0.2020844 -0.1460937,0.34687493 z"
     style="font-size:3.19999957px;font-style:oblique;font-variant:normal;writing-mode:lr-tb;fill:#000000;fill-opacity:1;fill-rule:nonzero;stroke:none;font-family:DejaVu Sans;-inkscape-font-specification:DejaVuSans-Oblique"
     id="path3025" /><path
     d="m 9.4337861,-0.49531243 0.278125,-0.04375 c 0.015625,0.11145875 0.059114,0.19687532 0.1304687,0.25624997 0.071354,0.0593752 0.1710932,0.0890627 0.2992182,0.0890625 0.129166,1.9e-7 0.224999,-0.0263019 0.2875,-0.0789062 0.0625,-0.0526038 0.09375,-0.11432252 0.09375,-0.18515623 -10e-7,-0.0635411 -0.0276,-0.11354108 -0.08281,-0.14999998 -0.03854,-0.0249994 -0.134376,-0.0567702 -0.2875,-0.0953125 -0.2062506,-0.0520826 -0.3492192,-0.0971346 -0.4289062,-0.13515623 -0.079688,-0.03802 -0.1401044,-0.0906241 -0.18125,-0.15781248 -0.041146,-0.0671864 -0.061719,-0.14140508 -0.061719,-0.22265618 -2e-7,-0.073957 0.016927,-0.1424466 0.050781,-0.2054688 0.033854,-0.063019 0.079948,-0.115363 0.1382813,-0.1570312 0.04375,-0.03229 0.1033849,-0.059634 0.1789062,-0.082031 0.07552,-0.022394 0.1565102,-0.033592 0.2429692,-0.033594 0.130207,1.7e-6 0.24453,0.018752 0.342968,0.05625 0.09844,0.037502 0.171093,0.088283 0.217969,0.1523437 0.04687,0.064064 0.07916,0.149741 0.09688,0.2570313 l -0.275,0.0375 c -0.0125,-0.085415 -0.0487,-0.152082 -0.108594,-0.2 -0.0599,-0.047915 -0.144532,-0.071874 -0.253906,-0.071875 -0.1291673,1.5e-6 -0.2213547,0.021356 -0.2765625,0.064063 -0.055209,0.04271 -0.082813,0.09271 -0.082812,0.15 -5e-7,0.03646 0.011458,0.069272 0.034375,0.098437 0.022916,0.030209 0.058854,0.055209 0.1078125,0.075 0.028124,0.010418 0.1109365,0.034376 0.2484375,0.071875 0.198957,0.053126 0.337759,0.0966155 0.416406,0.13046877 0.07864,0.033855 0.140363,0.0830737 0.185156,0.14765623 0.04479,0.064584 0.06719,0.14479223 0.06719,0.24062497 -2e-6,0.0937504 -0.02735,0.18203153 -0.08203,0.26484371 -0.05469,0.0828126 -0.133595,0.14687506 -0.236719,0.19218747 -0.103126,0.04531248 -0.219793,0.06796871 -0.35,0.06796874 -0.2156256,-3e-8 -0.3799483,-0.04479165 -0.4929687,-0.13437498 C 9.5371713,-0.18645812 9.465036,-0.31927047 9.4337861,-0.49531243 z"
     style="font-size:3.19999957px;font-style:oblique;font-variant:normal;writing-mode:lr-tb;fill:#000000;fill-opacity:1;fill-rule:nonzero;stroke:none;font-family:DejaVu Sans;-inkscape-font-specification:DejaVuSans-Oblique"
     id="path3027" /></g>




<g
   transform="translate(173,80.2)"
   style=""
   id="text8250"><path
     d="m 0,0 0,-0.0625 0.05,0 0,0.0625 z m 0.0015625,-0.0015625 0.046875,0 0,-0.059375 -0.046875,0 z"
     style="font-size:0.1px;font-variant:normal;font-weight:normal;writing-mode:lr-tb;fill:#000000;fill-opacity:1;fill-rule:nonzero;stroke:none;font-family:Arial Black;-inkscape-font-specification:Arial"
     id="path3030" /></g>




</g>

<g
   transform="scale(1,-1)"
   style="font-size:96px;font-style:normal;font-weight:normal;line-height:125%;letter-spacing:0px;word-spacing:0px;fill:#000000;fill-opacity:1;stroke:none;font-family:Sans"
   id="text3838-3-7"><path
     d="m 122.61112,-66.438989 c -1.25001,1.062502 -2.45314,1.812501 -3.60938,2.25 -1.15626,0.4375 -2.39688,0.65625 -3.72187,0.656251 -2.18751,-10e-7 -3.86875,-0.534375 -5.04375,-1.603126 -1.175,-1.068747 -1.7625,-2.434371 -1.7625,-4.096875 0,-0.974994 0.22187,-1.865618 0.66562,-2.671875 0.44375,-0.806241 1.025,-1.453115 1.74375,-1.940625 0.71875,-0.48749 1.52812,-0.856239 2.42813,-1.10625 0.66249,-0.174989 1.66249,-0.343739 3,-0.50625 2.72499,-0.324988 4.73124,-0.712488 6.01875,-1.1625 0.0125,-0.462487 0.0187,-0.756237 0.0187,-0.88125 -2e-5,-1.374985 -0.31877,-2.343734 -0.95625,-2.90625 -0.86251,-0.762483 -2.14376,-1.143733 -3.84375,-1.14375 -1.58751,1.7e-5 -2.75938,0.278142 -3.51563,0.834375 -0.75625,0.556266 -1.31563,1.54064 -1.67812,2.953125 l -3.3,-0.45 c 0.3,-1.412484 0.79375,-2.553108 1.48125,-3.421875 0.6875,-0.868732 1.68124,-1.537481 2.98125,-2.00625 1.29999,-0.46873 2.80624,-0.703105 4.51875,-0.703125 1.69999,2e-5 3.08124,0.20002 4.14375,0.6 1.06248,0.400019 1.84373,0.903144 2.34375,1.509375 0.49998,0.606267 0.84998,1.371892 1.05,2.296875 0.11248,0.575015 0.16873,1.612514 0.16875,3.1125 l 0,4.5 c -2e-5,3.137506 0.0719,5.121879 0.21562,5.953125 0.14374,0.831252 0.42811,1.628126 0.85313,2.390626 l -3.525,0 c -0.35002,-0.7 -0.57502,-1.518749 -0.675,-2.456251 z m -0.28125,-7.5375 c -1.22501,0.50001 -3.06251,0.925009 -5.5125,1.275 -1.38751,0.200009 -2.36876,0.425008 -2.94375,0.675 -0.57501,0.250008 -1.01876,0.615633 -1.33125,1.096875 -0.31251,0.481257 -0.46876,1.015631 -0.46875,1.603125 -1e-5,0.900005 0.34062,1.650004 1.02187,2.25 0.68125,0.600003 1.67812,0.900003 2.99063,0.9 1.29999,3e-6 2.45624,-0.284372 3.46875,-0.853125 1.01249,-0.568746 1.75624,-1.34687 2.23125,-2.334375 0.36248,-0.762494 0.54373,-1.887493 0.54375,-3.375 z"
     style="font-size:38.40000153px;text-align:center;text-anchor:middle"
     id="path3033" /><path
     d="m 130.97362,-87.551489 0,-3.918751 3.375,0 0,3.918751 z m -4.275,31.293751 0.6375,-2.86875 c 0.675,0.174995 1.20625,0.262495 1.59375,0.2625 0.6875,-5e-6 1.2,-0.22813 1.5375,-0.684375 0.3375,-0.456254 0.50625,-1.596878 0.50625,-3.421875 l 0,-20.925001 3.375,0 0,21.000001 c -1e-5,2.449996 -0.31876,4.156244 -0.95625,5.11875 -0.8125,1.249992 -2.1625,1.874992 -4.05,1.875 -0.9125,-8e-6 -1.79375,-0.118758 -2.64375,-0.35625 z"
     style="font-size:38.40000153px;text-align:center;text-anchor:middle"
     id="path3035" /><path
     d="m 152.53612,-66.438989 c -1.25002,1.062502 -2.45314,1.812501 -3.60938,2.25 -1.15626,0.4375 -2.39688,0.65625 -3.72187,0.656251 -2.18751,-10e-7 -3.86876,-0.534375 -5.04375,-1.603126 -1.175,-1.068747 -1.7625,-2.434371 -1.7625,-4.096875 0,-0.974994 0.22187,-1.865618 0.66562,-2.671875 0.44375,-0.806241 1.025,-1.453115 1.74375,-1.940625 0.71875,-0.48749 1.52812,-0.856239 2.42813,-1.10625 0.66249,-0.174989 1.66249,-0.343739 3,-0.50625 2.72499,-0.324988 4.73124,-0.712488 6.01875,-1.1625 0.0125,-0.462487 0.0187,-0.756237 0.0187,-0.88125 -2e-5,-1.374985 -0.31877,-2.343734 -0.95625,-2.90625 -0.86251,-0.762483 -2.14376,-1.143733 -3.84375,-1.14375 -1.58751,1.7e-5 -2.75938,0.278142 -3.51563,0.834375 -0.75625,0.556266 -1.31563,1.54064 -1.67812,2.953125 l -3.3,-0.45 c 0.3,-1.412484 0.79375,-2.553108 1.48125,-3.421875 0.68749,-0.868732 1.68124,-1.537481 2.98125,-2.00625 1.29999,-0.46873 2.80624,-0.703105 4.51875,-0.703125 1.69999,2e-5 3.08123,0.20002 4.14375,0.6 1.06248,0.400019 1.84373,0.903144 2.34375,1.509375 0.49998,0.606267 0.84998,1.371892 1.05,2.296875 0.11248,0.575015 0.16873,1.612514 0.16875,3.1125 l 0,4.5 c -2e-5,3.137506 0.0719,5.121879 0.21562,5.953125 0.14374,0.831252 0.42811,1.628126 0.85313,2.390626 l -3.525,0 c -0.35002,-0.7 -0.57502,-1.518749 -0.675,-2.456251 z m -0.28125,-7.5375 c -1.22502,0.50001 -3.06251,0.925009 -5.5125,1.275 -1.38751,0.200009 -2.36876,0.425008 -2.94375,0.675 -0.57501,0.250008 -1.01876,0.615633 -1.33125,1.096875 -0.31251,0.481257 -0.46876,1.015631 -0.46875,1.603125 -10e-6,0.900005 0.34062,1.650004 1.02187,2.25 0.68125,0.600003 1.67812,0.900003 2.99063,0.9 1.29999,3e-6 2.45624,-0.284372 3.46875,-0.853125 1.01249,-0.568746 1.75623,-1.34687 2.23125,-2.334375 0.36248,-0.762494 0.54373,-1.887493 0.54375,-3.375 z"
     style="font-size:38.40000153px;text-align:center;text-anchor:middle"
     id="path3037" /><path
     d="m 158.66737,-63.982738 7.275,-10.350001 -6.73125,-9.5625 4.21875,0 3.05625,4.66875 c 0.57499,0.887514 1.03749,1.631264 1.3875,2.23125 0.54999,-0.824986 1.05624,-1.556236 1.51875,-2.19375 l 3.35625,-4.70625 4.03125,0 -6.88125,9.375 7.40625,10.537501 -4.14375,0 -4.0875,-6.187501 -1.0875,-1.66875 -5.23125,7.856251 z"
     style="font-size:38.40000153px;text-align:center;text-anchor:middle"
     id="path3039" /></g>







<path
   d="m 7.1957044,44.906837 84.2001476,0 0,60.377643 -84.2001476,0 0,-60.377643 z"
   style="fill:#aaccff;fill-opacity:1;stroke:#000000;stroke-width:2.4;stroke-linecap:butt;stroke-linejoin:round;stroke-miterlimit:4;stroke-opacity:1;stroke-dasharray:none;stroke-dashoffset:0"
   id="path3793"
   inkscape:connector-curvature="0" />
<g
   transform="scale(1,-1)"
   style="font-size:96px;font-style:normal;font-weight:normal;line-height:125%;letter-spacing:0px;word-spacing:0px;fill:#000000;fill-opacity:1;stroke:none;font-family:Sans"
   id="text3795"><path
     d="m 31.398618,-66.438989 c -1.250014,1.062502 -2.453138,1.812501 -3.609375,2.25 -1.156261,0.4375 -2.396884,0.65625 -3.721875,0.656251 -2.187506,-10e-7 -3.868754,-0.534375 -5.04375,-1.603126 -1.175002,-1.068747 -1.762502,-2.434371 -1.7625,-4.096875 -2e-6,-0.974994 0.221873,-1.865618 0.665625,-2.671875 0.443747,-0.806241 1.024997,-1.453115 1.74375,-1.940625 0.718745,-0.48749 1.52812,-0.856239 2.428125,-1.10625 0.662493,-0.174989 1.662492,-0.343739 3,-0.50625 2.724988,-0.324988 4.731236,-0.712488 6.01875,-1.1625 0.01249,-0.462487 0.01873,-0.756237 0.01875,-0.88125 -1.5e-5,-1.374985 -0.318765,-2.343734 -0.95625,-2.90625 -0.862513,-0.762483 -2.143762,-1.143733 -3.84375,-1.14375 -1.587509,1.7e-5 -2.759383,0.278142 -3.515625,0.834375 -0.756256,0.556266 -1.315631,1.54064 -1.678125,2.953125 l -3.3,-0.45 c 0.299998,-1.412484 0.793747,-2.553108 1.48125,-3.421875 0.687496,-0.868732 1.681245,-1.537481 2.98125,-2.00625 1.299992,-0.46873 2.806241,-0.703105 4.51875,-0.703125 1.699988,2e-5 3.081236,0.20002 4.14375,0.6 1.062484,0.400019 1.843734,0.903144 2.34375,1.509375 0.499983,0.606267 0.849982,1.371892 1.050001,2.296875 0.112481,0.575015 0.168731,1.612514 0.16875,3.1125 l 0,4.5 c -1.9e-5,3.137506 0.07186,5.121879 0.215625,5.953125 0.143731,0.831252 0.428105,1.628126 0.853125,2.390626 l -3.525001,0 c -0.350015,-0.7 -0.575015,-1.518749 -0.675,-2.456251 z m -0.28125,-7.5375 c -1.225014,0.50001 -3.062512,0.925009 -5.5125,1.275 -1.387508,0.200009 -2.368757,0.425008 -2.94375,0.675 -0.575006,0.250008 -1.018756,0.615633 -1.33125,1.096875 -0.312505,0.481257 -0.468755,1.015631 -0.46875,1.603125 -5e-6,0.900005 0.34062,1.650004 1.021875,2.25 0.681243,0.600003 1.678117,0.900003 2.990625,0.9 1.29999,3e-6 2.456239,-0.284372 3.46875,-0.853125 1.012487,-0.568746 1.756236,-1.34687 2.23125,-2.334375 0.362485,-0.762494 0.543735,-1.887493 0.54375,-3.375 z"
     style="font-size:38.40000153px;text-align:center;text-anchor:middle"
     id="path3042" /><path
     d="m 39.779868,-56.351488 0,-27.543751 3.075,0 0,2.5875 c 0.724994,-1.012482 1.543743,-1.771856 2.45625,-2.278125 0.912491,-0.50623 2.01874,-0.759355 3.31875,-0.759375 1.699987,2e-5 3.199986,0.43752 4.5,1.3125 1.299983,0.875018 2.281232,2.109392 2.943751,3.703125 0.66248,1.593764 0.99373,3.340637 0.99375,5.240625 -2e-5,2.037508 -0.365645,3.871881 -1.096875,5.503125 -0.731268,1.631253 -1.793767,2.881252 -3.187501,3.75 -1.393764,0.86875 -2.859387,1.303125 -4.396875,1.303126 -1.12501,-10e-7 -2.134384,-0.237501 -3.028125,-0.712501 -0.893757,-0.474999 -1.628131,-1.074998 -2.203125,-1.8 l 0,9.693751 z m 3.05625,-17.475001 c -6e-6,2.562507 0.518744,4.456256 1.55625,5.68125 1.037492,1.225003 2.293741,1.837503 3.76875,1.8375 1.499988,3e-6 2.784362,-0.634372 3.853125,-1.903125 1.068735,-1.268744 1.603109,-3.234367 1.603125,-5.896875 -1.6e-5,-2.537487 -0.52189,-4.437486 -1.565625,-5.7 -1.043763,-1.262483 -2.290637,-1.893732 -3.740625,-1.89375 -1.437509,1.8e-5 -2.709383,0.671892 -3.815625,2.015625 -1.106256,1.343764 -1.659381,3.296887 -1.659375,5.859375 z"
     style="font-size:38.40000153px;text-align:center;text-anchor:middle"
     id="path3044" /><path
     d="m 61.154868,-56.351488 0,-27.543751 3.075,0 0,2.5875 c 0.724994,-1.012482 1.543743,-1.771856 2.45625,-2.278125 0.912491,-0.50623 2.01874,-0.759355 3.31875,-0.759375 1.699987,2e-5 3.199986,0.43752 4.5,1.3125 1.299983,0.875018 2.281232,2.109392 2.943751,3.703125 0.66248,1.593764 0.99373,3.340637 0.99375,5.240625 -2e-5,2.037508 -0.365645,3.871881 -1.096875,5.503125 -0.731268,1.631253 -1.793767,2.881252 -3.187501,3.75 -1.393764,0.86875 -2.859387,1.303125 -4.396875,1.303126 -1.12501,-10e-7 -2.134384,-0.237501 -3.028125,-0.712501 -0.893757,-0.474999 -1.628131,-1.074998 -2.203125,-1.8 l 0,9.693751 z m 3.05625,-17.475001 c -6e-6,2.562507 0.518744,4.456256 1.55625,5.68125 1.037492,1.225003 2.293741,1.837503 3.76875,1.8375 1.499988,3e-6 2.784362,-0.634372 3.853125,-1.903125 1.068735,-1.268744 1.603109,-3.234367 1.603125,-5.896875 -1.6e-5,-2.537487 -0.52189,-4.437486 -1.565625,-5.7 -1.043763,-1.262483 -2.290637,-1.893732 -3.740625,-1.89375 -1.437509,1.8e-5 -2.709383,0.671892 -3.815625,2.015625 -1.106256,1.343764 -1.659381,3.296887 -1.659375,5.859375 z"
     style="font-size:38.40000153px;text-align:center;text-anchor:middle"
     id="path3046" /></g>

<g
   transform="scale(1,-1)"
   style="font-size:96px;font-style:normal;font-weight:normal;line-height:125%;letter-spacing:0px;word-spacing:0px;fill:#000000;fill-opacity:1;stroke:none;font-family:Sans"
   id="text3799"><path
     d="m 308.8869,-69.926489 3.3375,-0.525 c 0.1875,1.337505 0.70937,2.362504 1.56562,3.075 0.85625,0.712503 2.05312,1.068753 3.59063,1.06875 1.54999,3e-6 2.69999,-0.315622 3.45,-0.946875 0.74999,-0.631246 1.12499,-1.37187 1.125,-2.221875 -10e-6,-0.762493 -0.33126,-1.362493 -0.99375,-1.8 -0.46251,-0.299992 -1.61251,-0.681242 -3.45,-1.14375 -2.47501,-0.624991 -4.19063,-1.165615 -5.14688,-1.621875 -0.95625,-0.456239 -1.68125,-1.087489 -2.175,-1.89375 -0.49375,-0.806237 -0.74062,-1.696861 -0.74062,-2.671875 0,-0.887485 0.20312,-1.709359 0.60937,-2.465625 0.40625,-0.756232 0.95938,-1.384357 1.65938,-1.884375 0.525,-0.387481 1.24062,-0.715606 2.14687,-0.984375 0.90625,-0.26873 1.87812,-0.403105 2.91563,-0.403125 1.56249,2e-5 2.93436,0.22502 4.11563,0.675 1.18123,0.450019 2.05311,1.059393 2.61562,1.828125 0.56248,0.768767 0.94998,1.796891 1.1625,3.084375 l -3.3,0.45 c -0.15001,-1.024985 -0.58439,-1.824984 -1.30312,-2.4 -0.71877,-0.574983 -1.73439,-0.862483 -3.04688,-0.8625 -1.55001,1.7e-5 -2.65626,0.256267 -3.31875,0.76875 -0.66251,0.512516 -0.99376,1.112516 -0.99375,1.8 -1e-5,0.437515 0.13749,0.831264 0.4125,1.18125 0.27499,0.362513 0.70624,0.662513 1.29375,0.9 0.33749,0.125013 1.33124,0.412513 2.98125,0.8625 2.38749,0.637511 4.05311,1.159386 4.99688,1.565625 0.94373,0.40626 1.68435,0.996885 2.22187,1.771875 0.53748,0.775008 0.80623,1.737507 0.80625,2.8875 -2e-5,1.125005 -0.32814,2.184379 -0.98437,3.178125 -0.65627,0.993752 -1.60314,1.762501 -2.84063,2.30625 -1.23751,0.54375 -2.63751,0.815625 -4.2,0.815626 -2.58751,-10e-7 -4.55938,-0.5375 -5.91563,-1.612501 -1.35625,-1.074997 -2.22187,-2.668746 -2.59687,-4.78125 z"
     style="font-size:38.40000153px;text-align:center;text-anchor:middle"
     id="path3000" /><path
     d="m 343.06815,-70.395239 3.4875,0.43125 c -0.55002,2.037504 -1.56877,3.618753 -3.05625,4.74375 -1.48751,1.125001 -3.38751,1.6875 -5.7,1.687501 -2.91251,-10e-7 -5.22188,-0.896875 -6.92812,-2.690626 -1.70626,-1.793746 -2.55938,-4.309368 -2.55938,-7.546875 0,-3.349987 0.8625,-5.949984 2.5875,-7.8 1.725,-1.849981 3.96249,-2.77498 6.7125,-2.775 2.66249,2e-5 4.83749,0.906269 6.525,2.71875 1.68748,1.812516 2.53123,4.362513 2.53125,7.65 -2e-5,0.20001 -0.006,0.50001 -0.0188,0.9 l -14.85,0 c 0.125,2.187507 0.74375,3.862506 1.85625,5.025 1.11249,1.162503 2.49999,1.743753 4.1625,1.74375 1.23749,3e-6 2.29374,-0.324997 3.16875,-0.975 0.87499,-0.649996 1.56874,-1.687495 2.08125,-3.1125 z m -11.08125,-5.45625 11.11875,0 c -0.15001,-1.674986 -0.57501,-2.931235 -1.275,-3.76875 -1.07501,-1.299983 -2.46876,-1.949983 -4.18125,-1.95 -1.55001,1.7e-5 -2.85313,0.518767 -3.90937,1.55625 -1.05626,1.037515 -1.64063,2.425014 -1.75313,4.1625 z"
     style="font-size:38.40000153px;text-align:center;text-anchor:middle"
     id="path3002" /><path
     d="m 350.7744,-63.982738 0,-19.912501 3.0375,0 0,3.01875 c 0.77499,-1.412482 1.49062,-2.343731 2.14688,-2.79375 0.65624,-0.44998 1.37811,-0.67498 2.16562,-0.675 1.13749,2e-5 2.29374,0.36252 3.46875,1.0875 l -1.1625,3.13125 c -0.82501,-0.487484 -1.65001,-0.731233 -2.475,-0.73125 -0.73751,1.7e-5 -1.40001,0.221891 -1.9875,0.665625 -0.58751,0.443766 -1.00626,1.05939 -1.25625,1.846875 -0.37501,1.200013 -0.56251,2.512512 -0.5625,3.9375 l 0,10.425001 z"
     style="font-size:38.40000153px;text-align:center;text-anchor:middle"
     id="path3004" /><path
     d="m 369.16815,-63.982738 -7.575,-19.912501 3.5625,0 4.275,11.925 c 0.46249,1.287507 0.88749,2.625006 1.275,4.0125 0.29999,-1.049995 0.71874,-2.312493 1.25625,-3.7875 l 4.425,-12.15 3.46875,0 -7.5375,19.912501 z"
     style="font-size:38.40000153px;text-align:center;text-anchor:middle"
     id="path3006" /><path
     d="m 396.46816,-70.395239 3.4875,0.43125 c -0.55002,2.037504 -1.56877,3.618753 -3.05625,4.74375 -1.48752,1.125001 -3.38752,1.6875 -5.7,1.687501 -2.91251,-10e-7 -5.22188,-0.896875 -6.92813,-2.690626 -1.70625,-1.793746 -2.55938,-4.309368 -2.55937,-7.546875 -10e-6,-3.349987 0.86249,-5.949984 2.5875,-7.8 1.72499,-1.849981 3.96249,-2.77498 6.7125,-2.775 2.66248,2e-5 4.83748,0.906269 6.525,2.71875 1.68748,1.812516 2.53123,4.362513 2.53125,7.65 -2e-5,0.20001 -0.006,0.50001 -0.0187,0.9 l -14.85,0 c 0.12499,2.187507 0.74374,3.862506 1.85625,5.025 1.11249,1.162503 2.49999,1.743753 4.1625,1.74375 1.23748,3e-6 2.29373,-0.324997 3.16875,-0.975 0.87498,-0.649996 1.56873,-1.687495 2.08125,-3.1125 z m -11.08125,-5.45625 11.11875,0 c -0.15002,-1.674986 -0.57502,-2.931235 -1.275,-3.76875 -1.07502,-1.299983 -2.46877,-1.949983 -4.18125,-1.95 -1.55001,1.7e-5 -2.85314,0.518767 -3.90938,1.55625 -1.05625,1.037515 -1.64063,2.425014 -1.75312,4.1625 z"
     style="font-size:38.40000153px;text-align:center;text-anchor:middle"
     id="path3008" /><path
     d="m 404.17441,-63.982738 0,-19.912501 3.0375,0 0,3.01875 c 0.77499,-1.412482 1.49061,-2.343731 2.14687,-2.79375 0.65624,-0.44998 1.37812,-0.67498 2.16563,-0.675 1.13749,2e-5 2.29373,0.36252 3.46875,1.0875 l -1.1625,3.13125 c -0.82502,-0.487484 -1.65001,-0.731233 -2.475,-0.73125 -0.73751,1.7e-5 -1.40001,0.221891 -1.9875,0.665625 -0.58751,0.443766 -1.00626,1.05939 -1.25625,1.846875 -0.37501,1.200013 -0.56251,2.512512 -0.5625,3.9375 l 0,10.425001 z"
     style="font-size:38.40000153px;text-align:center;text-anchor:middle"
     id="path3010" /></g>

</g></svg>