<?xml version="1.0" encoding="UTF-8" standalone="no"?>
<!-- Created with Inkscape (http://www.inkscape.org/) -->

<svg
   xmlns:dc="http://purl.org/dc/elements/1.1/"
   xmlns:cc="http://creativecommons.org/ns#"
   xmlns:rdf="http://www.w3.org/1999/02/22-rdf-syntax-ns#"
   xmlns:svg="http://www.w3.org/2000/svg"
   xmlns="http://www.w3.org/2000/svg"
   xmlns:sodipodi="http://sodipodi.sourceforge.net/DTD/sodipodi-0.dtd"
   xmlns:inkscape="http://www.inkscape.org/namespaces/inkscape"
   id="svg8160"
   version="1.1"
   inkscape:version="0.48.4 r9939"
   width="707.08435"
   height="355.90524"
   xml:space="preserve"
   sodipodi:docname="2.project.svg"><metadata
     id="metadata8166"><rdf:RDF><cc:Work
         rdf:about=""><dc:format>image/svg+xml</dc:format><dc:type
           rdf:resource="http://purl.org/dc/dcmitype/StillImage" /><dc:title></dc:title></cc:Work></rdf:RDF></metadata><defs
     id="defs8164" /><sodipodi:namedview
     pagecolor="#ffffff"
     bordercolor="#666666"
     borderopacity="1"
     objecttolerance="10"
     gridtolerance="10"
     guidetolerance="10"
     inkscape:pageopacity="0"
     inkscape:pageshadow="2"
     inkscape:window-width="1280"
     inkscape:window-height="962"
     id="namedview8162"
     showgrid="false"
     fit-margin-top="20"
     fit-margin-right="20"
     fit-margin-bottom="20"
     fit-margin-left="20"
     inkscape:zoom="1.026087"
     inkscape:cx="347.29699"
     inkscape:cy="289.15621"
     inkscape:window-x="-8"
     inkscape:window-y="-8"
     inkscape:window-maximized="1"
     inkscape:current-layer="g8168" /><g
     id="g8168"
     inkscape:groupmode="layer"
     inkscape:label="ink_ext_XXXXXX"
     transform="matrix(1.25,0,0,-1.25,148.62288,274.46812)"><path
   inkscape:connector-curvature="0"
   id="path8206"
   style="fill:#e9afaf;fill-opacity:1;stroke:#000000;stroke-width:2.4;stroke-linecap:butt;stroke-linejoin:round;stroke-miterlimit:4;stroke-opacity:1;stroke-dasharray:none"
   d="m 94.116663,39.11568 105.079137,0 0,74.98951 -105.079137,0 0,-74.98951 z" /><path
   inkscape:connector-curvature="0"
   id="path8226"
   style="fill:#c6e9af;fill-opacity:1;stroke:#000000;stroke-width:2.4;stroke-linecap:butt;stroke-linejoin:round;stroke-miterlimit:4;stroke-opacity:1;stroke-dasharray:none"
   d="m 291.58204,38.972676 138.29548,0 0,74.622404 -138.29548,0 0,-74.622404 z" /><path
   inkscape:connector-curvature="0"
   id="path8234"
   style="fill:none;stroke:#000000;stroke-width:1.90899611;stroke-linecap:butt;stroke-linejoin:miter;stroke-miterlimit:4;stroke-opacity:1;stroke-dasharray:none"
   d="m 272.61887,72.260066 -65.2584,0.01872" /><path
   inkscape:connector-curvature="0"
   id="path8238"
   style="fill:#ffffff;stroke:#000000;stroke-width:1.92000008;stroke-linecap:butt;stroke-linejoin:miter;stroke-miterlimit:4;stroke-opacity:1;stroke-dasharray:none"
   d="m 268.77647,81.457826 8.304,-4.84776 8.3184,-4.8468 -8.3544,-4.78224 -8.3544,-4.77192 0.0384,9.61968 0.048,9.62904 z" /><path
   inkscape:connector-curvature="0"
   id="path8242"
   style="fill:#ffffff;stroke:#000000;stroke-width:1.92000008;stroke-linecap:butt;stroke-linejoin:miter;stroke-miterlimit:4;stroke-opacity:1;stroke-dasharray:none"
   d="m 221.57087,62.546546 -8.3328,4.82928 -8.3256,4.81872 8.3448,4.80936 8.3448,4.80096 -0.0216,-9.62904 -0.01,-9.62928 z" /><g
   id="g8244"
   transform="matrix(2.4,0,0,2.4,-168.33243,-129.70462)"><g
   transform="matrix(0.999999,0.00130287,0.00130287,-0.999999,166.948,80.2512)"
   style=""
   id="text8246"><path
     d="m 0.21093747,0 0,-1.6593748 0.25312497,0 0,0.2359375 c 0.1218744,-0.18229 0.29791586,-0.2734358 0.52812493,-0.2734375 0.0999989,1.7e-6 0.19192583,0.017971 0.27578123,0.053906 0.083853,0.035939 0.1466131,0.083074 0.1882812,0.1414062 0.041665,0.058335 0.070832,0.1276055 0.0875,0.2078125 0.010415,0.052085 0.015623,0.1432303 0.015625,0.2734374 l 0,1.0203124 -0.28125,0 0,-1.0093749 c -1.2e-6,-0.1145822 -0.010939,-0.2002591 -0.032813,-0.2570312 -0.021876,-0.056769 -0.060678,-0.1020819 -0.1164062,-0.1359375 -0.05573,-0.033853 -0.1210947,-0.05078 -0.19609373,-0.050781 -0.11979246,1.4e-6 -0.22317776,0.038022 -0.3101562,0.1140625 -0.0869797,0.076043 -0.13046923,0.2203136 -0.13046874,0.43281242 l 0,0.90624988 z"
     style="font-size:3.19999957px;font-style:oblique;font-variant:normal;writing-mode:lr-tb;fill:#000000;fill-opacity:1;fill-rule:nonzero;stroke:none;font-family:DejaVu Sans;-inkscape-font-specification:DejaVuSans-Oblique"
     id="path3094" /><path
     d="m 2.1350498,-0.82968739 c -10e-8,-0.30729051 0.085416,-0.53489441 0.2562499,-0.68281241 0.1427078,-0.122915 0.316666,-0.1843733 0.521875,-0.184375 0.2281238,1.7e-6 0.4145819,0.074741 0.5593749,0.2242187 0.14479,0.1494805 0.2171858,0.3559907 0.2171874,0.61953121 -1.6e-6,0.21354228 -0.032033,0.38151084 -0.096094,0.50390619 -0.064064,0.12239604 -0.157293,0.21744802 -0.2796875,0.28515621 C 3.1915589,0.00364583 3.0579653,0.03749996 2.9131747,0.03749999 2.6808824,0.03749996 2.4931222,-0.03697912 2.3498935,-0.18593748 2.2066642,-0.33489545 2.1350497,-0.54947854 2.1350498,-0.82968739 z m 0.2890624,0 c -4e-7,0.21250059 0.046354,0.37161499 0.1390625,0.47734369 0.092708,0.1057294 0.2093742,0.15859392 0.35,0.15859373 0.1395822,1.9e-7 0.2557279,-0.0531247 0.3484374,-0.15937498 0.092707,-0.10624953 0.1390611,-0.26822851 0.1390625,-0.48593744 -1.4e-6,-0.20520721 -0.046616,-0.36067581 -0.1398437,-0.46640621 -0.09323,-0.1057277 -0.2091156,-0.1585922 -0.3476562,-0.1585937 -0.1406258,1.5e-6 -0.2572923,0.052606 -0.35,0.1578125 -0.092709,0.1052095 -0.1390629,0.2640635 -0.1390625,0.47656241 z"
     style="font-size:3.19999957px;font-style:oblique;font-variant:normal;writing-mode:lr-tb;fill:#000000;fill-opacity:1;fill-rule:nonzero;stroke:none;font-family:DejaVu Sans;-inkscape-font-specification:DejaVuSans-Oblique"
     id="path3096" /><path
     d="m 4.8121992,-0.25156247 0.040625,0.24843747 c -0.079167,0.01666665 -0.1500007,0.02499998 -0.2125,0.025 -0.1020839,-2e-8 -0.1812504,-0.01614584 -0.2374999,-0.0484375 -0.05625,-0.0322916 -0.095834,-0.07473947 -0.11875,-0.12734373 -0.022917,-0.0526039 -0.034375,-0.16328091 -0.034375,-0.3320312 l 0,-0.95468737 -0.20625,0 0,-0.21875 0.20625,0 0,-0.4109374 0.2796874,-0.16875 0,0.5796874 0.2828125,0 0,0.21875 -0.2828125,0 0,0.97031236 c -5e-7,0.0802087 0.00495,0.13177116 0.014844,0.15468748 0.0099,0.022917 0.026041,0.0411461 0.048437,0.0546875 0.022395,0.0135419 0.054426,0.0203127 0.096094,0.0203125 0.031249,2.4e-7 0.072395,-0.003646 0.1234375,-0.0109375 z"
     style="font-size:3.19999957px;font-style:oblique;font-variant:normal;writing-mode:lr-tb;fill:#000000;fill-opacity:1;fill-rule:nonzero;stroke:none;font-family:DejaVu Sans;-inkscape-font-specification:DejaVuSans-Oblique"
     id="path3098" /><path
     d="m 5.4540991,-1.9671872 0,-0.3234375 0.2812499,0 0,0.3234375 z m 0,1.9671872 0,-1.6593748 0.2812499,0 0,1.6593748 z"
     style="font-size:3.19999957px;font-style:oblique;font-variant:normal;writing-mode:lr-tb;fill:#000000;fill-opacity:1;fill-rule:nonzero;stroke:none;font-family:DejaVu Sans;-inkscape-font-specification:DejaVuSans-Oblique"
     id="path3100" /><path
     d="m 6.232224,0 0,-1.4406248 -0.2484375,0 0,-0.21875 0.2484375,0 0,-0.1765625 c -3e-7,-0.1114563 0.0099,-0.1942687 0.029687,-0.2484374 0.027083,-0.072914 0.074739,-0.132029 0.1429687,-0.1773437 0.068229,-0.04531 0.1638014,-0.067967 0.2867187,-0.067969 0.079166,2.3e-6 0.1666657,0.00938 0.2625,0.028125 l -0.042187,0.2453125 c -0.058334,-0.010415 -0.1135425,-0.015623 -0.165625,-0.015625 -0.085417,2e-6 -0.145834,0.018231 -0.18125,0.054687 -0.035417,0.03646 -0.053126,0.1046894 -0.053125,0.2046874 l 0,0.153125 0.3234375,0 0,0.21875 -0.3234375,0 0,1.4406248 z"
     style="font-size:3.19999957px;font-style:oblique;font-variant:normal;writing-mode:lr-tb;fill:#000000;fill-opacity:1;fill-rule:nonzero;stroke:none;font-family:DejaVu Sans;-inkscape-font-specification:DejaVuSans-Oblique"
     id="path3102" /><path
     d="m 7.0540988,-1.9671872 0,-0.3234375 0.28125,0 0,0.3234375 z m 0,1.9671872 0,-1.6593748 0.28125,0 0,1.6593748 z"
     style="font-size:3.19999957px;font-style:oblique;font-variant:normal;writing-mode:lr-tb;fill:#000000;fill-opacity:1;fill-rule:nonzero;stroke:none;font-family:DejaVu Sans;-inkscape-font-specification:DejaVuSans-Oblique"
     id="path3104" /><path
     d="m 8.9009737,-0.53437493 0.2906249,0.0359375 c -0.045835,0.16979197 -0.1307306,0.30156265 -0.2546874,0.39531244 -0.1239596,0.09375 -0.2822928,0.14062495 -0.475,0.14062498 -0.2427089,-3e-8 -0.4351566,-0.07473953 -0.5773436,-0.22421871 -0.1421877,-0.14947882 -0.2132814,-0.35911399 -0.2132813,-0.62890617 -1e-7,-0.27916551 0.071875,-0.49583191 0.215625,-0.64999991 0.1437495,-0.154165 0.3302076,-0.2312483 0.5593749,-0.23125 0.2218739,1.7e-6 0.4031237,0.075522 0.54375,0.2265625 0.1406234,0.151043 0.2109358,0.3635427 0.2109374,0.63749991 -1.6e-6,0.0166675 -5.225e-4,0.0416674 -0.00156,0.075 l -1.2374998,0 c 0.010416,0.18229222 0.061979,0.32187539 0.1546875,0.41874995 0.092708,0.0968752 0.2083325,0.14531267 0.3468749,0.14531248 0.103124,1.9e-7 0.1911447,-0.0270831 0.2640625,-0.08125 0.072915,-0.0541663 0.1307278,-0.14062457 0.1734375,-0.25937497 z m -0.9234374,-0.45468744 0.9265624,0 c -0.012501,-0.13958223 -0.047918,-0.24426953 -0.10625,-0.31406243 -0.089584,-0.1083319 -0.2057302,-0.1624985 -0.3484375,-0.1625 -0.1291674,1.5e-6 -0.237761,0.043231 -0.3257812,0.1296875 -0.088021,0.08646 -0.1367191,0.2020844 -0.1460937,0.34687493 z"
     style="font-size:3.19999957px;font-style:oblique;font-variant:normal;writing-mode:lr-tb;fill:#000000;fill-opacity:1;fill-rule:nonzero;stroke:none;font-family:DejaVu Sans;-inkscape-font-specification:DejaVuSans-Oblique"
     id="path3106" /><path
     d="m 9.4337861,-0.49531243 0.278125,-0.04375 c 0.015625,0.11145875 0.059114,0.19687532 0.1304687,0.25624997 0.071354,0.0593752 0.1710932,0.0890627 0.2992182,0.0890625 0.129166,1.9e-7 0.224999,-0.0263019 0.2875,-0.0789062 0.0625,-0.0526038 0.09375,-0.11432252 0.09375,-0.18515623 -10e-7,-0.0635411 -0.0276,-0.11354108 -0.08281,-0.14999998 -0.03854,-0.0249994 -0.134376,-0.0567702 -0.2875,-0.0953125 -0.2062506,-0.0520826 -0.3492192,-0.0971346 -0.4289062,-0.13515623 -0.079688,-0.03802 -0.1401044,-0.0906241 -0.18125,-0.15781248 -0.041146,-0.0671864 -0.061719,-0.14140508 -0.061719,-0.22265618 -2e-7,-0.073957 0.016927,-0.1424466 0.050781,-0.2054688 0.033854,-0.063019 0.079948,-0.115363 0.1382813,-0.1570312 0.04375,-0.03229 0.1033849,-0.059634 0.1789062,-0.082031 0.07552,-0.022394 0.1565102,-0.033592 0.2429692,-0.033594 0.130207,1.7e-6 0.24453,0.018752 0.342968,0.05625 0.09844,0.037502 0.171093,0.088283 0.217969,0.1523437 0.04687,0.064064 0.07916,0.149741 0.09688,0.2570313 l -0.275,0.0375 c -0.0125,-0.085415 -0.0487,-0.152082 -0.108594,-0.2 -0.0599,-0.047915 -0.144532,-0.071874 -0.253906,-0.071875 -0.1291673,1.5e-6 -0.2213547,0.021356 -0.2765625,0.064063 -0.055209,0.04271 -0.082813,0.09271 -0.082812,0.15 -5e-7,0.03646 0.011458,0.069272 0.034375,0.098437 0.022916,0.030209 0.058854,0.055209 0.1078125,0.075 0.028124,0.010418 0.1109365,0.034376 0.2484375,0.071875 0.198957,0.053126 0.337759,0.0966155 0.416406,0.13046877 0.07864,0.033855 0.140363,0.0830737 0.185156,0.14765623 0.04479,0.064584 0.06719,0.14479223 0.06719,0.24062497 -2e-6,0.0937504 -0.02735,0.18203153 -0.08203,0.26484371 -0.05469,0.0828126 -0.133595,0.14687506 -0.236719,0.19218747 -0.103126,0.04531248 -0.219793,0.06796871 -0.35,0.06796874 -0.2156256,-3e-8 -0.3799483,-0.04479165 -0.4929687,-0.13437498 C 9.5371713,-0.18645812 9.465036,-0.31927047 9.4337861,-0.49531243 z"
     style="font-size:3.19999957px;font-style:oblique;font-variant:normal;writing-mode:lr-tb;fill:#000000;fill-opacity:1;fill-rule:nonzero;stroke:none;font-family:DejaVu Sans;-inkscape-font-specification:DejaVuSans-Oblique"
     id="path3108" /></g>



<g
   transform="translate(173,80.2)"
   style=""
   id="text8250"><path
     d="m 0,0 0,-0.0625 0.05,0 0,0.0625 z m 0.0015625,-0.0015625 0.046875,0 0,-0.059375 -0.046875,0 z"
     style="font-size:0.1px;font-variant:normal;font-weight:normal;writing-mode:lr-tb;fill:#000000;fill-opacity:1;fill-rule:nonzero;stroke:none;font-family:Arial Black;-inkscape-font-specification:Arial"
     id="path3111" /></g>



</g>

<g
   transform="scale(1,-1)"
   style="font-size:96px;font-style:normal;font-weight:normal;line-height:125%;letter-spacing:0px;word-spacing:0px;fill:#000000;fill-opacity:1;stroke:none;font-family:Sans"
   id="text3838-3-7"><path
     d="m 125.72977,-67.218648 c -1.25001,1.062502 -2.45314,1.812501 -3.60937,2.25 -1.15626,0.4375 -2.39689,0.65625 -3.72188,0.65625 -2.1875,0 -3.86875,-0.534375 -5.04375,-1.603125 -1.175,-1.068748 -1.7625,-2.434371 -1.7625,-4.096875 0,-0.974994 0.22188,-1.865618 0.66563,-2.671875 0.44374,-0.806241 1.02499,-1.453116 1.74375,-1.940625 0.71874,-0.48749 1.52812,-0.856239 2.42812,-1.10625 0.66249,-0.174989 1.66249,-0.343739 3,-0.50625 2.72499,-0.324988 4.73124,-0.712488 6.01875,-1.1625 0.0125,-0.462487 0.0187,-0.756237 0.0187,-0.88125 -1e-5,-1.374985 -0.31876,-2.343735 -0.95625,-2.90625 -0.86251,-0.762483 -2.14376,-1.143733 -3.84375,-1.14375 -1.58751,1.7e-5 -2.75938,0.278142 -3.51562,0.834375 -0.75626,0.556266 -1.31563,1.54064 -1.67813,2.953125 l -3.3,-0.45 c 0.3,-1.412485 0.79375,-2.553109 1.48125,-3.421875 0.6875,-0.868732 1.68125,-1.537481 2.98125,-2.006251 1.29999,-0.468729 2.80624,-0.703104 4.51875,-0.703125 1.69999,2.1e-5 3.08124,0.200021 4.14375,0.6 1.06249,0.40002 1.84374,0.903144 2.34375,1.509376 0.49998,0.606267 0.84998,1.371891 1.05,2.296875 0.11248,0.575015 0.16873,1.612514 0.16875,3.1125 l 0,4.5 c -2e-5,3.137505 0.0719,5.121878 0.21563,5.953125 0.14373,0.831252 0.4281,1.628126 0.85312,2.390625 l -3.525,0 c -0.35001,-0.699999 -0.57501,-1.518748 -0.675,-2.45625 z m -0.28125,-7.5375 c -1.22501,0.500009 -3.06251,0.925009 -5.5125,1.275 -1.38751,0.200008 -2.36876,0.425008 -2.94375,0.675 -0.575,0.250008 -1.01875,0.615632 -1.33125,1.096875 -0.3125,0.481256 -0.46875,1.015631 -0.46875,1.603125 0,0.900005 0.34062,1.650004 1.02188,2.25 0.68124,0.600003 1.67811,0.900002 2.99062,0.9 1.29999,2e-6 2.45624,-0.284372 3.46875,-0.853125 1.01249,-0.568746 1.75624,-1.346871 2.23125,-2.334375 0.36249,-0.762494 0.54374,-1.887493 0.54375,-3.375 z"
     style="font-size:38.40000153px;text-align:center;text-anchor:middle"
     id="path3127" /><path
     d="m 134.09227,-88.331149 0,-3.91875 3.375,0 0,3.91875 z m -4.275,31.293752 0.6375,-2.868751 c 0.675,0.174995 1.20625,0.262495 1.59375,0.2625 0.6875,-5e-6 1.2,-0.228129 1.5375,-0.684375 0.3375,-0.456254 0.50625,-1.596877 0.50625,-3.421875 l 0,-20.925001 3.375,0 0,21.000001 c 0,2.449997 -0.31875,4.156245 -0.95625,5.11875 -0.8125,1.249993 -2.1625,1.874992 -4.05,1.875001 -0.9125,-9e-6 -1.79375,-0.118758 -2.64375,-0.35625 z"
     style="font-size:38.40000153px;text-align:center;text-anchor:middle"
     id="path3129" /><path
     d="m 155.65477,-67.218648 c -1.25001,1.062502 -2.45314,1.812501 -3.60937,2.25 -1.15626,0.4375 -2.39689,0.65625 -3.72188,0.65625 -2.1875,0 -3.86875,-0.534375 -5.04375,-1.603125 -1.175,-1.068748 -1.7625,-2.434371 -1.7625,-4.096875 0,-0.974994 0.22187,-1.865618 0.66563,-2.671875 0.44374,-0.806241 1.02499,-1.453116 1.74375,-1.940625 0.71874,-0.48749 1.52812,-0.856239 2.42812,-1.10625 0.66249,-0.174989 1.66249,-0.343739 3,-0.50625 2.72499,-0.324988 4.73124,-0.712488 6.01875,-1.1625 0.0125,-0.462487 0.0187,-0.756237 0.0187,-0.88125 -1e-5,-1.374985 -0.31876,-2.343735 -0.95625,-2.90625 -0.86251,-0.762483 -2.14376,-1.143733 -3.84375,-1.14375 -1.58751,1.7e-5 -2.75938,0.278142 -3.51562,0.834375 -0.75626,0.556266 -1.31563,1.54064 -1.67813,2.953125 l -3.3,-0.45 c 0.3,-1.412485 0.79375,-2.553109 1.48125,-3.421875 0.6875,-0.868732 1.68125,-1.537481 2.98125,-2.006251 1.29999,-0.468729 2.80624,-0.703104 4.51875,-0.703125 1.69999,2.1e-5 3.08124,0.200021 4.14375,0.6 1.06249,0.40002 1.84373,0.903144 2.34375,1.509376 0.49998,0.606267 0.84998,1.371891 1.05,2.296875 0.11248,0.575015 0.16873,1.612514 0.16875,3.1125 l 0,4.5 c -2e-5,3.137505 0.0719,5.121878 0.21563,5.953125 0.14373,0.831252 0.4281,1.628126 0.85312,2.390625 l -3.525,0 c -0.35001,-0.699999 -0.57501,-1.518748 -0.675,-2.45625 z m -0.28125,-7.5375 c -1.22501,0.500009 -3.06251,0.925009 -5.5125,1.275 -1.38751,0.200008 -2.36876,0.425008 -2.94375,0.675 -0.57501,0.250008 -1.01875,0.615632 -1.33125,1.096875 -0.3125,0.481256 -0.46875,1.015631 -0.46875,1.603125 0,0.900005 0.34062,1.650004 1.02188,2.25 0.68124,0.600003 1.67811,0.900002 2.99062,0.9 1.29999,2e-6 2.45624,-0.284372 3.46875,-0.853125 1.01249,-0.568746 1.75624,-1.346871 2.23125,-2.334375 0.36249,-0.762494 0.54374,-1.887493 0.54375,-3.375 z"
     style="font-size:38.40000153px;text-align:center;text-anchor:middle"
     id="path3131" /><path
     d="m 161.78602,-64.762398 7.275,-10.35 -6.73125,-9.562501 4.21875,0 3.05625,4.668751 c 0.57499,0.887514 1.03749,1.631263 1.3875,2.23125 0.54999,-0.824986 1.05624,-1.556236 1.51875,-2.19375 l 3.35625,-4.706251 4.03125,0 -6.88125,9.375001 7.40625,10.5375 -4.14375,0 -4.0875,-6.1875 -1.0875,-1.66875 -5.23125,7.85625 z"
     style="font-size:38.40000153px;text-align:center;text-anchor:middle"
     id="path3133" /></g>







<g
   transform="scale(1,-1)"
   style="font-size:96px;font-style:normal;font-weight:normal;line-height:125%;letter-spacing:0px;word-spacing:0px;fill:#000000;fill-opacity:1;stroke:none;font-family:Sans"
   id="text3799"><path
     d="m 308.8869,-69.926489 3.3375,-0.525 c 0.1875,1.337505 0.70937,2.362504 1.56562,3.075 0.85625,0.712503 2.05312,1.068753 3.59063,1.06875 1.54999,3e-6 2.69999,-0.315622 3.45,-0.946875 0.74999,-0.631246 1.12499,-1.37187 1.125,-2.221875 -10e-6,-0.762493 -0.33126,-1.362493 -0.99375,-1.8 -0.46251,-0.299992 -1.61251,-0.681242 -3.45,-1.14375 -2.47501,-0.624991 -4.19063,-1.165615 -5.14688,-1.621875 -0.95625,-0.456239 -1.68125,-1.087489 -2.175,-1.89375 -0.49375,-0.806237 -0.74062,-1.696861 -0.74062,-2.671875 0,-0.887485 0.20312,-1.709359 0.60937,-2.465625 0.40625,-0.756232 0.95938,-1.384357 1.65938,-1.884375 0.525,-0.387481 1.24062,-0.715606 2.14687,-0.984375 0.90625,-0.26873 1.87812,-0.403105 2.91563,-0.403125 1.56249,2e-5 2.93436,0.22502 4.11563,0.675 1.18123,0.450019 2.05311,1.059393 2.61562,1.828125 0.56248,0.768767 0.94998,1.796891 1.1625,3.084375 l -3.3,0.45 c -0.15001,-1.024985 -0.58439,-1.824984 -1.30312,-2.4 -0.71877,-0.574983 -1.73439,-0.862483 -3.04688,-0.8625 -1.55001,1.7e-5 -2.65626,0.256267 -3.31875,0.76875 -0.66251,0.512516 -0.99376,1.112516 -0.99375,1.8 -1e-5,0.437515 0.13749,0.831264 0.4125,1.18125 0.27499,0.362513 0.70624,0.662513 1.29375,0.9 0.33749,0.125013 1.33124,0.412513 2.98125,0.8625 2.38749,0.637511 4.05311,1.159386 4.99688,1.565625 0.94373,0.40626 1.68435,0.996885 2.22187,1.771875 0.53748,0.775008 0.80623,1.737507 0.80625,2.8875 -2e-5,1.125005 -0.32814,2.184379 -0.98437,3.178125 -0.65627,0.993752 -1.60314,1.762501 -2.84063,2.30625 -1.23751,0.54375 -2.63751,0.815625 -4.2,0.815626 -2.58751,-10e-7 -4.55938,-0.5375 -5.91563,-1.612501 -1.35625,-1.074997 -2.22187,-2.668746 -2.59687,-4.78125 z"
     style="font-size:38.40000153px;text-align:center;text-anchor:middle"
     id="path3114" /><path
     d="m 343.06815,-70.395239 3.4875,0.43125 c -0.55002,2.037504 -1.56877,3.618753 -3.05625,4.74375 -1.48751,1.125001 -3.38751,1.6875 -5.7,1.687501 -2.91251,-10e-7 -5.22188,-0.896875 -6.92812,-2.690626 -1.70626,-1.793746 -2.55938,-4.309368 -2.55938,-7.546875 0,-3.349987 0.8625,-5.949984 2.5875,-7.8 1.725,-1.849981 3.96249,-2.77498 6.7125,-2.775 2.66249,2e-5 4.83749,0.906269 6.525,2.71875 1.68748,1.812516 2.53123,4.362513 2.53125,7.65 -2e-5,0.20001 -0.006,0.50001 -0.0188,0.9 l -14.85,0 c 0.125,2.187507 0.74375,3.862506 1.85625,5.025 1.11249,1.162503 2.49999,1.743753 4.1625,1.74375 1.23749,3e-6 2.29374,-0.324997 3.16875,-0.975 0.87499,-0.649996 1.56874,-1.687495 2.08125,-3.1125 z m -11.08125,-5.45625 11.11875,0 c -0.15001,-1.674986 -0.57501,-2.931235 -1.275,-3.76875 -1.07501,-1.299983 -2.46876,-1.949983 -4.18125,-1.95 -1.55001,1.7e-5 -2.85313,0.518767 -3.90937,1.55625 -1.05626,1.037515 -1.64063,2.425014 -1.75313,4.1625 z"
     style="font-size:38.40000153px;text-align:center;text-anchor:middle"
     id="path3116" /><path
     d="m 350.7744,-63.982738 0,-19.912501 3.0375,0 0,3.01875 c 0.77499,-1.412482 1.49062,-2.343731 2.14688,-2.79375 0.65624,-0.44998 1.37811,-0.67498 2.16562,-0.675 1.13749,2e-5 2.29374,0.36252 3.46875,1.0875 l -1.1625,3.13125 c -0.82501,-0.487484 -1.65001,-0.731233 -2.475,-0.73125 -0.73751,1.7e-5 -1.40001,0.221891 -1.9875,0.665625 -0.58751,0.443766 -1.00626,1.05939 -1.25625,1.846875 -0.37501,1.200013 -0.56251,2.512512 -0.5625,3.9375 l 0,10.425001 z"
     style="font-size:38.40000153px;text-align:center;text-anchor:middle"
     id="path3118" /><path
     d="m 369.16815,-63.982738 -7.575,-19.912501 3.5625,0 4.275,11.925 c 0.46249,1.287507 0.88749,2.625006 1.275,4.0125 0.29999,-1.049995 0.71874,-2.312493 1.25625,-3.7875 l 4.425,-12.15 3.46875,0 -7.5375,19.912501 z"
     style="font-size:38.40000153px;text-align:center;text-anchor:middle"
     id="path3120" /><path
     d="m 396.46816,-70.395239 3.4875,0.43125 c -0.55002,2.037504 -1.56877,3.618753 -3.05625,4.74375 -1.48752,1.125001 -3.38752,1.6875 -5.7,1.687501 -2.91251,-10e-7 -5.22188,-0.896875 -6.92813,-2.690626 -1.70625,-1.793746 -2.55938,-4.309368 -2.55937,-7.546875 -10e-6,-3.349987 0.86249,-5.949984 2.5875,-7.8 1.72499,-1.849981 3.96249,-2.77498 6.7125,-2.775 2.66248,2e-5 4.83748,0.906269 6.525,2.71875 1.68748,1.812516 2.53123,4.362513 2.53125,7.65 -2e-5,0.20001 -0.006,0.50001 -0.0187,0.9 l -14.85,0 c 0.12499,2.187507 0.74374,3.862506 1.85625,5.025 1.11249,1.162503 2.49999,1.743753 4.1625,1.74375 1.23748,3e-6 2.29373,-0.324997 3.16875,-0.975 0.87498,-0.649996 1.56873,-1.687495 2.08125,-3.1125 z m -11.08125,-5.45625 11.11875,0 c -0.15002,-1.674986 -0.57502,-2.931235 -1.275,-3.76875 -1.07502,-1.299983 -2.46877,-1.949983 -4.18125,-1.95 -1.55001,1.7e-5 -2.85314,0.518767 -3.90938,1.55625 -1.05625,1.037515 -1.64063,2.425014 -1.75312,4.1625 z"
     style="font-size:38.40000153px;text-align:center;text-anchor:middle"
     id="path3122" /><path
     d="m 404.17441,-63.982738 0,-19.912501 3.0375,0 0,3.01875 c 0.77499,-1.412482 1.49061,-2.343731 2.14687,-2.79375 0.65624,-0.44998 1.37812,-0.67498 2.16563,-0.675 1.13749,2e-5 2.29373,0.36252 3.46875,1.0875 l -1.1625,3.13125 c -0.82502,-0.487484 -1.65001,-0.731233 -2.475,-0.73125 -0.73751,1.7e-5 -1.40001,0.221891 -1.9875,0.665625 -0.58751,0.443766 -1.00626,1.05939 -1.25625,1.846875 -0.37501,1.200013 -0.56251,2.512512 -0.5625,3.9375 l 0,10.425001 z"
     style="font-size:38.40000153px;text-align:center;text-anchor:middle"
     id="path3124" /></g>
<path
   inkscape:connector-curvature="0"
   id="path8216"
   style="fill:#aaccff;fill-opacity:1;stroke:#000000;stroke-width:1.6;stroke-linecap:butt;stroke-linejoin:round;stroke-miterlimit:4;stroke-opacity:1;stroke-dasharray:none"
   d="m -20.223863,-48.623046 110.611471,0 0,26.35172 -110.611471,0 0,-26.35172 z" /><path
   inkscape:connector-curvature="0"
   id="path8258"
   style="fill:none;stroke:#000000;stroke-width:1.90356958;stroke-linecap:butt;stroke-linejoin:miter;stroke-miterlimit:4;stroke-opacity:1;stroke-dasharray:none"
   d="m 93.346846,134.08608 -38.23152,34.3488" /><path
   inkscape:connector-curvature="0"
   id="path8260"
   style="fill:#ffffff;fill-opacity:1;fill-rule:nonzero;stroke:none"
   d="m 98.372447,141.94128 2.952003,-9.15839 2.94481,-9.1584 -9.403214,2.0232 -9.4128,2.0256 12.919201,14.26799 z" /><path
   inkscape:connector-curvature="0"
   id="path8262"
   style="fill:none;stroke:#000000;stroke-width:1.92000008;stroke-linecap:butt;stroke-linejoin:miter;stroke-miterlimit:4;stroke-opacity:1;stroke-dasharray:none"
   d="m 98.370047,141.94128 2.956803,-9.15839 2.94241,-9.1608 -9.403214,2.0256 -9.4128,2.0256 12.916801,14.26799 z" /><path
   inkscape:connector-curvature="0"
   id="path8264"
   style="fill:#ffffff;fill-opacity:1;fill-rule:nonzero;stroke:none"
   d="m 59.192446,151.70208 -2.98128,9.1584 -2.98032,9.1512 9.42192,-1.9968 9.41352,-1.9968 -6.4416,-7.1544 -6.43224,-7.1616 z" /><path
   inkscape:connector-curvature="0"
   id="path8266"
   style="fill:none;stroke:#000000;stroke-width:1.92000008;stroke-linecap:butt;stroke-linejoin:miter;stroke-miterlimit:4;stroke-opacity:1;stroke-dasharray:none"
   d="m 59.194366,151.70208 -2.98224,9.156 -2.98224,9.1536 9.42288,-1.9968 9.4116,-1.9992 -6.44064,-7.152 -6.42936,-7.1616 z" /><g
   id="g8268"
   transform="matrix(2.4,0,0,2.4,-159.56595,-120.1123)"><g
   transform="matrix(0.745088,-0.666966,-0.666966,-0.745088,93.1176,112.436)"
   style=""
   id="text8270"><path
     d="m 0.21093747,0 0,-1.6593748 0.25312497,0 0,0.2359375 c 0.1218744,-0.18229 0.29791586,-0.2734358 0.52812493,-0.2734375 0.0999989,1.7e-6 0.19192583,0.017971 0.27578123,0.053906 0.083853,0.035939 0.1466131,0.083074 0.1882812,0.1414062 0.041665,0.058335 0.070832,0.1276055 0.0875,0.2078125 0.010415,0.052085 0.015623,0.1432303 0.015625,0.2734374 l 0,1.0203124 -0.28125,0 0,-1.0093749 c -1.2e-6,-0.1145822 -0.010939,-0.2002591 -0.032813,-0.2570312 -0.021876,-0.056769 -0.060678,-0.1020819 -0.1164062,-0.1359375 -0.05573,-0.033853 -0.1210947,-0.05078 -0.19609373,-0.050781 -0.11979246,1.4e-6 -0.22317776,0.038022 -0.3101562,0.1140625 -0.0869797,0.076043 -0.13046923,0.2203136 -0.13046874,0.43281242 l 0,0.90624988 z"
     style="font-size:3.19999957px;font-style:oblique;font-variant:normal;writing-mode:lr-tb;fill:#000000;fill-opacity:1;fill-rule:nonzero;stroke:none;font-family:DejaVu Sans;-inkscape-font-specification:DejaVuSans-Oblique"
     id="path3056" /><path
     d="m 2.1350498,-0.82968739 c -10e-8,-0.30729051 0.085416,-0.53489441 0.2562499,-0.68281241 0.1427078,-0.122915 0.316666,-0.1843733 0.521875,-0.184375 0.2281238,1.7e-6 0.4145819,0.074741 0.5593749,0.2242187 0.14479,0.1494805 0.2171858,0.3559907 0.2171874,0.61953121 -1.6e-6,0.21354228 -0.032033,0.38151084 -0.096094,0.50390619 -0.064064,0.12239604 -0.157293,0.21744802 -0.2796875,0.28515621 C 3.1915589,0.00364583 3.0579653,0.03749996 2.9131747,0.03749999 2.6808824,0.03749996 2.4931222,-0.03697912 2.3498935,-0.18593748 2.2066642,-0.33489545 2.1350497,-0.54947854 2.1350498,-0.82968739 z m 0.2890624,0 c -4e-7,0.21250059 0.046354,0.37161499 0.1390625,0.47734369 0.092708,0.1057294 0.2093742,0.15859392 0.35,0.15859373 0.1395822,1.9e-7 0.2557279,-0.0531247 0.3484374,-0.15937498 0.092707,-0.10624953 0.1390611,-0.26822851 0.1390625,-0.48593744 -1.4e-6,-0.20520721 -0.046616,-0.36067581 -0.1398437,-0.46640621 -0.09323,-0.1057277 -0.2091156,-0.1585922 -0.3476562,-0.1585937 -0.1406258,1.5e-6 -0.2572923,0.052606 -0.35,0.1578125 -0.092709,0.1052095 -0.1390629,0.2640635 -0.1390625,0.47656241 z"
     style="font-size:3.19999957px;font-style:oblique;font-variant:normal;writing-mode:lr-tb;fill:#000000;fill-opacity:1;fill-rule:nonzero;stroke:none;font-family:DejaVu Sans;-inkscape-font-specification:DejaVuSans-Oblique"
     id="path3058" /><path
     d="m 4.8121994,-0.25156247 0.040625,0.24843747 c -0.079167,0.01666665 -0.1500007,0.02499998 -0.2124999,0.025 -0.1020839,-2e-8 -0.1812505,-0.01614584 -0.2375,-0.0484375 -0.05625,-0.0322916 -0.095834,-0.07473947 -0.11875,-0.12734373 -0.022917,-0.0526039 -0.034375,-0.16328091 -0.034375,-0.3320312 l 0,-0.95468737 -0.20625,0 0,-0.21875 0.20625,0 0,-0.4109374 0.2796875,-0.16875 0,0.5796874 0.2828124,0 0,0.21875 -0.2828124,0 0,0.97031236 c -6e-7,0.0802087 0.00495,0.13177116 0.014844,0.15468748 0.0099,0.022917 0.026041,0.0411461 0.048438,0.0546875 0.022395,0.0135419 0.054426,0.0203127 0.096094,0.0203125 0.031249,2.4e-7 0.072395,-0.003646 0.1234374,-0.0109375 z"
     style="font-size:3.19999957px;font-style:oblique;font-variant:normal;writing-mode:lr-tb;fill:#000000;fill-opacity:1;fill-rule:nonzero;stroke:none;font-family:DejaVu Sans;-inkscape-font-specification:DejaVuSans-Oblique"
     id="path3060" /><path
     d="m 5.4540995,-1.9671872 0,-0.3234375 0.28125,0 0,0.3234375 z m 0,1.9671872 0,-1.6593748 0.28125,0 0,1.6593748 z"
     style="font-size:3.19999957px;font-style:oblique;font-variant:normal;writing-mode:lr-tb;fill:#000000;fill-opacity:1;fill-rule:nonzero;stroke:none;font-family:DejaVu Sans;-inkscape-font-specification:DejaVuSans-Oblique"
     id="path3062" /><path
     d="m 6.2322244,0 0,-1.4406248 -0.2484374,0 0,-0.21875 0.2484374,0 0,-0.1765625 c -2e-7,-0.1114563 0.0099,-0.1942687 0.029688,-0.2484374 0.027083,-0.072914 0.074739,-0.132029 0.1429688,-0.1773437 0.068229,-0.04531 0.1638014,-0.067967 0.2867187,-0.067969 0.079166,2.3e-6 0.1666657,0.00938 0.2624999,0.028125 l -0.042187,0.2453125 c -0.058334,-0.010415 -0.1135424,-0.015623 -0.1656249,-0.015625 -0.085417,2e-6 -0.145834,0.018231 -0.18125,0.054687 -0.035417,0.03646 -0.053126,0.1046894 -0.053125,0.2046874 l 0,0.153125 0.3234375,0 0,0.21875 -0.3234375,0 0,1.4406248 z"
     style="font-size:3.19999957px;font-style:oblique;font-variant:normal;writing-mode:lr-tb;fill:#000000;fill-opacity:1;fill-rule:nonzero;stroke:none;font-family:DejaVu Sans;-inkscape-font-specification:DejaVuSans-Oblique"
     id="path3064" /><path
     d="m 7.0540993,-1.9671872 0,-0.3234375 0.28125,0 0,0.3234375 z m 0,1.9671872 0,-1.6593748 0.28125,0 0,1.6593748 z"
     style="font-size:3.19999957px;font-style:oblique;font-variant:normal;writing-mode:lr-tb;fill:#000000;fill-opacity:1;fill-rule:nonzero;stroke:none;font-family:DejaVu Sans;-inkscape-font-specification:DejaVuSans-Oblique"
     id="path3066" /><path
     d="m 8.9009741,-0.53437493 0.290625,0.0359375 c -0.045835,0.16979197 -0.1307307,0.30156265 -0.2546875,0.39531244 -0.1239595,0.09375 -0.2822927,0.14062495 -0.4749999,0.14062498 -0.242709,-3e-8 -0.4351567,-0.07473953 -0.5773437,-0.22421871 -0.1421876,-0.14947882 -0.2132813,-0.35911399 -0.2132812,-0.62890617 -1e-7,-0.27916551 0.071875,-0.49583191 0.215625,-0.64999991 0.1437495,-0.154165 0.3302076,-0.2312483 0.5593749,-0.23125 0.2218739,1.7e-6 0.4031237,0.075522 0.5437499,0.2265625 0.1406234,0.151043 0.2109359,0.3635427 0.2109375,0.63749991 -1.6e-6,0.0166675 -5.225e-4,0.0416674 -0.00156,0.075 l -1.2374998,0 c 0.010416,0.18229222 0.061979,0.32187539 0.1546874,0.41874995 0.092708,0.0968752 0.2083326,0.14531267 0.346875,0.14531248 0.103124,1.9e-7 0.1911447,-0.0270831 0.2640625,-0.08125 0.072915,-0.0541663 0.1307278,-0.14062457 0.1734374,-0.25937497 z m -0.9234373,-0.45468744 0.9265623,0 C 8.8915978,-1.1286446 8.8561812,-1.2333319 8.7978492,-1.3031248 c -0.089584,-0.1083319 -0.2057302,-0.1624985 -0.3484375,-0.1625 -0.1291674,1.5e-6 -0.237761,0.043231 -0.3257812,0.1296875 -0.088021,0.08646 -0.1367192,0.2020844 -0.1460937,0.34687493 z"
     style="font-size:3.19999957px;font-style:oblique;font-variant:normal;writing-mode:lr-tb;fill:#000000;fill-opacity:1;fill-rule:nonzero;stroke:none;font-family:DejaVu Sans;-inkscape-font-specification:DejaVuSans-Oblique"
     id="path3068" /><path
     d="m 9.4337866,-0.49531243 0.2781249,-0.04375 c 0.015625,0.11145875 0.059114,0.19687532 0.1304688,0.25624997 0.071353,0.0593752 0.1710927,0.0890627 0.2992187,0.0890625 0.129166,1.9e-7 0.224999,-0.0263019 0.2875,-0.0789062 0.0625,-0.0526038 0.09375,-0.11432252 0.09375,-0.18515623 -1e-6,-0.0635411 -0.02761,-0.11354108 -0.08281,-0.14999998 -0.03854,-0.0249994 -0.134376,-0.0567702 -0.2875,-0.0953125 -0.2062501,-0.0520826 -0.3492187,-0.0971346 -0.4289057,-0.13515623 -0.079688,-0.03802 -0.1401044,-0.0906241 -0.18125,-0.15781248 -0.041146,-0.0671864 -0.061719,-0.14140508 -0.061719,-0.22265618 -2e-7,-0.073957 0.016927,-0.1424466 0.050781,-0.2054688 0.033854,-0.063019 0.079948,-0.115363 0.1382812,-0.1570312 0.04375,-0.03229 0.103385,-0.059634 0.1789063,-0.082031 0.07552,-0.022394 0.1565097,-0.033592 0.2429687,-0.033594 0.130207,1.7e-6 0.24453,0.018752 0.342969,0.05625 0.09844,0.037502 0.171092,0.088283 0.217968,0.1523437 0.04687,0.064064 0.07917,0.149741 0.09688,0.2570313 l -0.275,0.0375 c -0.0125,-0.085415 -0.0487,-0.152082 -0.108593,-0.2 -0.0599,-0.047915 -0.144532,-0.071874 -0.253907,-0.071875 -0.1291668,1.5e-6 -0.2213542,0.021356 -0.276562,0.064063 -0.055209,0.04271 -0.082813,0.09271 -0.082813,0.15 -4e-7,0.03646 0.011458,0.069272 0.034375,0.098437 0.022916,0.030209 0.058854,0.055209 0.1078125,0.075 0.028124,0.010418 0.110937,0.034376 0.248437,0.071875 0.198958,0.053126 0.33776,0.0966155 0.416407,0.13046877 0.07864,0.033855 0.140363,0.0830737 0.185156,0.14765623 0.04479,0.064584 0.06719,0.14479223 0.06719,0.24062497 -1e-6,0.0937504 -0.02735,0.18203153 -0.08203,0.26484371 -0.05469,0.0828126 -0.133595,0.14687506 -0.236719,0.19218747 -0.103126,0.04531248 -0.219792,0.06796871 -0.35,0.06796874 -0.2156251,-3e-8 -0.3799478,-0.04479165 -0.4929682,-0.13437498 -0.113021,-0.08958313 -0.1851564,-0.22239548 -0.2164062,-0.39843744 z"
     style="font-size:3.19999957px;font-style:oblique;font-variant:normal;writing-mode:lr-tb;fill:#000000;fill-opacity:1;fill-rule:nonzero;stroke:none;font-family:DejaVu Sans;-inkscape-font-specification:DejaVuSans-Oblique"
     id="path3070" /></g>
<g
   transform="translate(97.6,108.3)"
   style=""
   id="text8274" />
</g><path
   inkscape:connector-curvature="0"
   id="path8282"
   style="fill:none;stroke:#000000;stroke-width:1.90356958;stroke-linecap:butt;stroke-linejoin:miter;stroke-miterlimit:4;stroke-opacity:1;stroke-dasharray:none"
   d="m 70.134046,76.689285 -51.403199,0.0187" /><path
   inkscape:connector-curvature="0"
   id="path8284"
   style="fill:#ffffff;fill-opacity:1;fill-rule:nonzero;stroke:none"
   d="m 68.624686,85.886085 16.63176,-9.6936 -8.364,-4.78032 -8.35224,-4.77384 0.0461,9.61872 0.0384,9.62904 z" /><path
   inkscape:connector-curvature="0"
   id="path8286"
   style="fill:none;stroke:#000000;stroke-width:1.92000008;stroke-linecap:butt;stroke-linejoin:miter;stroke-miterlimit:4;stroke-opacity:1;stroke-dasharray:none"
   d="m 68.625646,85.885125 16.6284,-9.69192 -8.36064,-4.782 -8.35416,-4.77192 0.047,9.61968 0.0394,9.62616 z" /><path
   inkscape:connector-curvature="0"
   id="path8288"
   style="fill:#ffffff;fill-opacity:1;fill-rule:nonzero;stroke:none"
   d="m 32.943407,66.976725 -8.32488,4.82808 -8.33352,4.81968 8.34288,4.80936 8.34456,4.8 -0.0197,-9.62904 -0.009,-9.62808 z" /><path
   inkscape:connector-curvature="0"
   id="path8290"
   style="fill:none;stroke:#000000;stroke-width:1.92000008;stroke-linecap:butt;stroke-linejoin:miter;stroke-miterlimit:4;stroke-opacity:1;stroke-dasharray:none"
   d="m 32.944367,66.976725 -8.3268,4.82904 -8.33448,4.81872 8.34384,4.80768 8.3436,4.8 -0.0168,-9.6264 -0.009,-9.62904 z" /><g
   id="g8292"
   transform="matrix(2.4,0,0,2.4,-159.56595,-128.1123)"><g
   transform="matrix(0.999999,0.00130287,0.00130287,-0.999999,82.3969,81.548)"
   style=""
   id="text8294"><path
     d="m 0.21093747,0 0,-1.6593748 0.25312497,0 0,0.2359375 c 0.1218744,-0.18229 0.29791586,-0.2734358 0.52812493,-0.2734375 0.0999989,1.7e-6 0.19192583,0.017971 0.27578123,0.053906 0.083853,0.035939 0.1466131,0.083074 0.1882812,0.1414062 0.041665,0.058335 0.070832,0.1276055 0.0875,0.2078125 0.010415,0.052085 0.015623,0.1432303 0.015625,0.2734374 l 0,1.0203124 -0.28125,0 0,-1.0093749 c -1.2e-6,-0.1145822 -0.010939,-0.2002591 -0.032813,-0.2570312 -0.021876,-0.056769 -0.060678,-0.1020819 -0.1164062,-0.1359375 -0.05573,-0.033853 -0.1210947,-0.05078 -0.19609373,-0.050781 -0.11979246,1.4e-6 -0.22317776,0.038022 -0.3101562,0.1140625 -0.0869797,0.076043 -0.13046923,0.2203136 -0.13046874,0.43281242 l 0,0.90624988 z"
     style="font-size:3.19999957px;font-style:oblique;font-variant:normal;writing-mode:lr-tb;fill:#000000;fill-opacity:1;fill-rule:nonzero;stroke:none;font-family:DejaVu Sans;-inkscape-font-specification:DejaVuSans-Oblique"
     id="path3074" /><path
     d="m 2.1350498,-0.82968739 c -10e-8,-0.30729051 0.085416,-0.53489441 0.2562499,-0.68281241 0.1427078,-0.122915 0.316666,-0.1843733 0.521875,-0.184375 0.2281238,1.7e-6 0.4145819,0.074741 0.5593749,0.2242187 0.14479,0.1494805 0.2171858,0.3559907 0.2171874,0.61953121 -1.6e-6,0.21354228 -0.032033,0.38151084 -0.096094,0.50390619 -0.064064,0.12239604 -0.157293,0.21744802 -0.2796875,0.28515621 C 3.1915589,0.00364583 3.0579653,0.03749996 2.9131747,0.03749999 2.6808824,0.03749996 2.4931222,-0.03697912 2.3498935,-0.18593748 2.2066642,-0.33489545 2.1350497,-0.54947854 2.1350498,-0.82968739 z m 0.2890624,0 c -4e-7,0.21250059 0.046354,0.37161499 0.1390625,0.47734369 0.092708,0.1057294 0.2093742,0.15859392 0.35,0.15859373 0.1395822,1.9e-7 0.2557279,-0.0531247 0.3484374,-0.15937498 0.092707,-0.10624953 0.1390611,-0.26822851 0.1390625,-0.48593744 -1.4e-6,-0.20520721 -0.046616,-0.36067581 -0.1398437,-0.46640621 -0.09323,-0.1057277 -0.2091156,-0.1585922 -0.3476562,-0.1585937 -0.1406258,1.5e-6 -0.2572923,0.052606 -0.35,0.1578125 -0.092709,0.1052095 -0.1390629,0.2640635 -0.1390625,0.47656241 z"
     style="font-size:3.19999957px;font-style:oblique;font-variant:normal;writing-mode:lr-tb;fill:#000000;fill-opacity:1;fill-rule:nonzero;stroke:none;font-family:DejaVu Sans;-inkscape-font-specification:DejaVuSans-Oblique"
     id="path3076" /><path
     d="m 4.8121992,-0.25156247 0.040625,0.24843747 c -0.079167,0.01666665 -0.1500007,0.02499998 -0.2125,0.025 -0.1020839,-2e-8 -0.1812504,-0.01614584 -0.2374999,-0.0484375 -0.05625,-0.0322916 -0.095834,-0.07473947 -0.11875,-0.12734373 -0.022917,-0.0526039 -0.034375,-0.16328091 -0.034375,-0.3320312 l 0,-0.95468737 -0.20625,0 0,-0.21875 0.20625,0 0,-0.4109374 0.2796874,-0.16875 0,0.5796874 0.2828125,0 0,0.21875 -0.2828125,0 0,0.97031236 c -5e-7,0.0802087 0.00495,0.13177116 0.014844,0.15468748 0.0099,0.022917 0.026041,0.0411461 0.048437,0.0546875 0.022395,0.0135419 0.054426,0.0203127 0.096094,0.0203125 0.031249,2.4e-7 0.072395,-0.003646 0.1234375,-0.0109375 z"
     style="font-size:3.19999957px;font-style:oblique;font-variant:normal;writing-mode:lr-tb;fill:#000000;fill-opacity:1;fill-rule:nonzero;stroke:none;font-family:DejaVu Sans;-inkscape-font-specification:DejaVuSans-Oblique"
     id="path3078" /><path
     d="m 5.4540991,-1.9671872 0,-0.3234375 0.2812499,0 0,0.3234375 z m 0,1.9671872 0,-1.6593748 0.2812499,0 0,1.6593748 z"
     style="font-size:3.19999957px;font-style:oblique;font-variant:normal;writing-mode:lr-tb;fill:#000000;fill-opacity:1;fill-rule:nonzero;stroke:none;font-family:DejaVu Sans;-inkscape-font-specification:DejaVuSans-Oblique"
     id="path3080" /><path
     d="m 6.232224,0 0,-1.4406248 -0.2484375,0 0,-0.21875 0.2484375,0 0,-0.1765625 c -3e-7,-0.1114563 0.0099,-0.1942687 0.029687,-0.2484374 0.027083,-0.072914 0.074739,-0.132029 0.1429687,-0.1773437 0.068229,-0.04531 0.1638014,-0.067967 0.2867187,-0.067969 0.079166,2.3e-6 0.1666657,0.00938 0.2625,0.028125 l -0.042187,0.2453125 c -0.058334,-0.010415 -0.1135425,-0.015623 -0.165625,-0.015625 -0.085417,2e-6 -0.145834,0.018231 -0.18125,0.054687 -0.035417,0.03646 -0.053126,0.1046894 -0.053125,0.2046874 l 0,0.153125 0.3234375,0 0,0.21875 -0.3234375,0 0,1.4406248 z"
     style="font-size:3.19999957px;font-style:oblique;font-variant:normal;writing-mode:lr-tb;fill:#000000;fill-opacity:1;fill-rule:nonzero;stroke:none;font-family:DejaVu Sans;-inkscape-font-specification:DejaVuSans-Oblique"
     id="path3082" /><path
     d="m 7.0540988,-1.9671872 0,-0.3234375 0.28125,0 0,0.3234375 z m 0,1.9671872 0,-1.6593748 0.28125,0 0,1.6593748 z"
     style="font-size:3.19999957px;font-style:oblique;font-variant:normal;writing-mode:lr-tb;fill:#000000;fill-opacity:1;fill-rule:nonzero;stroke:none;font-family:DejaVu Sans;-inkscape-font-specification:DejaVuSans-Oblique"
     id="path3084" /><path
     d="m 8.9009737,-0.53437493 0.2906249,0.0359375 c -0.045835,0.16979197 -0.1307306,0.30156265 -0.2546874,0.39531244 -0.1239596,0.09375 -0.2822928,0.14062495 -0.475,0.14062498 -0.2427089,-3e-8 -0.4351566,-0.07473953 -0.5773436,-0.22421871 -0.1421877,-0.14947882 -0.2132814,-0.35911399 -0.2132813,-0.62890617 -1e-7,-0.27916551 0.071875,-0.49583191 0.215625,-0.64999991 0.1437495,-0.154165 0.3302076,-0.2312483 0.5593749,-0.23125 0.2218739,1.7e-6 0.4031237,0.075522 0.54375,0.2265625 0.1406234,0.151043 0.2109358,0.3635427 0.2109374,0.63749991 -1.6e-6,0.0166675 -5.225e-4,0.0416674 -0.00156,0.075 l -1.2374998,0 c 0.010416,0.18229222 0.061979,0.32187539 0.1546875,0.41874995 0.092708,0.0968752 0.2083325,0.14531267 0.3468749,0.14531248 0.103124,1.9e-7 0.1911447,-0.0270831 0.2640625,-0.08125 0.072915,-0.0541663 0.1307278,-0.14062457 0.1734375,-0.25937497 z m -0.9234374,-0.45468744 0.9265624,0 c -0.012501,-0.13958223 -0.047918,-0.24426953 -0.10625,-0.31406243 -0.089584,-0.1083319 -0.2057302,-0.1624985 -0.3484375,-0.1625 -0.1291674,1.5e-6 -0.237761,0.043231 -0.3257812,0.1296875 -0.088021,0.08646 -0.1367191,0.2020844 -0.1460937,0.34687493 z"
     style="font-size:3.19999957px;font-style:oblique;font-variant:normal;writing-mode:lr-tb;fill:#000000;fill-opacity:1;fill-rule:nonzero;stroke:none;font-family:DejaVu Sans;-inkscape-font-specification:DejaVuSans-Oblique"
     id="path3086" /><path
     d="m 9.4337861,-0.49531243 0.278125,-0.04375 c 0.015625,0.11145875 0.059114,0.19687532 0.1304687,0.25624997 0.071354,0.0593752 0.1710932,0.0890627 0.2992182,0.0890625 0.129166,1.9e-7 0.224999,-0.0263019 0.2875,-0.0789062 0.0625,-0.0526038 0.09375,-0.11432252 0.09375,-0.18515623 -10e-7,-0.0635411 -0.0276,-0.11354108 -0.08281,-0.14999998 -0.03854,-0.0249994 -0.134376,-0.0567702 -0.2875,-0.0953125 -0.2062506,-0.0520826 -0.3492192,-0.0971346 -0.4289062,-0.13515623 -0.079688,-0.03802 -0.1401044,-0.0906241 -0.18125,-0.15781248 -0.041146,-0.0671864 -0.061719,-0.14140508 -0.061719,-0.22265618 -2e-7,-0.073957 0.016927,-0.1424466 0.050781,-0.2054688 0.033854,-0.063019 0.079948,-0.115363 0.1382813,-0.1570312 0.04375,-0.03229 0.1033849,-0.059634 0.1789062,-0.082031 0.07552,-0.022394 0.1565102,-0.033592 0.2429692,-0.033594 0.130207,1.7e-6 0.24453,0.018752 0.342968,0.05625 0.09844,0.037502 0.171093,0.088283 0.217969,0.1523437 0.04687,0.064064 0.07916,0.149741 0.09688,0.2570313 l -0.275,0.0375 c -0.0125,-0.085415 -0.0487,-0.152082 -0.108594,-0.2 -0.0599,-0.047915 -0.144532,-0.071874 -0.253906,-0.071875 -0.1291673,1.5e-6 -0.2213547,0.021356 -0.2765625,0.064063 -0.055209,0.04271 -0.082813,0.09271 -0.082812,0.15 -5e-7,0.03646 0.011458,0.069272 0.034375,0.098437 0.022916,0.030209 0.058854,0.055209 0.1078125,0.075 0.028124,0.010418 0.1109365,0.034376 0.2484375,0.071875 0.198957,0.053126 0.337759,0.0966155 0.416406,0.13046877 0.07864,0.033855 0.140363,0.0830737 0.185156,0.14765623 0.04479,0.064584 0.06719,0.14479223 0.06719,0.24062497 -2e-6,0.0937504 -0.02735,0.18203153 -0.08203,0.26484371 -0.05469,0.0828126 -0.133595,0.14687506 -0.236719,0.19218747 -0.103126,0.04531248 -0.219793,0.06796871 -0.35,0.06796874 -0.2156256,-3e-8 -0.3799483,-0.04479165 -0.4929687,-0.13437498 C 9.5371713,-0.18645812 9.465036,-0.31927047 9.4337861,-0.49531243 z"
     style="font-size:3.19999957px;font-style:oblique;font-variant:normal;writing-mode:lr-tb;fill:#000000;fill-opacity:1;fill-rule:nonzero;stroke:none;font-family:DejaVu Sans;-inkscape-font-specification:DejaVuSans-Oblique"
     id="path3088" /></g>
<g
   transform="translate(88.4,81.5)"
   style=""
   id="text8298"><path
     d="m 0,0 0,-0.0625 0.05,0 0,0.0625 z m 0.0015625,-0.0015625 0.046875,0 0,-0.059375 -0.046875,0 z"
     style="font-size:0.1px;font-variant:normal;font-weight:normal;writing-mode:lr-tb;fill:#000000;fill-opacity:1;fill-rule:nonzero;stroke:none;font-family:Arial Black;-inkscape-font-specification:Arial"
     id="path3091" /></g>
</g><path
   inkscape:connector-curvature="0"
   id="path8306"
   style="fill:none;stroke:#000000;stroke-width:1.90356958;stroke-linecap:butt;stroke-linejoin:miter;stroke-miterlimit:4;stroke-opacity:1;stroke-dasharray:none"
   d="M 89.583388,21.163014 50.741789,-12.495306" /><path
   inkscape:connector-curvature="0"
   id="path8308"
   style="fill:#ffffff;fill-opacity:1;fill-rule:nonzero;stroke:none"
   d="m 82.421788,27.124374 9.44928,1.78032 9.460322,1.79064 -3.180003,-9.08424 -3.187679,-9.08352 -6.27096,7.3032 -6.27096,7.2936 z" /><path
   inkscape:connector-curvature="0"
   id="path8310"
   style="fill:none;stroke:#000000;stroke-width:1.92000008;stroke-linecap:butt;stroke-linejoin:miter;stroke-miterlimit:4;stroke-opacity:1;stroke-dasharray:none"
   d="m 82.421068,27.123654 9.45168,1.78104 9.458642,1.7916 -3.180003,-9.08328 -3.185759,-9.08544 -6.27192,7.30224 -6.27264,7.29384 z" /><path
   inkscape:connector-curvature="0"
   id="path8312"
   style="fill:#ffffff;fill-opacity:1;fill-rule:nonzero;stroke:none"
   d="m 67.851388,-10.534026 -9.449279,-1.81968 -9.46032,-1.80936 3.16032,9.0938395 3.14928,9.0936 6.3,-7.28424 6.299999,-7.2741595 z" /><path
   inkscape:connector-curvature="0"
   id="path8314"
   style="fill:none;stroke:#000000;stroke-width:1.91999757;stroke-linecap:butt;stroke-linejoin:round;stroke-miterlimit:4;stroke-opacity:1;stroke-dasharray:none"
   d="m 67.853068,-10.534026 -9.450959,-1.81872 -9.4584,-1.80936 3.15936,9.0928795 3.14736,9.0936 6.30264,-7.28424 6.299999,-7.2741595 z" /><g
   id="g8316"
   transform="matrix(2.4,0,0,2.4,-144.01341,-143.46145)"
   style="stroke-linejoin:round"><g
   transform="matrix(0.754578,0.656211,0.656211,-0.754578,89.2531,57.2426)"
   style=""
   id="text8318"><path
     d="m 0.21093758,0 0,-1.6593756 0.2531251,0 0,0.2359375 c 0.12187446,-0.1822901 0.29791602,-0.2734359 0.5281252,-0.2734376 0.0999989,1.7e-6 0.19192602,0.017971 0.27578132,0.053906 0.083853,0.035939 0.1466133,0.083074 0.1882814,0.1414063 0.041665,0.058335 0.070832,0.1276056 0.0875,0.2078126 0.010415,0.052085 0.015623,0.1432304 0.015625,0.2734376 l 0,1.0203129 -0.2812501,0 0,-1.0093754 c -1.3e-6,-0.1145822 -0.010939,-0.2002593 -0.032813,-0.2570313 -0.021876,-0.05677 -0.060678,-0.102082 -0.1164063,-0.1359376 -0.05573,-0.033853 -0.1210948,-0.05078 -0.19609384,-0.050781 -0.11979252,1.5e-6 -0.22317788,0.038022 -0.31015637,0.1140626 -0.0869797,0.076043 -0.13046929,0.2203137 -0.1304688,0.43281265 l 0,0.90625035 z"
     style="font-size:3.20000124px;font-style:oblique;font-variant:normal;writing-mode:lr-tb;fill:#000000;fill-opacity:1;fill-rule:nonzero;stroke:none;font-family:DejaVu Sans;-inkscape-font-specification:DejaVuSans-Oblique"
     id="path3036" /><path
     d="m 2.135051,-0.82968782 c -10e-8,-0.30729068 0.085417,-0.53489468 0.2562501,-0.68281278 0.1427079,-0.1229151 0.3166661,-0.1843734 0.5218752,-0.1843751 0.228124,1.7e-6 0.4145822,0.074741 0.5593752,0.2242189 0.1447902,0.1494805 0.2171859,0.3559908 0.2171876,0.61953147 -1.7e-6,0.21354239 -0.032033,0.38151104 -0.096094,0.50390644 -0.064064,0.12239611 -0.1572931,0.21744814 -0.2796876,0.28515637 C 3.1915607,0.00364583 3.057967,0.03749998 2.9131763,0.03750001 2.6808839,0.03749998 2.4931236,-0.03697914 2.3498948,-0.18593757 2.2066654,-0.33489563 2.1350509,-0.54947883 2.135051,-0.82968782 z m 0.2890626,0 c -4e-7,0.2125007 0.046354,0.37161518 0.1390626,0.47734393 0.092708,0.10572946 0.2093743,0.15859401 0.3500001,0.15859381 0.1395824,2e-7 0.2557281,-0.0531248 0.3484376,-0.15937506 0.092707,-0.10624958 0.1390612,-0.26822865 0.1390626,-0.48593769 -1.4e-6,-0.20520737 -0.046616,-0.36067597 -0.1398438,-0.46640647 -0.09323,-0.1057278 -0.2091157,-0.1585923 -0.3476564,-0.1585938 -0.1406258,1.5e-6 -0.2572924,0.052606 -0.3500001,0.1578126 -0.092709,0.1052096 -0.139063,0.2640636 -0.1390626,0.47656268 z"
     style="font-size:3.20000124px;font-style:oblique;font-variant:normal;writing-mode:lr-tb;fill:#000000;fill-opacity:1;fill-rule:nonzero;stroke:none;font-family:DejaVu Sans;-inkscape-font-specification:DejaVuSans-Oblique"
     id="path3038" /><path
     d="m 4.812202,-0.2515626 0.040625,0.2484376 c -0.079167,0.01666666 -0.1500007,0.02499999 -0.2125001,0.02500001 -0.1020839,-2e-8 -0.1812505,-0.01614585 -0.2375,-0.04843752 -0.05625,-0.03229162 -0.095834,-0.07473951 -0.1187501,-0.1273438 -0.022917,-0.052604 -0.034375,-0.163281 -0.034375,-0.33203138 l 0,-0.95468791 -0.2062501,0 0,-0.21875 0.2062501,0 0,-0.4109377 0.2796876,-0.1687501 0,0.5796878 0.2828126,0 0,0.21875 -0.2828126,0 0,0.97031292 c -5e-7,0.0802087 0.00495,0.13177122 0.014844,0.15468756 0.0099,0.022917 0.026041,0.0411461 0.048438,0.0546875 0.022395,0.0135419 0.054426,0.0203127 0.096094,0.0203125 0.031249,2.4e-7 0.072395,-0.003646 0.1234375,-0.0109375 z"
     style="font-size:3.20000124px;font-style:oblique;font-variant:normal;writing-mode:lr-tb;fill:#000000;fill-opacity:1;fill-rule:nonzero;stroke:none;font-family:DejaVu Sans;-inkscape-font-specification:DejaVuSans-Oblique"
     id="path3040" /><path
     d="m 5.4541025,-1.9671883 0,-0.3234376 0.2812501,0 0,0.3234376 z m 0,1.9671883 0,-1.6593756 0.2812501,0 0,1.6593756 z"
     style="font-size:3.20000124px;font-style:oblique;font-variant:normal;writing-mode:lr-tb;fill:#000000;fill-opacity:1;fill-rule:nonzero;stroke:none;font-family:DejaVu Sans;-inkscape-font-specification:DejaVuSans-Oblique"
     id="path3042" /><path
     d="m 6.2322278,0 0,-1.4406256 -0.2484376,0 0,-0.21875 0.2484376,0 0,-0.1765626 c -3e-7,-0.1114564 0.0099,-0.1942689 0.029687,-0.2484376 0.027083,-0.072914 0.074739,-0.1320291 0.1429688,-0.1773438 0.068229,-0.04531 0.1638016,-0.067966 0.2867189,-0.067969 0.079166,2.3e-6 0.1666658,0.00938 0.2625001,0.028125 l -0.042187,0.2453126 c -0.058334,-0.010415 -0.1135426,-0.015623 -0.1656251,-0.015625 -0.085417,2.1e-6 -0.145834,0.018231 -0.1812501,0.054687 -0.035417,0.03646 -0.053126,0.1046895 -0.053125,0.2046876 l 0,0.1531251 0.3234376,0 0,0.21875 -0.3234376,0 0,1.4406256 z"
     style="font-size:3.20000124px;font-style:oblique;font-variant:normal;writing-mode:lr-tb;fill:#000000;fill-opacity:1;fill-rule:nonzero;stroke:none;font-family:DejaVu Sans;-inkscape-font-specification:DejaVuSans-Oblique"
     id="path3044" /><path
     d="m 7.0541031,-1.9671883 0,-0.3234376 0.2812501,0 0,0.3234376 z m 0,1.9671883 0,-1.6593756 0.2812501,0 0,1.6593756 z"
     style="font-size:3.20000124px;font-style:oblique;font-variant:normal;writing-mode:lr-tb;fill:#000000;fill-opacity:1;fill-rule:nonzero;stroke:none;font-family:DejaVu Sans;-inkscape-font-specification:DejaVuSans-Oblique"
     id="path3046" /><path
     d="m 8.9009789,-0.53437521 0.2906251,0.0359375 C 9.1457691,-0.32864563 9.0608733,-0.19687488 8.9369164,-0.10312504 8.8129568,-0.00937499 8.6546235,0.03749998 8.4619162,0.03750001 8.2192071,0.03749998 8.0267593,-0.03723956 7.8845723,-0.18671882 7.7423845,-0.33619771 7.6712908,-0.545833 7.6712909,-0.81562532 7.6712908,-1.094791 7.7431658,-1.3114575 7.886916,-1.4656256 8.0306656,-1.6197907 8.2171238,-1.696874 8.4462912,-1.6968757 c 0.221874,1.7e-6 0.4031239,0.075523 0.5437502,0.2265626 0.1406235,0.1510431 0.210936,0.3635429 0.2109376,0.63750028 -1.6e-6,0.0166675 -5.225e-4,0.0416675 -0.00156,0.075 l -1.2375005,0 c 0.010416,0.18229231 0.061979,0.32187556 0.1546876,0.41875016 0.092708,0.0968753 0.2083326,0.14531275 0.3468751,0.14531255 0.1031241,2e-7 0.1911448,-0.0270831 0.2640626,-0.08125 0.072915,-0.0541664 0.1307279,-0.14062464 0.1734376,-0.2593751 z m -0.9234379,-0.45468767 0.9265629,0 C 8.8916026,-1.1286451 8.8561859,-1.2333326 8.7978539,-1.3031255 8.7082693,-1.4114575 8.5921236,-1.4656241 8.4494162,-1.4656256 c -0.1291675,1.5e-6 -0.2377611,0.043231 -0.3257814,0.1296876 -0.088021,0.08646 -0.1367192,0.2020845 -0.1460938,0.34687512 z"
     style="font-size:3.20000124px;font-style:oblique;font-variant:normal;writing-mode:lr-tb;fill:#000000;fill-opacity:1;fill-rule:nonzero;stroke:none;font-family:DejaVu Sans;-inkscape-font-specification:DejaVuSans-Oblique"
     id="path3048" /><path
     d="m 9.4337914,-0.49531269 0.2781251,-0.04375 c 0.015625,0.11145881 0.059114,0.19687542 0.1304688,0.2562501 0.071354,0.0593753 0.1710927,0.0890627 0.2992187,0.0890625 0.129166,2e-7 0.224999,-0.0263019 0.2875,-0.0789063 0.0625,-0.0526039 0.09375,-0.11432257 0.09375,-0.18515632 -1e-6,-0.0635412 -0.02761,-0.11354114 -0.08281,-0.15000006 -0.03854,-0.0249994 -0.134376,-0.0567702 -0.2875,-0.0953125 -0.206251,-0.0520826 -0.3492197,-0.0971347 -0.4289067,-0.1351563 -0.079688,-0.03802 -0.1401045,-0.0906241 -0.1812501,-0.15781257 -0.041146,-0.0671865 -0.061719,-0.14140516 -0.061719,-0.22265636 -1e-7,-0.073957 0.016927,-0.1424466 0.050781,-0.2054688 0.033854,-0.063019 0.079948,-0.1153631 0.1382813,-0.1570313 0.04375,-0.03229 0.103385,-0.059634 0.1789063,-0.082031 0.07552,-0.022394 0.1565097,-0.033592 0.2429687,-0.033594 0.130208,1.7e-6 0.24453,0.018752 0.342969,0.05625 0.09844,0.037502 0.171093,0.088283 0.217969,0.1523438 0.04687,0.064064 0.07916,0.149741 0.09687,0.2570313 l -0.275,0.0375 c -0.0125,-0.085415 -0.0487,-0.152082 -0.108594,-0.2 -0.0599,-0.047915 -0.144532,-0.071874 -0.253906,-0.071875 -0.1291677,1.5e-6 -0.2213552,0.021356 -0.276563,0.064063 -0.055209,0.04271 -0.082813,0.09271 -0.082813,0.15 -4e-7,0.03646 0.011458,0.069272 0.034375,0.098438 0.022916,0.030209 0.058854,0.055209 0.1078126,0.075 0.028124,0.010418 0.1109369,0.034376 0.2484379,0.071875 0.198957,0.053126 0.337759,0.0966155 0.416406,0.13046881 0.07864,0.033855 0.140363,0.0830737 0.185156,0.14765631 0.04479,0.064584 0.06719,0.1447923 0.06719,0.24062509 -2e-6,0.0937504 -0.02734,0.18203163 -0.08203,0.26484385 -0.05469,0.0828127 -0.133595,0.14687514 -0.236719,0.19218758 -0.103126,0.0453125 -0.219793,0.06796874 -0.35,0.06796877 -0.215626,-3e-8 -0.3799488,-0.04479167 -0.4929693,-0.13437505 -0.1130211,-0.08958318 -0.1851564,-0.2223956 -0.2164063,-0.39843765 z"
     style="font-size:3.20000124px;font-style:oblique;font-variant:normal;writing-mode:lr-tb;fill:#000000;fill-opacity:1;fill-rule:nonzero;stroke:none;font-family:DejaVu Sans;-inkscape-font-specification:DejaVuSans-Oblique"
     id="path3050" /></g>
<g
   transform="translate(93.8,61.2)"
   style=""
   id="text8322"><path
     d="m 0,0 0,-0.0625 0.05,0 0,0.0625 z m 0.0015625,-0.0015625 0.046875,0 0,-0.059375 -0.046875,0 z"
     style="font-size:0.1px;font-variant:normal;font-weight:normal;writing-mode:lr-tb;fill:#000000;fill-opacity:1;fill-rule:nonzero;stroke:none;font-family:Arial Black;-inkscape-font-specification:Arial"
     id="path3053" /></g>
</g><g
   transform="scale(1,-1)"
   style="font-size:96px;font-style:normal;font-weight:normal;line-height:125%;letter-spacing:0px;word-spacing:0px;fill:#000000;fill-opacity:1;stroke:none;font-family:Sans"
   id="text3838-3"><path
     d="m -7.6815378,37.313445 1.5210938,0.197656 c -0.1661543,1.04844 -0.5915445,1.869142 -1.2761719,2.46211 -0.6846421,0.592969 -1.5253965,0.889453 -2.5222657,0.889453 -1.2489624,0 -2.2529974,-0.408203 -3.0121094,-1.224609 -0.759116,-0.816405 -1.138673,-1.986586 -1.138672,-3.510547 -1e-6,-0.985411 0.16328,-1.84765 0.489844,-2.586719 0.326561,-0.739055 0.823566,-1.293351 1.491015,-1.662891 0.667445,-0.369522 1.393616,-0.554287 2.1785161,-0.554297 0.9911401,10e-6 1.8018163,0.25066 2.4320313,0.751953 0.6302005,0.501311 1.0341063,1.213159 1.2117188,2.135547 l -1.5039063,0.232032 c -0.143236,-0.613014 -0.3967514,-1.074212 -0.7605469,-1.383594 -0.3638079,-0.309367 -0.803521,-0.464055 -1.3191406,-0.464063 -0.7791704,8e-6 -1.4122434,0.279305 -1.8992184,0.837891 -0.486982,0.5586 -0.730471,1.442324 -0.730469,2.651172 -2e-6,1.226045 0.234893,2.11693 0.704687,2.672656 0.469789,0.555731 1.082809,0.833595 1.8390629,0.833594 0.6072862,10e-7 1.114317,-0.186197 1.5210938,-0.558594 0.4067641,-0.372394 0.6645763,-0.94531 0.7734375,-1.71875 z"
     style="font-size:17.60000038px;text-align:center;text-anchor:middle"
     id="path3136" /><path
     d="m -5.4127878,36.093133 c -5e-7,-1.690098 0.4697907,-2.94192 1.4093751,-3.755469 0.784893,-0.676033 1.7416629,-1.014053 2.8703125,-1.014063 1.25468144,10e-6 2.2802013,0.411077 3.0765626,1.233203 0.7963454,0.822143 1.1945221,1.957949 1.1945313,3.407422 -9.2e-6,1.174483 -0.1761809,2.09831 -0.5285157,2.771485 -0.352352,0.673178 -0.8651119,1.195964 -1.5382812,1.568359 -0.67318354,0.372396 -1.40794845,0.558594 -2.204297,0.558594 -1.2776078,0 -2.310289,-0.409635 -3.0980469,-1.228906 -0.7877614,-0.819269 -1.1816412,-1.999476 -1.1816407,-3.540625 z m 1.5898438,0 c -2.2e-6,1.168753 0.2549455,2.043882 0.7648438,2.62539 0.5098924,0.581512 1.1515584,0.872267 1.925,0.872266 0.76770275,10e-7 1.4065042,-0.292186 1.91640632,-0.876563 C 1.2931947,38.129854 1.5481423,37.238969 1.5481499,36.04157 1.5481423,34.91293 1.2917624,34.057853 0.77900924,33.476336 0.26624255,32.894833 -0.37112662,32.604078 -1.1331002,32.60407 c -0.7734416,8e-6 -1.4151076,0.289331 -1.925,0.867969 -0.5098983,0.578652 -0.764846,1.452349 -0.7648438,2.621094 z"
     style="font-size:17.60000038px;text-align:center;text-anchor:middle"
     id="path3138" /><path
     d="m 4.9598675,40.656414 0,-9.126563 1.3835938,0 0,1.280469 c 0.2864555,-0.446867 0.6674447,-0.806371 1.1429688,-1.078516 0.4755167,-0.272126 1.0169224,-0.408193 1.6242188,-0.408203 0.6760357,10e-6 1.2303321,0.140374 1.6628911,0.421094 0.432544,0.280738 0.737622,0.673185 0.915234,1.177344 0.721866,-1.065616 1.661449,-1.598428 2.81875,-1.598438 0.905197,10e-6 1.60129,0.25066 2.088281,0.751953 0.486966,0.501311 0.730456,1.273315 0.730469,2.316016 l 0,6.264844 -1.538281,0 0,-5.749219 c -1.2e-5,-0.618743 -0.05014,-1.064186 -0.150391,-1.336328 -0.100272,-0.272128 -0.282173,-0.491268 -0.545703,-0.657422 -0.263553,-0.166138 -0.572927,-0.249211 -0.928125,-0.249219 -0.641676,8e-6 -1.174488,0.21342 -1.598438,0.640235 -0.423966,0.42683 -0.635945,1.110032 -0.635937,2.049609 l 0,5.302344 -1.546875,0 0,-5.929688 c -7e-6,-0.687493 -0.126048,-1.203117 -0.378125,-1.546875 -0.2520894,-0.343742 -0.664589,-0.515617 -1.2375001,-0.515625 -0.4354212,8e-6 -0.8378948,0.114592 -1.2074219,0.34375 -0.3695347,0.229174 -0.637373,0.56433 -0.8035157,1.005469 -0.1661486,0.441152 -0.2492214,1.077089 -0.2492187,1.907813 l 0,4.735156 z"
     style="font-size:17.60000038px;text-align:center;text-anchor:middle"
     id="path3140" /><path
     d="m 19.637995,44.15407 0,-12.624219 1.409375,0 0,1.185938 c 0.332289,-0.464054 0.707549,-0.812101 1.125781,-1.044141 0.418225,-0.232022 0.925256,-0.348037 1.521094,-0.348047 0.779161,10e-6 1.46666,0.20053 2.0625,0.601563 0.595825,0.40105 1.045565,0.966805 1.349219,1.697266 0.303637,0.730475 0.455459,1.531125 0.455469,2.401953 -10e-6,0.933858 -0.167588,1.774612 -0.502735,2.522265 -0.335164,0.747658 -0.822143,1.320574 -1.460937,1.71875 -0.638809,0.398177 -1.310553,0.597266 -2.015235,0.597266 -0.515629,0 -0.978259,-0.108854 -1.38789,-0.326562 -0.409639,-0.217708 -0.746227,-0.492708 -1.009766,-0.825 l 0,4.442968 z m 1.400781,-8.009375 c -2e-6,1.174483 0.237758,2.042451 0.713281,2.603906 0.475517,0.56146 1.051298,0.842189 1.727344,0.842188 0.687494,10e-7 1.276166,-0.290754 1.766016,-0.872266 0.489836,-0.581508 0.734758,-1.482418 0.734765,-2.702734 -7e-6,-1.163015 -0.2392,-2.033848 -0.717578,-2.6125 -0.478391,-0.578638 -1.049875,-0.867961 -1.714453,-0.867969 -0.658858,8e-6 -1.241801,0.307951 -1.748828,0.923828 -0.507034,0.615892 -0.760549,1.511074 -0.760547,2.685547 z"
     style="font-size:17.60000038px;text-align:center;text-anchor:middle"
     id="path3142" /><path
     d="m 28.859089,36.093133 c -1e-6,-1.690098 0.46979,-2.94192 1.409375,-3.755469 0.784893,-0.676033 1.741663,-1.014053 2.870312,-1.014063 1.254682,10e-6 2.280201,0.411077 3.076563,1.233203 0.796345,0.822143 1.194522,1.957949 1.194531,3.407422 -9e-6,1.174483 -0.176181,2.09831 -0.528516,2.771485 -0.352352,0.673178 -0.865112,1.195964 -1.538281,1.568359 -0.673183,0.372396 -1.407948,0.558594 -2.204297,0.558594 -1.277608,0 -2.310289,-0.409635 -3.098047,-1.228906 -0.787761,-0.819269 -1.181641,-1.999476 -1.18164,-3.540625 z m 1.589843,0 c -2e-6,1.168753 0.254946,2.043882 0.764844,2.62539 0.509893,0.581512 1.151559,0.872267 1.925,0.872266 0.767703,10e-7 1.406504,-0.292186 1.916406,-0.876563 0.509889,-0.584372 0.764837,-1.475257 0.764844,-2.672656 -7e-6,-1.12864 -0.256387,-1.983717 -0.76914,-2.565234 -0.512767,-0.581503 -1.150136,-0.872258 -1.91211,-0.872266 -0.773441,8e-6 -1.415107,0.289331 -1.925,0.867969 -0.509898,0.578652 -0.764846,1.452349 -0.764844,2.621094 z"
     style="font-size:17.60000038px;text-align:center;text-anchor:middle"
     id="path3144" /><path
     d="m 39.231745,40.656414 0,-9.126563 1.392187,0 0,1.297657 c 0.67031,-1.002596 1.638538,-1.503897 2.904688,-1.503907 0.549994,10e-6 1.055592,0.09884 1.516797,0.296485 0.46119,0.197665 0.806372,0.456909 1.035547,0.777734 0.229158,0.320841 0.389575,0.701831 0.48125,1.142969 0.05728,0.286465 0.08593,0.787767 0.08594,1.503906 l 0,5.611719 -1.546875,0 0,-5.551563 c -7e-6,-0.630202 -0.06016,-1.101425 -0.180469,-1.413671 -0.120319,-0.312233 -0.33373,-0.561451 -0.640234,-0.747657 -0.306516,-0.18619 -0.666021,-0.279289 -1.078516,-0.279297 -0.658858,8e-6 -1.227477,0.209123 -1.705859,0.627344 -0.478388,0.418236 -0.717581,1.211725 -0.717578,2.380469 l 0,4.984375 z"
     style="font-size:17.60000038px;text-align:center;text-anchor:middle"
     id="path3146" /><path
     d="m 55.276276,37.717351 1.598438,0.197657 c -0.252092,0.933856 -0.719019,1.658595 -1.400782,2.174219 -0.681777,0.515625 -1.55261,0.773437 -2.6125,0.773437 -1.334899,0 -2.393362,-0.411067 -3.17539,-1.233203 -0.782033,-0.822134 -1.173048,-1.975127 -1.173047,-3.458985 -10e-7,-1.53541 0.395311,-2.727076 1.185937,-3.575 0.790623,-0.847907 1.816143,-1.271865 3.076563,-1.271875 1.220306,10e-6 2.21718,0.415374 2.990625,1.246094 0.773429,0.830737 1.160147,1.999485 1.160156,3.50625 -9e-6,0.09167 -0.0029,0.229171 -0.0086,0.4125 l -6.806251,0 c 0.05729,1.002608 0.340883,1.770315 0.850782,2.303125 0.509892,0.532814 1.145829,0.79922 1.907812,0.799219 0.567182,10e-7 1.051296,-0.148957 1.452344,-0.446875 0.401035,-0.297915 0.719003,-0.773435 0.953906,-1.426563 z m -5.078906,-2.500781 5.096094,0 c -0.06876,-0.767702 -0.263549,-1.343483 -0.584375,-1.727344 -0.492715,-0.595825 -1.131516,-0.893742 -1.916407,-0.89375 -0.71042,8e-6 -1.307686,0.237769 -1.791796,0.713282 -0.484118,0.475527 -0.751956,1.111464 -0.803516,1.907812 z"
     style="font-size:17.60000038px;text-align:center;text-anchor:middle"
     id="path3148" /><path
     d="m 58.825495,40.656414 0,-9.126563 1.392187,0 0,1.297657 c 0.67031,-1.002596 1.638538,-1.503897 2.904688,-1.503907 0.549994,10e-6 1.055592,0.09884 1.516797,0.296485 0.46119,0.197665 0.806372,0.456909 1.035547,0.777734 0.229158,0.320841 0.389575,0.701831 0.48125,1.142969 0.05728,0.286465 0.08593,0.787767 0.08594,1.503906 l 0,5.611719 -1.546875,0 0,-5.551563 c -7e-6,-0.630202 -0.06016,-1.101425 -0.180469,-1.413671 -0.120319,-0.312233 -0.33373,-0.561451 -0.640234,-0.747657 -0.306516,-0.18619 -0.666021,-0.279289 -1.078516,-0.279297 -0.658858,8e-6 -1.227477,0.209123 -1.705859,0.627344 -0.478388,0.418236 -0.717581,1.211725 -0.717578,2.380469 l 0,4.984375 z"
     style="font-size:17.60000038px;text-align:center;text-anchor:middle"
     id="path3150" /><path
     d="m 71.999714,39.27282 0.223437,1.366407 c -0.435421,0.09167 -0.825004,0.137499 -1.16875,0.1375 -0.561461,-1e-6 -0.996877,-0.0888 -1.30625,-0.266407 -0.309377,-0.177604 -0.527085,-0.411067 -0.653125,-0.70039 -0.126043,-0.289322 -0.189064,-0.898046 -0.189062,-1.826172 l 0,-5.250782 -1.134375,0 0,-1.203125 1.134375,0 0,-2.260156 1.538281,-0.928125 0,3.188281 1.555469,0 0,1.203125 -1.555469,0 0,5.336719 c -3e-6,0.441148 0.02721,0.724742 0.08164,0.850781 0.05442,0.126044 0.143226,0.226304 0.266407,0.300782 0.123173,0.07448 0.299345,0.11172 0.528515,0.111719 0.171871,10e-7 0.398173,-0.02005 0.678907,-0.06016 z"
     style="font-size:17.60000038px;text-align:center;text-anchor:middle"
     id="path3152" /><path
     d="m 77.963773,37.330633 1.546875,-0.20625 c 0.177602,0.876565 0.479815,1.508205 0.906641,1.894922 0.426819,0.38672 0.94674,0.580079 1.559765,0.580078 0.727599,10e-7 1.342052,-0.252082 1.84336,-0.75625 0.501295,-0.504165 0.751946,-1.128643 0.751953,-1.873438 -7e-6,-0.710412 -0.232038,-1.296219 -0.696094,-1.757422 -0.464069,-0.461192 -1.054172,-0.69179 -1.770312,-0.691797 -0.292192,7e-6 -0.655994,0.0573 -1.091407,0.171875 l 0.171875,-1.357812 c 0.103121,0.01147 0.186194,0.0172 0.249219,0.01719 0.658849,8e-6 1.251818,-0.171867 1.778906,-0.515625 0.527077,-0.343741 0.790619,-0.873689 0.790625,-1.589843 -6e-6,-0.567178 -0.191933,-1.036969 -0.575781,-1.409375 -0.38386,-0.372385 -0.879432,-0.558583 -1.486719,-0.558594 -0.601566,1.1e-5 -1.102868,0.189073 -1.503906,0.567187 -0.401044,0.378136 -0.658857,0.945323 -0.773437,1.701563 l -1.546875,-0.275 c 0.189061,-1.036969 0.618748,-1.840484 1.289062,-2.410547 0.67031,-0.57004 1.503903,-0.855066 2.500781,-0.855078 0.687495,1.2e-5 1.320567,0.147538 1.899219,0.442578 0.578639,0.295064 1.021217,0.697537 1.327735,1.207422 0.306502,0.509906 0.459757,1.051312 0.459765,1.624219 -8e-6,0.544279 -0.146102,1.039852 -0.438281,1.486718 -0.292195,0.446883 -0.724747,0.802091 -1.297656,1.065625 0.744784,0.171882 1.323429,0.528522 1.735937,1.069922 0.412491,0.541412 0.618741,1.218885 0.61875,2.032422 -9e-6,1.100003 -0.40105,2.032424 -1.203125,2.797266 -0.80209,0.764844 -1.816152,1.147265 -3.042187,1.147266 -1.105733,-10e-7 -2.023831,-0.329427 -2.754297,-0.988282 -0.73047,-0.658852 -1.147267,-1.512497 -1.250391,-2.560937 z"
     style="font-size:17.60000038px;text-align:center;text-anchor:middle"
     id="path3154" /></g>
<path
   inkscape:connector-curvature="0"
   id="path8216-2"
   style="fill:#aaccff;fill-opacity:1;stroke:#000000;stroke-width:1.6;stroke-linecap:butt;stroke-linejoin:round;stroke-miterlimit:4;stroke-opacity:1;stroke-dasharray:none"
   d="m -102.37164,63.948425 110.611477,0 0,26.35172 -110.611477,0 0,-26.35172 z" /><g
   transform="scale(1,-1)"
   style="font-size:96px;font-style:normal;font-weight:normal;line-height:125%;letter-spacing:0px;word-spacing:0px;fill:#000000;fill-opacity:1;stroke:none;font-family:Sans"
   id="text3838-3-3"><path
     d="m -89.829086,-75.258023 1.521093,0.197656 c -0.166154,1.04844 -0.591544,1.869142 -1.276172,2.46211 -0.684642,0.592968 -1.525396,0.889452 -2.522265,0.889453 -1.248962,-10e-7 -2.252998,-0.408203 -3.01211,-1.22461 -0.759115,-0.816404 -1.138672,-1.986585 -1.138672,-3.510547 0,-0.985411 0.163281,-1.84765 0.489844,-2.586718 0.326561,-0.739055 0.823566,-1.293351 1.491016,-1.662891 0.667444,-0.369522 1.393616,-0.554288 2.178515,-0.554297 0.99114,9e-6 1.801817,0.25066 2.432032,0.751953 0.6302,0.50131 1.034106,1.213159 1.211719,2.135547 l -1.503907,0.232031 c -0.143236,-0.613014 -0.396751,-1.074211 -0.760547,-1.383593 -0.363808,-0.309368 -0.803521,-0.464055 -1.31914,-0.464063 -0.779171,8e-6 -1.412243,0.279305 -1.899219,0.837891 -0.486982,0.5586 -0.730471,1.442323 -0.730469,2.651172 -2e-6,1.226045 0.234893,2.116929 0.704688,2.672656 0.469788,0.55573 1.082808,0.833595 1.839062,0.833594 0.607286,10e-7 1.114317,-0.186197 1.521094,-0.558594 0.406764,-0.372394 0.664576,-0.94531 0.773438,-1.71875 z"
     style="font-size:17.60000038px;text-align:center;text-anchor:middle"
     id="path3157" /><path
     d="m -87.560336,-76.478336 c -10e-7,-1.690098 0.46979,-2.941919 1.409375,-3.755469 0.784893,-0.676032 1.741663,-1.014053 2.870312,-1.014062 1.254682,9e-6 2.280201,0.411077 3.076563,1.233203 0.796345,0.822143 1.194522,1.957949 1.194531,3.407422 -9e-6,1.174483 -0.176181,2.09831 -0.528516,2.771485 -0.352352,0.673178 -0.865112,1.195964 -1.538281,1.568359 -0.673183,0.372396 -1.407948,0.558593 -2.204297,0.558594 -1.277608,-10e-7 -2.310289,-0.409636 -3.098047,-1.228907 -0.787761,-0.819269 -1.181641,-1.999476 -1.18164,-3.540625 z m 1.589843,0 c -2e-6,1.168754 0.254946,2.043883 0.764844,2.625391 0.509893,0.581512 1.151559,0.872267 1.925,0.872266 0.767703,10e-7 1.406504,-0.292186 1.916406,-0.876563 0.509889,-0.584372 0.764837,-1.475257 0.764844,-2.672656 -7e-6,-1.12864 -0.256387,-1.983718 -0.76914,-2.565235 -0.512767,-0.581502 -1.150136,-0.872257 -1.91211,-0.872265 -0.773441,8e-6 -1.415107,0.28933 -1.925,0.867969 -0.509898,0.578652 -0.764846,1.452349 -0.764844,2.621093 z"
     style="font-size:17.60000038px;text-align:center;text-anchor:middle"
     id="path3159" /><path
     d="m -77.187681,-71.915054 0,-9.126563 1.383594,0 0,1.280469 c 0.286455,-0.446867 0.667444,-0.806372 1.142968,-1.078516 0.475517,-0.272126 1.016923,-0.408194 1.624219,-0.408203 0.676036,9e-6 1.230332,0.140374 1.662891,0.421094 0.432545,0.280738 0.737622,0.673185 0.915234,1.177344 0.721867,-1.065617 1.661449,-1.598429 2.81875,-1.598438 0.905197,9e-6 1.60129,0.25066 2.088282,0.751953 0.486966,0.50131 0.730455,1.273315 0.730468,2.316016 l 0,6.264844 -1.538281,0 0,-5.749219 c -1.2e-5,-0.618744 -0.05014,-1.064186 -0.150391,-1.336328 -0.100272,-0.272128 -0.282173,-0.491269 -0.545703,-0.657422 -0.263552,-0.166138 -0.572927,-0.249211 -0.928125,-0.249219 -0.641676,8e-6 -1.174488,0.213419 -1.598437,0.640234 -0.423967,0.42683 -0.635946,1.110033 -0.635938,2.04961 l 0,5.302344 -1.546875,0 0,-5.929688 c -6e-6,-0.687493 -0.126048,-1.203118 -0.378125,-1.546875 -0.252089,-0.343742 -0.664589,-0.515617 -1.2375,-0.515625 -0.435421,8e-6 -0.837895,0.114591 -1.207422,0.34375 -0.369534,0.229174 -0.637373,0.56433 -0.803515,1.005469 -0.166149,0.441152 -0.249222,1.077089 -0.249219,1.907812 l 0,4.735157 z"
     style="font-size:17.60000038px;text-align:center;text-anchor:middle"
     id="path3161" /><path
     d="m -62.509554,-68.417398 0,-12.624219 1.409375,0 0,1.185938 c 0.332289,-0.464055 0.707549,-0.812101 1.125781,-1.044141 0.418226,-0.232022 0.925256,-0.348038 1.521094,-0.348047 0.779161,9e-6 1.46666,0.20053 2.0625,0.601562 0.595826,0.40105 1.045565,0.966805 1.349219,1.697266 0.303637,0.730475 0.45546,1.531125 0.455469,2.401953 -9e-6,0.933858 -0.167587,1.774613 -0.502735,2.522266 -0.335164,0.747658 -0.822143,1.320574 -1.460937,1.71875 -0.638809,0.398177 -1.310553,0.597265 -2.015235,0.597266 -0.515629,-10e-7 -0.978259,-0.108855 -1.38789,-0.326563 -0.409639,-0.217708 -0.746227,-0.492708 -1.009766,-0.825 l 0,4.442969 z m 1.400781,-8.009375 c -2e-6,1.174482 0.237758,2.04245 0.713282,2.603906 0.475517,0.56146 1.051297,0.842189 1.727343,0.842188 0.687495,10e-7 1.276166,-0.290754 1.766016,-0.872266 0.489837,-0.581508 0.734758,-1.482418 0.734766,-2.702734 -8e-6,-1.163015 -0.2392,-2.033848 -0.717578,-2.6125 -0.478392,-0.578638 -1.049876,-0.867961 -1.714454,-0.867969 -0.658858,8e-6 -1.2418,0.30795 -1.748828,0.923828 -0.507034,0.615892 -0.760549,1.511073 -0.760547,2.685547 z"
     style="font-size:17.60000038px;text-align:center;text-anchor:middle"
     id="path3163" /><path
     d="m -53.28846,-76.478336 c -10e-7,-1.690098 0.469791,-2.941919 1.409375,-3.755469 0.784893,-0.676032 1.741663,-1.014053 2.870312,-1.014062 1.254682,9e-6 2.280202,0.411077 3.076563,1.233203 0.796346,0.822143 1.194522,1.957949 1.194531,3.407422 -9e-6,1.174483 -0.176181,2.09831 -0.528515,2.771485 -0.352352,0.673178 -0.865112,1.195964 -1.538282,1.568359 -0.673183,0.372396 -1.407948,0.558593 -2.204297,0.558594 -1.277607,-10e-7 -2.310289,-0.409636 -3.098046,-1.228907 -0.787762,-0.819269 -1.181642,-1.999476 -1.181641,-3.540625 z m 1.589844,0 c -2e-6,1.168754 0.254945,2.043883 0.764843,2.625391 0.509893,0.581512 1.151559,0.872267 1.925,0.872266 0.767703,10e-7 1.406505,-0.292186 1.916407,-0.876563 0.509888,-0.584372 0.764836,-1.475257 0.764844,-2.672656 -8e-6,-1.12864 -0.256388,-1.983718 -0.769141,-2.565235 -0.512767,-0.581502 -1.150136,-0.872257 -1.91211,-0.872265 -0.773441,8e-6 -1.415107,0.28933 -1.925,0.867969 -0.509898,0.578652 -0.764845,1.452349 -0.764843,2.621093 z"
     style="font-size:17.60000038px;text-align:center;text-anchor:middle"
     id="path3165" /><path
     d="m -42.915804,-71.915054 0,-9.126563 1.392188,0 0,1.297656 c 0.670309,-1.002595 1.638537,-1.503897 2.904687,-1.503906 0.549994,9e-6 1.055593,0.09884 1.516797,0.296484 0.461191,0.197665 0.806373,0.45691 1.035547,0.777735 0.229158,0.320841 0.389575,0.70183 0.48125,1.142969 0.05728,0.286465 0.08593,0.787766 0.08594,1.503906 l 0,5.611719 -1.546875,0 0,-5.551563 c -7e-6,-0.630202 -0.06016,-1.101426 -0.180469,-1.413672 -0.120319,-0.312232 -0.333731,-0.561451 -0.640235,-0.747656 -0.306516,-0.18619 -0.666021,-0.279289 -1.078515,-0.279297 -0.658859,8e-6 -1.227478,0.209122 -1.70586,0.627344 -0.478388,0.418236 -0.717581,1.211725 -0.717578,2.380469 l 0,4.984375 z"
     style="font-size:17.60000038px;text-align:center;text-anchor:middle"
     id="path3167" /><path
     d="m -26.871272,-74.854117 1.598437,0.197656 c -0.252092,0.933856 -0.719019,1.658595 -1.400781,2.174219 -0.681778,0.515625 -1.55261,0.773437 -2.6125,0.773438 -1.3349,-10e-7 -2.393362,-0.411068 -3.175391,-1.233203 -0.782032,-0.822134 -1.173047,-1.975128 -1.173047,-3.458985 0,-1.535411 0.395312,-2.727076 1.185938,-3.575 0.790622,-0.847908 1.816142,-1.271866 3.076562,-1.271875 1.220307,9e-6 2.217181,0.415373 2.990625,1.246094 0.773429,0.830736 1.160148,1.999485 1.160157,3.50625 -9e-6,0.09167 -0.0029,0.229171 -0.0086,0.4125 l -6.80625,0 c 0.05729,1.002607 0.340883,1.770315 0.850781,2.303125 0.509892,0.532814 1.145829,0.79922 1.907812,0.799219 0.567182,10e-7 1.051297,-0.148957 1.452344,-0.446875 0.401035,-0.297915 0.719004,-0.773436 0.953907,-1.426563 z m -5.078907,-2.500781 5.096094,0 c -0.06876,-0.767702 -0.263549,-1.343483 -0.584375,-1.727344 -0.492715,-0.595826 -1.131516,-0.893742 -1.916406,-0.89375 -0.710421,8e-6 -1.307686,0.237768 -1.791797,0.713281 -0.484117,0.475528 -0.751956,1.111465 -0.803516,1.907813 z"
     style="font-size:17.60000038px;text-align:center;text-anchor:middle"
     id="path3169" /><path
     d="m -23.322054,-71.915054 0,-9.126563 1.392188,0 0,1.297656 c 0.670309,-1.002595 1.638537,-1.503897 2.904687,-1.503906 0.549994,9e-6 1.055593,0.09884 1.516797,0.296484 0.461191,0.197665 0.806373,0.45691 1.035547,0.777735 0.229158,0.320841 0.389575,0.70183 0.48125,1.142969 0.05728,0.286465 0.08593,0.787766 0.08594,1.503906 l 0,5.611719 -1.546875,0 0,-5.551563 c -7e-6,-0.630202 -0.06016,-1.101426 -0.180469,-1.413672 -0.120319,-0.312232 -0.333731,-0.561451 -0.640235,-0.747656 -0.306516,-0.18619 -0.666021,-0.279289 -1.078515,-0.279297 -0.658859,8e-6 -1.227478,0.209122 -1.70586,0.627344 -0.478388,0.418236 -0.717581,1.211725 -0.717578,2.380469 l 0,4.984375 z"
     style="font-size:17.60000038px;text-align:center;text-anchor:middle"
     id="path3171" /><path
     d="m -10.147835,-73.298648 0.2234375,1.366406 c -0.4354215,0.09167 -0.8250035,0.1375 -1.1687505,0.1375 -0.561461,0 -0.996877,-0.0888 -1.30625,-0.266406 -0.309377,-0.177604 -0.527085,-0.411067 -0.653125,-0.700391 -0.126043,-0.289322 -0.189064,-0.898045 -0.189062,-1.826172 l 0,-5.250781 -1.134375,0 0,-1.203125 1.134375,0 0,-2.260156 1.538281,-0.928125 0,3.188281 1.555469,0 0,1.203125 -1.555469,0 0,5.336719 c -3e-6,0.441148 0.02721,0.724741 0.08164,0.850781 0.05442,0.126043 0.143226,0.226304 0.266406,0.300781 0.123174,0.07448 0.299345,0.11172 0.528516,0.111719 0.171871,10e-7 0.398173,-0.02005 0.678906,-0.06016 z"
     style="font-size:17.60000038px;text-align:center;text-anchor:middle"
     id="path3173" /><path
     d="m 3.9373183,-73.401773 0,1.486719 -8.327344,0 c -0.011459,-0.372396 0.048697,-0.730468 0.1804688,-1.074219 0.2119782,-0.567186 0.551431,-1.125779 1.0183594,-1.675781 0.4669249,-0.549997 1.1415336,-1.185934 2.0238282,-1.907813 1.3692657,-1.122911 2.2945252,-2.012363 2.7757813,-2.668359 0.481243,-0.655982 0.7218677,-1.276164 0.721875,-1.860547 -7.3e-6,-0.613011 -0.2191477,-1.130068 -0.6574219,-1.551172 -0.4382874,-0.421083 -1.00977123,-0.631629 -1.71445316,-0.631641 -0.74479582,1.2e-5 -1.34062854,0.223449 -1.78750004,0.670313 -0.4468777,0.446885 -0.6731795,1.065634 -0.6789063,1.85625 l -1.5898438,-0.163282 c 0.1088533,-1.185927 0.5184883,-2.089702 1.2289063,-2.711328 0.7104139,-0.621602 1.6643193,-0.932409 2.86171884,-0.932422 1.20884806,1.3e-5 2.16561796,0.335169 2.87031256,1.005469 0.704679,0.670324 1.0570224,1.501052 1.0570313,2.492188 -8.9e-6,0.504175 -0.1031338,0.999747 -0.309375,1.486719 -0.2062584,0.486986 -0.5485757,0.999746 -1.0269532,1.538281 -0.4783924,0.538547 -1.2733135,1.277609 -2.38476566,2.217187 -0.92812921,0.77917 -1.52396194,1.307685 -1.78750004,1.585547 -0.2635447,0.277867 -0.4812529,0.557163 -0.653125,0.837891 z"
     style="font-size:17.60000038px;text-align:center;text-anchor:middle"
     id="path3175" /></g>
<path
   inkscape:connector-curvature="0"
   id="path8216-2-4"
   style="fill:#aaccff;fill-opacity:1;stroke:#000000;stroke-width:1.6;stroke-linecap:butt;stroke-linejoin:round;stroke-miterlimit:4;stroke-opacity:1;stroke-dasharray:none"
   d="m -18.022203,176.69611 110.611489,0 0,26.35172 -110.611489,0 0,-26.35172 z" /><g
   transform="scale(1,-1)"
   style="font-size:96px;font-style:normal;font-weight:normal;line-height:125%;letter-spacing:0px;word-spacing:0px;fill:#000000;fill-opacity:1;stroke:none;font-family:Sans"
   id="text3838-3-3-1"><path
     d="m -5.4798471,-188.00569 1.5210937,0.19766 c -0.1661543,1.04844 -0.5915445,1.86914 -1.2761719,2.46211 -0.6846421,0.59297 -1.5253965,0.88945 -2.5222656,0.88945 -1.248962,0 -2.2529971,-0.4082 -3.0121091,-1.22461 -0.759116,-0.8164 -1.138673,-1.98658 -1.138672,-3.51055 -1e-6,-0.98541 0.16328,-1.84765 0.489843,-2.58671 0.326561,-0.73906 0.823566,-1.29336 1.4910161,-1.6629 0.6674446,-0.36952 1.3936158,-0.55428 2.1785157,-0.55429 0.99114,1e-5 1.8018163,0.25066 2.4320313,0.75195 0.6302005,0.50131 1.0341063,1.21316 1.2117188,2.13555 l -1.5039063,0.23203 c -0.143236,-0.61302 -0.3967514,-1.07421 -0.7605469,-1.38359 -0.3638079,-0.30937 -0.803521,-0.46406 -1.3191406,-0.46407 -0.7791708,1e-5 -1.4122431,0.27931 -1.8992188,0.83789 -0.4869813,0.5586 -0.7304713,1.44233 -0.7304683,2.65118 -3e-6,1.22604 0.234893,2.11692 0.704687,2.67265 0.4697882,0.55573 1.0828085,0.8336 1.8390626,0.8336 0.6072862,0 1.114317,-0.1862 1.5210937,-0.5586 0.4067641,-0.37239 0.6645764,-0.94531 0.7734376,-1.71875 z"
     style="font-size:17.60000038px;text-align:center;text-anchor:middle"
     id="path3178" /><path
     d="m -3.2110971,-189.226 c -6e-7,-1.6901 0.4697906,-2.94192 1.409375,-3.75547 0.7848931,-0.67603 1.74166301,-1.01405 2.8703126,-1.01406 1.2546814,1e-5 2.2802012,0.41107 3.0765626,1.2332 0.7963454,0.82214 1.1945221,1.95795 1.1945312,3.40742 -9.1e-6,1.17449 -0.1761808,2.09831 -0.5285156,2.77149 -0.352352,0.67318 -0.8651119,1.19596 -1.5382813,1.56836 -0.6731835,0.37239 -1.4079484,0.55859 -2.2042969,0.55859 -1.27760778,0 -2.3102891,-0.40963 -3.0980469,-1.22891 -0.7877615,-0.81927 -1.1816413,-1.99947 -1.1816407,-3.54062 z m 1.5898438,0 c -2.2e-6,1.16875 0.2549455,2.04388 0.76484376,2.62539 0.5098924,0.58151 1.15155843,0.87227 1.92500004,0.87227 0.7677027,0 1.4065042,-0.29219 1.9164063,-0.87657 0.5098885,-0.58437 0.7648362,-1.47525 0.7648438,-2.67265 -7.6e-6,-1.12864 -0.2563875,-1.98372 -0.7691407,-2.56524 -0.5127667,-0.5815 -1.1501358,-0.87226 -1.9121094,-0.87226 -0.77344161,0 -1.41510764,0.28933 -1.92500004,0.86797 -0.50989826,0.57865 -0.76484596,1.45234 -0.76484376,2.62109 z"
     style="font-size:17.60000038px;text-align:center;text-anchor:middle"
     id="path3180" /><path
     d="m 7.1615582,-184.66272 0,-9.12656 1.3835938,0 0,1.28047 c 0.2864555,-0.44687 0.6674447,-0.80638 1.1429688,-1.07852 0.4755162,-0.27213 1.0169222,-0.40819 1.6242192,-0.4082 0.676035,1e-5 1.230332,0.14037 1.66289,0.42109 0.432545,0.28074 0.737623,0.67319 0.915235,1.17735 0.721866,-1.06562 1.661448,-1.59843 2.81875,-1.59844 0.905196,1e-5 1.601289,0.25066 2.088281,0.75195 0.486966,0.50131 0.730455,1.27332 0.730469,2.31602 l 0,6.26484 -1.538282,0 0,-5.74922 c -1.2e-5,-0.61874 -0.05014,-1.06418 -0.15039,-1.33633 -0.100272,-0.27212 -0.282173,-0.49127 -0.545703,-0.65742 -0.263553,-0.16614 -0.572928,-0.24921 -0.928125,-0.24922 -0.641677,1e-5 -1.174489,0.21342 -1.598438,0.64024 -0.423967,0.42683 -0.635946,1.11003 -0.635937,2.04961 l 0,5.30234 -1.546875,0 0,-5.92969 c -7e-6,-0.68749 -0.126049,-1.20312 -0.378125,-1.54687 -0.25209,-0.34374 -0.664589,-0.51562 -1.2375,-0.51563 -0.435422,1e-5 -0.837895,0.11459 -1.2074224,0.34375 -0.3695346,0.22918 -0.6373729,0.56433 -0.8035156,1.00547 -0.1661486,0.44115 -0.2492215,1.07709 -0.2492187,1.90781 l 0,4.73516 z"
     style="font-size:17.60000038px;text-align:center;text-anchor:middle"
     id="path3182" /><path
     d="m 21.839686,-181.16506 0,-12.62422 1.409375,0 0,1.18594 c 0.332288,-0.46406 0.707548,-0.81211 1.125781,-1.04415 0.418225,-0.23202 0.925256,-0.34803 1.521094,-0.34804 0.77916,1e-5 1.46666,0.20053 2.0625,0.60156 0.595825,0.40105 1.045564,0.9668 1.349218,1.69727 0.303637,0.73047 0.45546,1.53112 0.455469,2.40195 -9e-6,0.93386 -0.167587,1.77461 -0.502734,2.52226 -0.335165,0.74766 -0.822143,1.32058 -1.460938,1.71875 -0.638808,0.39818 -1.310552,0.59727 -2.015234,0.59727 -0.51563,0 -0.97826,-0.10885 -1.387891,-0.32656 -0.409639,-0.21771 -0.746227,-0.49271 -1.009765,-0.825 l 0,4.44297 z m 1.400781,-8.00938 c -3e-6,1.17448 0.237757,2.04245 0.713281,2.60391 0.475517,0.56146 1.051298,0.84219 1.727344,0.84219 0.687494,0 1.276165,-0.29076 1.766016,-0.87227 0.489836,-0.58151 0.734758,-1.48242 0.734765,-2.70273 -7e-6,-1.16302 -0.2392,-2.03385 -0.717578,-2.6125 -0.478392,-0.57864 -1.049876,-0.86797 -1.714453,-0.86797 -0.658859,0 -1.241801,0.30795 -1.748828,0.92382 -0.507034,0.6159 -0.76055,1.51108 -0.760547,2.68555 z"
     style="font-size:17.60000038px;text-align:center;text-anchor:middle"
     id="path3184" /><path
     d="m 31.060779,-189.226 c 0,-1.6901 0.469791,-2.94192 1.409375,-3.75547 0.784893,-0.67603 1.741663,-1.01405 2.870313,-1.01406 1.254681,1e-5 2.280201,0.41107 3.076562,1.2332 0.796346,0.82214 1.194523,1.95795 1.194532,3.40742 -9e-6,1.17449 -0.176181,2.09831 -0.528516,2.77149 -0.352352,0.67318 -0.865112,1.19596 -1.538281,1.56836 -0.673184,0.37239 -1.407949,0.55859 -2.204297,0.55859 -1.277608,0 -2.310289,-0.40963 -3.098047,-1.22891 -0.787762,-0.81927 -1.181641,-1.99947 -1.181641,-3.54062 z m 1.589844,0 c -2e-6,1.16875 0.254946,2.04388 0.764844,2.62539 0.509892,0.58151 1.151558,0.87227 1.925,0.87227 0.767703,0 1.406504,-0.29219 1.916406,-0.87657 0.509889,-0.58437 0.764836,-1.47525 0.764844,-2.67265 -8e-6,-1.12864 -0.256388,-1.98372 -0.769141,-2.56524 -0.512766,-0.5815 -1.150136,-0.87226 -1.912109,-0.87226 -0.773442,0 -1.415108,0.28933 -1.925,0.86797 -0.509898,0.57865 -0.764846,1.45234 -0.764844,2.62109 z"
     style="font-size:17.60000038px;text-align:center;text-anchor:middle"
     id="path3186" /><path
     d="m 41.433436,-184.66272 0,-9.12656 1.392187,0 0,1.29765 c 0.670309,-1.00259 1.638538,-1.50389 2.904688,-1.5039 0.549994,1e-5 1.055592,0.0988 1.516797,0.29648 0.46119,0.19767 0.806372,0.45691 1.035546,0.77774 0.229159,0.32084 0.389575,0.70183 0.48125,1.14297 0.05728,0.28646 0.08593,0.78776 0.08594,1.5039 l 0,5.61172 -1.546875,0 0,-5.55156 c -7e-6,-0.6302 -0.06016,-1.10143 -0.180469,-1.41367 -0.120319,-0.31224 -0.33373,-0.56146 -0.640234,-0.74766 -0.306517,-0.18619 -0.666021,-0.27929 -1.078516,-0.2793 -0.658859,1e-5 -1.227478,0.20912 -1.705859,0.62735 -0.478389,0.41823 -0.717581,1.21172 -0.717578,2.38047 l 0,4.98437 z"
     style="font-size:17.60000038px;text-align:center;text-anchor:middle"
     id="path3188" /><path
     d="m 57.477967,-187.60178 1.598437,0.19765 c -0.252092,0.93386 -0.719018,1.6586 -1.400781,2.17422 -0.681778,0.51563 -1.55261,0.77344 -2.6125,0.77344 -1.334899,0 -2.393362,-0.41107 -3.175391,-1.2332 -0.782032,-0.82214 -1.173047,-1.97513 -1.173047,-3.45899 0,-1.53541 0.395312,-2.72707 1.185938,-3.575 0.790622,-0.84791 1.816142,-1.27186 3.076563,-1.27187 1.220306,1e-5 2.21718,0.41537 2.990625,1.24609 0.773428,0.83074 1.160147,1.99949 1.160156,3.50625 -9e-6,0.0917 -0.0029,0.22917 -0.0086,0.4125 l -6.80625,0 c 0.05729,1.00261 0.340883,1.77032 0.850781,2.30313 0.509893,0.53281 1.145829,0.79922 1.907813,0.79922 0.567182,0 1.051296,-0.14896 1.452344,-0.44688 0.401034,-0.29791 0.719003,-0.77343 0.953906,-1.42656 z m -5.078906,-2.50078 5.096093,0 c -0.06876,-0.76771 -0.263548,-1.34349 -0.584375,-1.72735 -0.492714,-0.59582 -1.131516,-0.89374 -1.916406,-0.89375 -0.710421,1e-5 -1.307686,0.23777 -1.791797,0.71328 -0.484117,0.47553 -0.751955,1.11147 -0.803515,1.90782 z"
     style="font-size:17.60000038px;text-align:center;text-anchor:middle"
     id="path3190" /><path
     d="m 61.027186,-184.66272 0,-9.12656 1.392187,0 0,1.29765 c 0.670309,-1.00259 1.638538,-1.50389 2.904688,-1.5039 0.549994,1e-5 1.055592,0.0988 1.516797,0.29648 0.46119,0.19767 0.806372,0.45691 1.035546,0.77774 0.229159,0.32084 0.389575,0.70183 0.48125,1.14297 0.05728,0.28646 0.08593,0.78776 0.08594,1.5039 l 0,5.61172 -1.546875,0 0,-5.55156 c -7e-6,-0.6302 -0.06016,-1.10143 -0.180469,-1.41367 -0.120319,-0.31224 -0.33373,-0.56146 -0.640234,-0.74766 -0.306517,-0.18619 -0.666021,-0.27929 -1.078516,-0.2793 -0.658859,1e-5 -1.227478,0.20912 -1.705859,0.62735 -0.478389,0.41823 -0.717581,1.21172 -0.717578,2.38047 l 0,4.98437 z"
     style="font-size:17.60000038px;text-align:center;text-anchor:middle"
     id="path3192" /><path
     d="m 74.201404,-186.04631 0.223438,1.3664 c -0.435421,0.0917 -0.825004,0.1375 -1.16875,0.1375 -0.561462,0 -0.996878,-0.0888 -1.30625,-0.2664 -0.309377,-0.17761 -0.527085,-0.41107 -0.653125,-0.70039 -0.126043,-0.28933 -0.189064,-0.89805 -0.189063,-1.82618 l 0,-5.25078 -1.134375,0 0,-1.20312 1.134375,0 0,-2.26016 1.538282,-0.92812 0,3.18828 1.555468,0 0,1.20312 -1.555468,0 0,5.33672 c -3e-6,0.44115 0.02721,0.72474 0.08164,0.85078 0.05442,0.12605 0.143226,0.22631 0.266406,0.30078 0.123174,0.0745 0.299346,0.11172 0.528516,0.11172 0.171871,0 0.398173,-0.02 0.678906,-0.0601 z"
     style="font-size:17.60000038px;text-align:center;text-anchor:middle"
     id="path3194" /><path
     d="m 85.983433,-184.66272 -1.546875,0 0,-9.85703 c -0.372401,0.35522 -0.860812,0.71042 -1.465235,1.06562 -0.60443,0.35522 -1.147268,0.62163 -1.628516,0.79922 l 0,-1.49531 c 0.865102,-0.40676 1.621351,-0.89947 2.268751,-1.47812 0.647391,-0.57864 1.105723,-1.1401 1.375,-1.68438 l 0.996875,0 z"
     style="font-size:17.60000038px;text-align:center;text-anchor:middle"
     id="path3196" /></g>
</g></svg>