<?xml version="1.0" encoding="UTF-8" standalone="no"?>
<!-- Created with Inkscape (http://www.inkscape.org/) -->

<svg
   xmlns:dc="http://purl.org/dc/elements/1.1/"
   xmlns:cc="http://creativecommons.org/ns#"
   xmlns:rdf="http://www.w3.org/1999/02/22-rdf-syntax-ns#"
   xmlns:svg="http://www.w3.org/2000/svg"
   xmlns="http://www.w3.org/2000/svg"
   xmlns:sodipodi="http://sodipodi.sourceforge.net/DTD/sodipodi-0.dtd"
   xmlns:inkscape="http://www.inkscape.org/namespaces/inkscape"
   width="1148.9062"
   height="336.12164"
   id="svg2"
   sodipodi:version="0.32"
   inkscape:version="0.48.4 r9939"
   sodipodi:modified="true"
   version="1.1"
   sodipodi:docname="6.project.svg">
  <defs
     id="defs4">
    <marker
       inkscape:stockid="TriangleOutL"
       orient="auto"
       refY="0"
       refX="0"
       id="TriangleOutL"
       style="overflow:visible">
      <path
         id="path4208"
         d="m 5.77,0 -8.65,5 0,-10 8.65,5 z"
         style="fill-rule:evenodd;stroke:#000000;stroke-width:1pt;marker-start:none"
         transform="scale(0.8,0.8)"
         inkscape:connector-curvature="0" />
    </marker>
  </defs>
  <sodipodi:namedview
     id="base"
     pagecolor="#ffffff"
     bordercolor="#666666"
     borderopacity="1.0"
     gridtolerance="10000"
     guidetolerance="10"
     objecttolerance="10"
     inkscape:pageopacity="0.0"
     inkscape:pageshadow="2"
     inkscape:zoom="0.49497475"
     inkscape:cx="405.24414"
     inkscape:cy="67.937357"
     inkscape:document-units="px"
     inkscape:current-layer="layer1"
     inkscape:window-width="1280"
     inkscape:window-height="800"
     inkscape:window-x="0"
     inkscape:window-y="24"
     showgrid="false"
     inkscape:window-maximized="0"
     fit-margin-top="20"
     fit-margin-left="20"
     fit-margin-bottom="20"
     fit-margin-right="20" />
  <metadata
     id="metadata7">
    <rdf:RDF>
      <cc:Work
         rdf:about="">
        <dc:format>image/svg+xml</dc:format>
        <dc:type
           rdf:resource="http://purl.org/dc/dcmitype/StillImage" />
        <dc:title></dc:title>
      </cc:Work>
    </rdf:RDF>
  </metadata>
  <g
     inkscape:label="Layer 1"
     inkscape:groupmode="layer"
     id="layer1"
     transform="translate(-61.999991,-242.15961)">
    <rect
       style="fill:#ffffff;stroke:#000000;stroke-width:2;stroke-linecap:round;stroke-linejoin:round;stroke-miterlimit:4;stroke-dasharray:none"
       id="rect2164"
       width="274.44012"
       height="82.511154"
       x="82.993187"
       y="282.78662" />
    <g
       style="font-size:12px;font-style:normal;font-weight:normal;text-align:center;text-anchor:middle;fill:#000000;fill-opacity:1;stroke:none;font-family:Bitstream Vera Sans"
       id="text3136">
      <path
         d="m 98.824661,308.09525 3.964849,0 0,17.71484 c -1e-5,3.12501 0.56639,5.37761 1.69921,6.75781 1.13281,1.36719 2.96874,2.05079 5.50782,2.05078 2.52602,1e-5 4.35545,-0.68359 5.48828,-2.05078 1.13279,-1.3802 1.69919,-3.6328 1.69922,-6.75781 l 0,-17.71484 3.96484,0 0,18.20312 c -3e-5,3.80209 -0.94404,6.67318 -2.83203,8.61328 -1.87502,1.94011 -4.64846,2.91016 -8.32031,2.91016 -3.68491,0 -6.47137,-0.97005 -8.35938,-2.91016 -1.875003,-1.9401 -2.812502,-4.81119 -2.812499,-8.61328 l 0,-18.20312"
         style="font-size:40px"
         id="path3118" />
      <path
         d="m 146.5981,324.05228 0,13.20312 -3.59375,0 0,-13.08594 c -2e-5,-2.07029 -0.40367,-3.61977 -1.21094,-4.64843 -0.80731,-1.02863 -2.01824,-1.54295 -3.63281,-1.54297 -1.94012,2e-5 -3.47006,0.61851 -4.58984,1.85547 -1.1198,1.23699 -1.6797,2.92319 -1.67969,5.05859 l 0,12.36328 -3.61328,0 0,-21.875 3.61328,0 0,3.39844 c 0.85936,-1.31509 1.86848,-2.29816 3.02734,-2.94922 1.17186,-0.65102 2.51952,-0.97654 4.04297,-0.97656 2.513,2e-5 4.41404,0.78127 5.70313,2.34375 1.28904,1.5495 1.93357,3.83465 1.93359,6.85547"
         style="font-size:40px"
         id="path3120" />
      <path
         d="m 153.80513,315.3804 3.59375,0 0,21.875 -3.59375,0 0,-21.875 m 0,-8.51562 3.59375,0 0,4.55078 -3.59375,0 0,-4.55078"
         style="font-size:40px"
         id="path3122" />
      <path
         d="m 183.08247,324.05228 0,13.20312 -3.59375,0 0,-13.08594 c -1e-5,-2.07029 -0.40366,-3.61977 -1.21093,-4.64843 -0.80731,-1.02863 -2.01825,-1.54295 -3.63282,-1.54297 -1.94011,2e-5 -3.47006,0.61851 -4.58984,1.85547 -1.1198,1.23699 -1.67969,2.92319 -1.67969,5.05859 l 0,12.36328 -3.61328,0 0,-21.875 3.61328,0 0,3.39844 c 0.85937,-1.31509 1.86848,-2.29816 3.02735,-2.94922 1.17186,-0.65102 2.51951,-0.97654 4.04297,-0.97656 2.513,2e-5 4.41404,0.78127 5.70312,2.34375 1.28904,1.5495 1.93357,3.83465 1.93359,6.85547"
         style="font-size:40px"
         id="path3124" />
      <path
         d="m 190.28951,315.3804 3.59375,0 0,21.875 -3.59375,0 0,-21.875 m 0,-8.51562 3.59375,0 0,4.55078 -3.59375,0 0,-4.55078"
         style="font-size:40px"
         id="path3126" />
      <path
         d="m 204.93794,309.16946 0,6.21094 7.40235,0 0,2.79297 -7.40235,0 0,11.875 c 0,1.78386 0.24088,2.92969 0.72266,3.4375 0.49478,0.50782 1.49087,0.76172 2.98828,0.76172 l 3.69141,0 0,3.00781 -3.69141,0 c -2.77345,0 -4.68751,-0.51432 -5.74219,-1.54297 -1.05469,-1.04166 -1.58203,-2.92968 -1.58203,-5.66406 l 0,-11.875 -2.63672,0 0,-2.79297 2.63672,0 0,-6.21094 3.61328,0"
         style="font-size:40px"
         id="path3128" />
      <path
         d="m 217.08638,315.3804 3.59375,0 0,21.875 -3.59375,0 0,-21.875 m 0,-8.51562 3.59375,0 0,4.55078 -3.59375,0 0,-4.55078"
         style="font-size:40px"
         id="path3130" />
      <path
         d="m 238.12154,326.25931 c -2.90366,10e-6 -4.91538,0.33204 -6.03516,0.99609 -1.1198,0.66407 -1.67969,1.79688 -1.67969,3.39844 0,1.27605 0.41666,2.29167 1.25,3.04687 0.84635,0.74219 1.99218,1.11329 3.4375,1.11329 1.99218,0 3.58723,-0.70313 4.78516,-2.10938 1.21092,-1.41926 1.81639,-3.30077 1.81641,-5.64453 l 0,-0.80078 -3.57422,0 m 7.16797,-1.48438 0,12.48047 -3.59375,0 0,-3.32031 c -0.82033,1.32813 -1.84247,2.3112 -3.06641,2.94922 -1.22397,0.625 -2.72137,0.9375 -4.49219,0.9375 -2.23959,0 -4.02344,-0.625 -5.35156,-1.875 -1.31511,-1.26302 -1.97266,-2.94922 -1.97266,-5.0586 0,-2.46092 0.82031,-4.31639 2.46094,-5.5664 1.65364,-1.24999 4.11457,-1.87499 7.38281,-1.875 l 5.03907,0 0,-0.35156 c -2e-5,-1.65363 -0.5469,-2.92968 -1.64063,-3.82813 -1.08074,-0.91144 -2.60418,-1.36717 -4.57031,-1.36719 -1.25001,2e-5 -2.46746,0.14976 -3.65235,0.44922 -1.1849,0.2995 -2.32422,0.74872 -3.41796,1.34766 l 0,-3.32031 c 1.31509,-0.5078 2.59113,-0.8854 3.82812,-1.13282 1.23697,-0.26039 2.4414,-0.3906 3.61328,-0.39062 3.16405,2e-5 5.52733,0.82033 7.08985,2.46094 1.56247,1.64064 2.34372,4.12762 2.34375,7.46093"
         style="font-size:40px"
         id="path3132" />
      <path
         d="m 252.71138,306.86478 3.59375,0 0,30.39062 -3.59375,0 0,-30.39062"
         style="font-size:40px"
         id="path3134" />
      <path
         d="m 263.80513,315.3804 3.59375,0 0,21.875 -3.59375,0 0,-21.875 m 0,-8.51562 3.59375,0 0,4.55078 -3.59375,0 0,-4.55078"
         style="font-size:40px"
         id="path3136" />
      <path
         d="m 273.33638,315.3804 17.07031,0 0,3.28125 -13.51562,15.72266 13.51562,0 0,2.87109 -17.55859,0 0,-3.28125 13.51562,-15.72265 -13.02734,0 0,-2.8711"
         style="font-size:40px"
         id="path3138" />
      <path
         d="m 314.62544,325.41946 0,1.75782 -16.52343,0 c 0.15624,2.47396 0.89843,4.36198 2.22656,5.66406 1.34113,1.28906 3.20311,1.9336 5.58594,1.93359 1.38019,1e-5 2.71482,-0.16927 4.0039,-0.50781 1.30207,-0.33854 2.59113,-0.84635 3.86719,-1.52344 l 0,3.39844 c -1.28908,0.54688 -2.6107,0.96354 -3.96484,1.25 -1.35419,0.28646 -2.72788,0.42969 -4.1211,0.42969 -3.48959,0 -6.25652,-1.01563 -8.30078,-3.04688 -2.03125,-2.03124 -3.04688,-4.77864 -3.04687,-8.24218 -1e-5,-3.58072 0.96353,-6.41926 2.89062,-8.51563 1.9401,-2.10935 4.55077,-3.16404 7.83203,-3.16406 2.94269,2e-5 5.26691,0.95054 6.97266,2.85156 1.71873,1.88804 2.5781,4.45965 2.57812,7.71484 m -3.59375,-1.05468 c -0.0261,-1.96613 -0.57944,-3.53514 -1.66015,-4.70703 -1.06773,-1.17186 -2.487,-1.7578 -4.25782,-1.75782 -2.00522,2e-5 -3.61329,0.56643 -4.82421,1.69922 -1.19793,1.13283 -1.88803,2.72788 -2.07032,4.78516 l 12.8125,-0.0195"
         style="font-size:40px"
         id="path3141" />
      <path
         d="m 334.91841,318.70071 0,-11.83593 3.59375,0 0,30.39062 -3.59375,0 0,-3.28125 c -0.75522,1.30209 -1.71225,2.27214 -2.87109,2.91016 -1.14585,0.625 -2.52606,0.9375 -4.14063,0.9375 -2.64324,0 -4.79818,-1.05469 -6.46484,-3.16406 -1.65365,-2.10937 -2.48047,-4.88281 -2.48047,-8.32032 0,-3.43748 0.82682,-6.21092 2.48047,-8.32031 1.66666,-2.10935 3.8216,-3.16404 6.46484,-3.16406 1.61457,2e-5 2.99478,0.31903 4.14063,0.95703 1.15884,0.62502 2.11587,1.58856 2.87109,2.89062 m -12.24609,7.63672 c -1e-5,2.64324 0.54036,4.72006 1.62109,6.23047 1.09374,1.4974 2.59114,2.2461 4.49219,2.2461 1.90103,0 3.39842,-0.7487 4.49219,-2.2461 1.09373,-1.51041 1.6406,-3.58723 1.64062,-6.23047 -2e-5,-2.64321 -0.54689,-4.71352 -1.64062,-6.21093 -1.09377,-1.5104 -2.59116,-2.26561 -4.49219,-2.26563 -1.90105,2e-5 -3.39845,0.75523 -4.49219,2.26563 -1.08073,1.49741 -1.6211,3.56772 -1.62109,6.21093"
         style="font-size:40px"
         id="path3143" />
    </g>
    <path
       style="fill:none;stroke:#000000;stroke-width:1.5;stroke-linecap:butt;stroke-linejoin:miter;stroke-miterlimit:4;stroke-opacity:1;stroke-dasharray:none;marker-end:url(#TriangleOutL)"
       d="m 357.5737,325.05235 189.90867,0"
       id="path3140"
       inkscape:connector-curvature="0" />
    <rect
       y="282.72998"
       x="552.93652"
       height="82.624413"
       width="229.09651"
       id="rect4319"
       style="fill:#ffffff;stroke:#000000;stroke-width:2;stroke-linecap:round;stroke-linejoin:round;stroke-miterlimit:4;stroke-dasharray:none" />
    <g
       style="font-size:12px;font-style:normal;font-weight:normal;text-align:center;text-anchor:middle;fill:#000000;fill-opacity:1;stroke:none;font-family:Bitstream Vera Sans"
       id="text4321">
      <path
         d="m 570.7934,308.09525 3.94531,0 0,29.16015 -3.94531,0 0,-29.16015"
         style="font-size:40px"
         id="path3074" />
      <path
         d="m 600.61761,324.05228 0,13.20312 -3.59375,0 0,-13.08594 c -10e-6,-2.07029 -0.40366,-3.61977 -1.21093,-4.64843 -0.80731,-1.02863 -2.01825,-1.54295 -3.63282,-1.54297 -1.94011,2e-5 -3.47006,0.61851 -4.58984,1.85547 -1.1198,1.23699 -1.67969,2.92319 -1.67969,5.05859 l 0,12.36328 -3.61328,0 0,-21.875 3.61328,0 0,3.39844 c 0.85937,-1.31509 1.86848,-2.29816 3.02735,-2.94922 1.17186,-0.65102 2.51952,-0.97654 4.04297,-0.97656 2.513,2e-5 4.41404,0.78127 5.70312,2.34375 1.28904,1.5495 1.93357,3.83465 1.93359,6.85547"
         style="font-size:40px"
         id="path3076" />
      <path
         d="m 607.82465,315.3804 3.59375,0 0,21.875 -3.59375,0 0,-21.875 m 0,-8.51562 3.59375,0 0,4.55078 -3.59375,0 0,-4.55078"
         style="font-size:40px"
         id="path3078" />
      <path
         d="m 622.47308,309.16946 0,6.21094 7.40235,0 0,2.79297 -7.40235,0 0,11.875 c 0,1.78386 0.24088,2.92969 0.72266,3.4375 0.49478,0.50782 1.49088,0.76172 2.98828,0.76172 l 3.69141,0 0,3.00781 -3.69141,0 c -2.77344,0 -4.68751,-0.51432 -5.74219,-1.54297 -1.05469,-1.04166 -1.58203,-2.92968 -1.58203,-5.66406 l 0,-11.875 -2.63672,0 0,-2.79297 2.63672,0 0,-6.21094 3.61328,0"
         style="font-size:40px"
         id="path3080" />
      <path
         d="m 634.62152,315.3804 3.59375,0 0,21.875 -3.59375,0 0,-21.875 m 0,-8.51562 3.59375,0 0,4.55078 -3.59375,0 0,-4.55078"
         style="font-size:40px"
         id="path3082" />
      <path
         d="m 655.65668,326.25931 c -2.90366,10e-6 -4.91538,0.33204 -6.03516,0.99609 -1.1198,0.66407 -1.67969,1.79688 -1.67969,3.39844 0,1.27605 0.41666,2.29167 1.25,3.04687 0.84635,0.74219 1.99218,1.11329 3.4375,1.11329 1.99218,0 3.58723,-0.70313 4.78516,-2.10938 1.21092,-1.41926 1.81639,-3.30077 1.81641,-5.64453 l 0,-0.80078 -3.57422,0 m 7.16797,-1.48438 0,12.48047 -3.59375,0 0,-3.32031 c -0.82033,1.32813 -1.84247,2.3112 -3.06641,2.94922 -1.22397,0.625 -2.72137,0.9375 -4.49219,0.9375 -2.23959,0 -4.02344,-0.625 -5.35156,-1.875 -1.31511,-1.26302 -1.97266,-2.94922 -1.97266,-5.0586 0,-2.46092 0.82031,-4.31639 2.46094,-5.5664 1.65364,-1.24999 4.11458,-1.87499 7.38281,-1.875 l 5.03907,0 0,-0.35156 c -2e-5,-1.65363 -0.5469,-2.92968 -1.64063,-3.82813 -1.08074,-0.91144 -2.60418,-1.36717 -4.57031,-1.36719 -1.25001,2e-5 -2.46746,0.14976 -3.65235,0.44922 -1.1849,0.2995 -2.32422,0.74872 -3.41796,1.34766 l 0,-3.32031 c 1.31509,-0.5078 2.59114,-0.8854 3.82812,-1.13282 1.23697,-0.26039 2.4414,-0.3906 3.61328,-0.39062 3.16405,2e-5 5.52733,0.82033 7.08985,2.46094 1.56248,1.64064 2.34373,4.12762 2.34375,7.46093"
         style="font-size:40px"
         id="path3084" />
      <path
         d="m 670.24652,306.86478 3.59375,0 0,30.39062 -3.59375,0 0,-30.39062"
         style="font-size:40px"
         id="path3086" />
      <path
         d="m 681.34027,315.3804 3.59375,0 0,21.875 -3.59375,0 0,-21.875 m 0,-8.51562 3.59375,0 0,4.55078 -3.59375,0 0,-4.55078"
         style="font-size:40px"
         id="path3088" />
      <path
         d="m 690.87152,315.3804 17.07031,0 0,3.28125 -13.51562,15.72266 13.51562,0 0,2.87109 -17.55859,0 0,-3.28125 13.51562,-15.72265 -13.02734,0 0,-2.8711"
         style="font-size:40px"
         id="path3090" />
      <path
         d="m 713.44965,315.3804 3.59375,0 0,21.875 -3.59375,0 0,-21.875 m 0,-8.51562 3.59375,0 0,4.55078 -3.59375,0 0,-4.55078"
         style="font-size:40px"
         id="path3092" />
      <path
         d="m 742.72699,324.05228 0,13.20312 -3.59375,0 0,-13.08594 c -2e-5,-2.07029 -0.40366,-3.61977 -1.21094,-4.64843 -0.80731,-1.02863 -2.01824,-1.54295 -3.63281,-1.54297 -1.94012,2e-5 -3.47006,0.61851 -4.58984,1.85547 -1.1198,1.23699 -1.6797,2.92319 -1.67969,5.05859 l 0,12.36328 -3.61328,0 0,-21.875 3.61328,0 0,3.39844 c 0.85937,-1.31509 1.86848,-2.29816 3.02734,-2.94922 1.17187,-0.65102 2.51952,-0.97654 4.04297,-0.97656 2.51301,2e-5 4.41404,0.78127 5.70313,2.34375 1.28904,1.5495 1.93357,3.83465 1.93359,6.85547"
         style="font-size:40px"
         id="path3094" />
      <path
         d="m 764.32855,326.064 c -2e-5,-2.60416 -0.54038,-4.62238 -1.62109,-6.05469 -1.06773,-1.43228 -2.57163,-2.14842 -4.51172,-2.14844 -1.92709,2e-5 -3.431,0.71616 -4.51172,2.14844 -1.06771,1.43231 -1.60157,3.45053 -1.60156,6.05469 -10e-6,2.59115 0.53385,4.60287 1.60156,6.03515 1.08072,1.4323 2.58463,2.14844 4.51172,2.14844 1.94009,0 3.44399,-0.71614 4.51172,-2.14844 1.08071,-1.43228 1.62107,-3.444 1.62109,-6.03515 m 3.59375,8.47656 c -2e-5,3.72396 -0.82684,6.49088 -2.48047,8.30078 -1.65366,1.82291 -4.18621,2.73437 -7.59765,2.73437 -1.26303,0 -2.45444,-0.0977 -3.57422,-0.29296 -1.1198,-0.1823 -2.20704,-0.46876 -3.26172,-0.85938 l 0,-3.49609 c 1.05468,0.57291 2.09635,0.99609 3.125,1.26953 1.02864,0.27343 2.07681,0.41015 3.14453,0.41015 2.35676,0 4.12108,-0.61849 5.29297,-1.85546 1.17186,-1.22397 1.75779,-3.07943 1.75781,-5.56641 l 0,-1.77734 c -0.7422,1.28906 -1.69272,2.2526 -2.85156,2.89062 -1.15887,0.63802 -2.54559,0.95703 -4.16016,0.95703 -2.6823,0 -4.84375,-1.02213 -6.48437,-3.0664 -1.64063,-2.04427 -2.46094,-4.7526 -2.46094,-8.125 0,-3.38541 0.82031,-6.10025 2.46094,-8.14454 1.64062,-2.04425 3.80207,-3.06638 6.48437,-3.0664 1.61457,2e-5 3.00129,0.31903 4.16016,0.95703 1.15884,0.63804 2.10936,1.60158 2.85156,2.89062 l 0,-3.32031 3.59375,0 0,19.16016"
         style="font-size:40px"
         id="path3096" />
    </g>
    <rect
       style="fill:#ffffff;stroke:#000000;stroke-width:2;stroke-linecap:round;stroke-linejoin:round;stroke-miterlimit:4;stroke-dasharray:none"
       id="rect4331"
       width="214.9919"
       height="82.661926"
       x="974.91779"
       y="282.71121" />
    <g
       style="font-size:12px;font-style:normal;font-weight:normal;text-align:center;text-anchor:middle;fill:#000000;fill-opacity:1;stroke:none;font-family:Bitstream Vera Sans"
       id="text4333">
      <path
         d="m 989.60596,308.09525 3.94531,0 0,29.16015 -3.94531,0 0,-29.16015"
         style="font-size:40px"
         id="path3020" />
      <path
         d="m 1019.4302,324.05228 0,13.20312 -3.5938,0 0,-13.08594 c 0,-2.07029 -0.4036,-3.61977 -1.2109,-4.64843 -0.8073,-1.02863 -2.0183,-1.54295 -3.6328,-1.54297 -1.9401,2e-5 -3.4701,0.61851 -4.5899,1.85547 -1.1198,1.23699 -1.6797,2.92319 -1.6797,5.05859 l 0,12.36328 -3.6132,0 0,-21.875 3.6132,0 0,3.39844 c 0.8594,-1.31509 1.8685,-2.29816 3.0274,-2.94922 1.1719,-0.65102 2.5195,-0.97654 4.043,-0.97656 2.513,2e-5 4.414,0.78127 5.7031,2.34375 1.289,1.5495 1.9336,3.83465 1.9336,6.85547"
         style="font-size:40px"
         id="path3022" />
      <path
         d="m 1026.6372,315.3804 3.5938,0 0,21.875 -3.5938,0 0,-21.875 m 0,-8.51562 3.5938,0 0,4.55078 -3.5938,0 0,-4.55078"
         style="font-size:40px"
         id="path3024" />
      <path
         d="m 1041.2856,309.16946 0,6.21094 7.4024,0 0,2.79297 -7.4024,0 0,11.875 c 0,1.78386 0.2409,2.92969 0.7227,3.4375 0.4948,0.50782 1.4909,0.76172 2.9883,0.76172 l 3.6914,0 0,3.00781 -3.6914,0 c -2.7735,0 -4.6875,-0.51432 -5.7422,-1.54297 -1.0547,-1.04166 -1.582,-2.92968 -1.582,-5.66406 l 0,-11.875 -2.6368,0 0,-2.79297 2.6368,0 0,-6.21094 3.6132,0"
         style="font-size:40px"
         id="path3026" />
      <path
         d="m 1053.4341,315.3804 3.5937,0 0,21.875 -3.5937,0 0,-21.875 m 0,-8.51562 3.5937,0 0,4.55078 -3.5937,0 0,-4.55078"
         style="font-size:40px"
         id="path3029" />
      <path
         d="m 1074.4692,326.25931 c -2.9036,10e-6 -4.9153,0.33204 -6.0351,0.99609 -1.1198,0.66407 -1.6797,1.79688 -1.6797,3.39844 0,1.27605 0.4167,2.29167 1.25,3.04687 0.8463,0.74219 1.9922,1.11329 3.4375,1.11329 1.9922,0 3.5872,-0.70313 4.7852,-2.10938 1.2109,-1.41926 1.8163,-3.30077 1.8164,-5.64453 l 0,-0.80078 -3.5743,0 m 7.168,-1.48438 0,12.48047 -3.5937,0 0,-3.32031 c -0.8204,1.32813 -1.8425,2.3112 -3.0664,2.94922 -1.224,0.625 -2.7214,0.9375 -4.4922,0.9375 -2.2396,0 -4.0235,-0.625 -5.3516,-1.875 -1.3151,-1.26302 -1.9727,-2.94922 -1.9727,-5.0586 0,-2.46092 0.8204,-4.31639 2.461,-5.5664 1.6536,-1.24999 4.1146,-1.87499 7.3828,-1.875 l 5.0391,0 0,-0.35156 c -10e-5,-1.65363 -0.5469,-2.92968 -1.6407,-3.82813 -1.0807,-0.91144 -2.6041,-1.36717 -4.5703,-1.36719 -1.25,2e-5 -2.4674,0.14976 -3.6523,0.44922 -1.1849,0.2995 -2.3242,0.74872 -3.418,1.34766 l 0,-3.32031 c 1.3151,-0.5078 2.5911,-0.8854 3.8281,-1.13282 1.237,-0.26039 2.4414,-0.3906 3.6133,-0.39062 3.1641,2e-5 5.5273,0.82033 7.0899,2.46094 1.5624,1.64064 2.3437,4.12762 2.3437,7.46093"
         style="font-size:40px"
         id="path3031" />
      <path
         d="m 1089.0591,306.86478 3.5937,0 0,30.39062 -3.5937,0 0,-30.39062"
         style="font-size:40px"
         id="path3033" />
      <path
         d="m 1100.1528,315.3804 3.5938,0 0,21.875 -3.5938,0 0,-21.875 m 0,-8.51562 3.5938,0 0,4.55078 -3.5938,0 0,-4.55078"
         style="font-size:40px"
         id="path3035" />
      <path
         d="m 1109.6841,315.3804 17.0703,0 0,3.28125 -13.5156,15.72266 13.5156,0 0,2.87109 -17.5586,0 0,-3.28125 13.5156,-15.72265 -13.0273,0 0,-2.8711"
         style="font-size:40px"
         id="path3037" />
      <path
         d="m 1150.9731,325.41946 0,1.75782 -16.5234,0 c 0.1563,2.47396 0.8984,4.36198 2.2266,5.66406 1.3411,1.28906 3.2031,1.9336 5.5859,1.93359 1.3802,1e-5 2.7148,-0.16927 4.0039,-0.50781 1.3021,-0.33854 2.5911,-0.84635 3.8672,-1.52344 l 0,3.39844 c -1.2891,0.54688 -2.6107,0.96354 -3.9648,1.25 -1.3542,0.28646 -2.7279,0.42969 -4.1211,0.42969 -3.4896,0 -6.2566,-1.01563 -8.3008,-3.04688 -2.0313,-2.03124 -3.0469,-4.77864 -3.0469,-8.24218 0,-3.58072 0.9635,-6.41926 2.8906,-8.51563 1.9401,-2.10935 4.5508,-3.16404 7.8321,-3.16406 2.9427,2e-5 5.2669,0.95054 6.9726,2.85156 1.7187,1.88804 2.5781,4.45965 2.5781,7.71484 m -3.5937,-1.05468 c -0.026,-1.96613 -0.5795,-3.53514 -1.6602,-4.70703 -1.0677,-1.17186 -2.487,-1.7578 -4.2578,-1.75782 -2.0052,2e-5 -3.6133,0.56643 -4.8242,1.69922 -1.1979,1.13283 -1.888,2.72788 -2.0703,4.78516 l 12.8125,-0.0195"
         style="font-size:40px"
         id="path3039" />
      <path
         d="m 1171.2661,318.70071 0,-11.83593 3.5938,0 0,30.39062 -3.5938,0 0,-3.28125 c -0.7552,1.30209 -1.7122,2.27214 -2.8711,2.91016 -1.1458,0.625 -2.526,0.9375 -4.1406,0.9375 -2.6432,0 -4.7982,-1.05469 -6.4648,-3.16406 -1.6537,-2.10937 -2.4805,-4.88281 -2.4805,-8.32032 0,-3.43748 0.8268,-6.21092 2.4805,-8.32031 1.6666,-2.10935 3.8216,-3.16404 6.4648,-3.16406 1.6146,2e-5 2.9948,0.31903 4.1406,0.95703 1.1589,0.62502 2.1159,1.58856 2.8711,2.89062 m -12.2461,7.63672 c 0,2.64324 0.5404,4.72006 1.6211,6.23047 1.0938,1.4974 2.5911,2.2461 4.4922,2.2461 1.901,0 3.3984,-0.7487 4.4922,-2.2461 1.0937,-1.51041 1.6406,-3.58723 1.6406,-6.23047 0,-2.64321 -0.5469,-4.71352 -1.6406,-6.21093 -1.0938,-1.5104 -2.5912,-2.26561 -4.4922,-2.26563 -1.9011,2e-5 -3.3984,0.75523 -4.4922,2.26563 -1.0807,1.49741 -1.6211,3.56772 -1.6211,6.21093"
         style="font-size:40px"
         id="path3041" />
    </g>
    <g
       style="font-size:28.04614258px;font-style:normal;font-weight:normal;text-align:center;text-anchor:middle;fill:#000000;fill-opacity:1;stroke:none;font-family:Bitstream Vera Sans"
       id="text4339">
      <path
         d="m 811.14536,286.07005 0,1.97199 -0.84905,0 c -2.27328,0 -3.79792,-0.3378 -4.57393,-1.01339 -0.76689,-0.67559 -1.15034,-2.0222 -1.15033,-4.03985 l 0,-3.27296 c -10e-6,-1.37856 -0.24651,-2.33261 -0.7395,-2.86213 -0.493,-0.52951 -1.3877,-0.79427 -2.6841,-0.79427 l -0.83536,0 0,-1.9583 0.83536,0 c 1.30553,1e-5 2.20023,-0.26019 2.6841,-0.78059 0.49299,-0.5295 0.73949,-1.47441 0.7395,-2.83474 l 0,-3.28665 c -10e-6,-2.01763 0.38344,-3.35968 1.15033,-4.02616 0.77601,-0.67557 2.30065,-1.01336 4.57393,-1.01339 l 0.84905,0 0,1.9583 -0.93121,0 c -1.28729,2e-5 -2.12721,0.20087 -2.51978,0.60256 -0.39258,0.40172 -0.58887,1.24621 -0.58885,2.53346 l 0,3.39622 c -2e-5,1.43335 -0.21,2.47413 -0.62995,3.12232 -0.41084,0.64821 -1.11838,1.08643 -2.12263,1.31466 1.01338,0.24651 1.72549,0.69386 2.13633,1.34205 0.41082,0.64821 0.61623,1.68442 0.61625,3.10863 l 0,3.39622 c -2e-5,1.28727 0.19627,2.13176 0.58885,2.53346 0.39257,0.4017 1.23249,0.60255 2.51978,0.60256 l 0.93121,0"
         style=""
         id="path3055" />
      <path
         d="m 820.18367,273.704 0,7.49084 4.43699,0 c 1.48811,0 2.58823,-0.30584 3.30035,-0.91753 0.72123,-0.62081 1.08185,-1.56572 1.08186,-2.83474 -10e-6,-1.27814 -0.36063,-2.21848 -1.08186,-2.82105 -0.71212,-0.61167 -1.81224,-0.91751 -3.30035,-0.91752 l -4.43699,0 m 0,-8.40837 0,6.16249 4.09463,0 c 1.35117,10e-6 2.35543,-0.25106 3.01277,-0.7532 0.66645,-0.51124 0.99968,-1.28726 0.99969,-2.32805 -10e-6,-1.03162 -0.33324,-1.80308 -0.99969,-2.31435 -0.65734,-0.51124 -1.6616,-0.76687 -3.01277,-0.76689 l -4.09463,0 m -2.76627,-2.27327 7.06632,0 c 2.10892,2e-5 3.73399,0.43824 4.87521,1.31466 1.14118,0.87646 1.71178,2.12265 1.7118,3.73858 -2e-5,1.25077 -0.29217,2.24589 -0.87645,2.98538 -0.58431,0.73951 -1.44249,1.20055 -2.57454,1.38313 1.36029,0.29216 2.41476,0.90384 3.1634,1.83505 0.75774,0.9221 1.13662,2.07699 1.13664,3.46469 -2e-5,1.82592 -0.62083,3.23644 -1.86244,4.23157 -1.24164,0.99513 -3.00822,1.49269 -5.29974,1.49269 l -7.3402,0 0,-20.44575"
         style=""
         id="path3057" />
      <path
         d="m 844.45016,264.8985 c -2.00852,10e-6 -3.6062,0.74864 -4.79304,2.24588 -1.17772,1.49727 -1.76658,3.53773 -1.76658,6.1214 0,2.57455 0.58886,4.61045 1.76658,6.1077 1.18684,1.49726 2.78452,2.24589 4.79304,2.24588 2.0085,1e-5 3.59705,-0.74862 4.76565,-2.24588 1.17771,-1.49725 1.76656,-3.53315 1.76658,-6.1077 -2e-5,-2.58367 -0.58887,-4.62413 -1.76658,-6.1214 -1.1686,-1.49724 -2.75715,-2.24587 -4.76565,-2.24588 m 0,-2.24589 c 2.86668,2e-5 5.15821,0.9632 6.87459,2.88952 1.71635,1.91724 2.57453,4.49178 2.57455,7.72365 -2e-5,3.22275 -0.8582,5.7973 -2.57455,7.72364 -1.71638,1.91722 -4.00791,2.87583 -6.87459,2.87583 -2.87583,0 -5.17649,-0.95861 -6.90198,-2.87583 -1.71637,-1.91721 -2.57455,-4.49176 -2.57455,-7.72364 0,-3.23187 0.85818,-5.80641 2.57455,-7.72365 1.72549,-1.92632 4.02615,-2.8895 6.90198,-2.88952"
         style=""
         id="path3059" />
      <path
         d="m 858.22673,263.02236 3.72488,0 9.0657,17.10431 0,-17.10431 2.6841,0 0,20.44575 -3.72488,0 -9.06569,-17.10431 0,17.10431 -2.68411,0 0,-20.44575"
         style=""
         id="path3061" />
      <path
         d="m 879.20657,263.02236 2.76627,0 0,19.02153 c -10e-6,2.46499 -0.47018,4.25439 -1.41053,5.36821 -0.93122,1.1138 -2.43304,1.67071 -4.50546,1.67072 l -1.05447,0 0,-2.32805 0.86275,0 c 1.22337,-1e-5 2.08611,-0.34237 2.58824,-1.02708 0.50213,-0.68473 0.75319,-1.91266 0.7532,-3.6838 l 0,-19.02153"
         style=""
         id="path3063" />
      <path
         d="m 895.7768,264.8985 c -2.00852,10e-6 -3.6062,0.74864 -4.79304,2.24588 -1.17773,1.49727 -1.76659,3.53773 -1.76658,6.1214 -10e-6,2.57455 0.58885,4.61045 1.76658,6.1077 1.18684,1.49726 2.78452,2.24589 4.79304,2.24588 2.0085,1e-5 3.59705,-0.74862 4.76565,-2.24588 1.1777,-1.49725 1.76656,-3.53315 1.76658,-6.1077 -2e-5,-2.58367 -0.58888,-4.62413 -1.76658,-6.1214 -1.1686,-1.49724 -2.75715,-2.24587 -4.76565,-2.24588 m 0,-2.24589 c 2.86668,2e-5 5.15821,0.9632 6.87459,2.88952 1.71635,1.91724 2.57453,4.49178 2.57455,7.72365 -2e-5,3.22275 -0.8582,5.7973 -2.57455,7.72364 -1.71638,1.91722 -4.00791,2.87583 -6.87459,2.87583 -2.87583,0 -5.17649,-0.95861 -6.90198,-2.87583 -1.71637,-1.91721 -2.57455,-4.49176 -2.57455,-7.72364 0,-3.23187 0.85818,-5.80641 2.57455,-7.72365 1.72549,-1.92632 4.02615,-2.8895 6.90198,-2.88952"
         style=""
         id="path3065" />
      <path
         d="m 909.2384,263.02236 2.77996,0 0,12.42083 c -10e-6,2.19111 0.39713,3.77053 1.19141,4.73826 0.79427,0.95861 2.08154,1.43792 3.86183,1.43791 1.77113,1e-5 3.05383,-0.4793 3.84812,-1.43791 0.79426,-0.96773 1.1914,-2.54715 1.19142,-4.73826 l 0,-12.42083 2.77996,0 0,12.76319 c -2e-5,2.66585 -0.66191,4.67892 -1.98569,6.03923 -1.31468,1.36031 -3.25928,2.04047 -5.83381,2.04047 -2.58369,0 -4.53742,-0.68016 -5.86121,-2.04047 -1.31467,-1.36031 -1.972,-3.37338 -1.97199,-6.03923 l 0,-12.76319"
         style=""
         id="path3067" />
      <path
         d="m 939.79062,273.88203 c 0.59341,0.20086 1.16857,0.62995 1.72549,1.28727 0.56602,0.65734 1.13206,1.56117 1.69811,2.71149 l 2.80735,5.58732 -2.97168,0 -2.61564,-5.24496 c -0.6756,-1.36943 -1.33293,-2.27783 -1.97199,-2.72518 -0.62995,-0.44735 -1.4927,-0.67102 -2.58824,-0.67103 l -3.01277,0 0,8.64117 -2.76627,0 0,-20.44575 6.24465,0 c 2.33716,2e-5 4.08092,0.48846 5.23126,1.4653 1.15031,0.97689 1.72548,2.45132 1.72549,4.4233 -10e-6,1.28728 -0.30129,2.35545 -0.90383,3.20449 -0.59343,0.84906 -1.46075,1.43792 -2.60193,1.76658 m -6.92937,-8.5864 0,7.25804 3.47838,0 c 1.33291,10e-6 2.33716,-0.30583 3.01277,-0.91753 0.6847,-0.6208 1.02706,-1.52919 1.02708,-2.72518 -2e-5,-1.19597 -0.34238,-2.09523 -1.02708,-2.6978 -0.67561,-0.61167 -1.67986,-0.91751 -3.01277,-0.91753 l -3.47838,0"
         style=""
         id="path3069" />
      <path
         d="m 950.34901,286.07005 0.95861,0 c 1.27814,-10e-6 2.10893,-0.19629 2.49238,-0.58886 0.39257,-0.39258 0.58885,-1.24163 0.58886,-2.54716 l 0,-3.39622 c -10e-6,-1.42421 0.20541,-2.46042 0.61625,-3.10863 0.41082,-0.64819 1.12293,-1.09554 2.13632,-1.34205 -1.01339,-0.22823 -1.7255,-0.66645 -2.13632,-1.31466 -0.41084,-0.64819 -0.61626,-1.68897 -0.61625,-3.12232 l 0,-3.39622 c -10e-6,-1.29638 -0.19629,-2.14087 -0.58886,-2.53346 -0.38345,-0.40169 -1.21424,-0.60254 -2.49238,-0.60256 l -0.95861,0 0,-1.9583 0.86275,0 c 2.27326,3e-5 3.78877,0.33782 4.54654,1.01339 0.76688,0.66648 1.15032,2.00853 1.15033,4.02616 l 0,3.28665 c -10e-6,1.36033 0.24649,2.30524 0.7395,2.83474 0.49298,0.5204 1.38769,0.7806 2.6841,0.78059 l 0.84905,0 0,1.9583 -0.84905,0 c -1.29641,0 -2.19112,0.26476 -2.6841,0.79427 -0.49301,0.52952 -0.73951,1.48357 -0.7395,2.86213 l 0,3.27296 c -10e-6,2.01765 -0.38345,3.36426 -1.15033,4.03985 -0.75777,0.67559 -2.27328,1.01339 -4.54654,1.01339 l -0.86275,0 0,-1.97199"
         style=""
         id="path3071" />
    </g>
    <path
       style="fill:none;stroke:#000000;stroke-width:1.5;stroke-linecap:butt;stroke-linejoin:miter;stroke-miterlimit:4;stroke-opacity:1;stroke-dasharray:none;marker-end:url(#TriangleOutL)"
       d="m 780.88853,319.07266 c 111.11678,-55.55839 188.89852,-2.02031 188.89852,-2.02031"
       id="path4347"
       inkscape:connector-curvature="0" />
    <path
       id="path4353"
       d="m 973.8884,328.06914 c -109.65348,55.73498 -186.4109,2.02674 -186.4109,2.02674"
       style="fill:none;stroke:#000000;stroke-width:1.5;stroke-linecap:butt;stroke-linejoin:miter;stroke-miterlimit:4;stroke-opacity:1;stroke-dasharray:none;marker-end:url(#TriangleOutL)"
       inkscape:connector-curvature="0" />
    <rect
       y="474.659"
       x="523.86816"
       height="82.624413"
       width="229.09651"
       id="rect4355"
       style="fill:#ffffff;stroke:#000000;stroke-width:2;stroke-linecap:round;stroke-linejoin:round;stroke-miterlimit:4;stroke-dasharray:none" />
    <g
       style="font-size:12px;font-style:normal;font-weight:normal;text-align:center;text-anchor:middle;fill:#000000;fill-opacity:1;stroke:none;font-family:Bitstream Vera Sans"
       id="text4357">
      <path
         d="m 541.77191,507.26642 0,22.67578 4.76563,0 c 4.02342,0 6.96612,-0.91145 8.82812,-2.73438 1.87498,-1.8229 2.81248,-4.70051 2.8125,-8.63281 -2e-5,-3.90623 -0.93752,-6.7643 -2.8125,-8.57422 -1.862,-1.82289 -4.8047,-2.73435 -8.82812,-2.73437 l -4.76563,0 m -3.94531,-3.24219 8.10547,0 c 5.65102,3e-5 9.79815,1.17841 12.4414,3.53516 2.64321,2.34377 3.96482,6.01564 3.96485,11.01562 -3e-5,5.02605 -1.32815,8.71746 -3.98438,11.07422 -2.65627,2.35677 -6.79689,3.53516 -12.42187,3.53516 l -8.10547,0 0,-29.16016"
         style="font-size:40px"
         id="path3099" />
      <path
         d="m 587.16254,521.34845 0,1.75781 -16.52344,0 c 0.15624,2.47397 0.89843,4.36199 2.22656,5.66406 1.34114,1.28907 3.20312,1.9336 5.58594,1.9336 1.38019,0 2.71483,-0.16927 4.00391,-0.50781 1.30206,-0.33854 2.59112,-0.84635 3.86718,-1.52344 l 0,3.39844 c -1.28908,0.54687 -2.61069,0.96354 -3.96484,1.25 -1.35418,0.28645 -2.72788,0.42968 -4.12109,0.42968 -3.4896,0 -6.25652,-1.01562 -8.30079,-3.04687 -2.03125,-2.03125 -3.04687,-4.77864 -3.04687,-8.24219 0,-3.58071 0.96354,-6.41925 2.89062,-8.51562 1.9401,-2.10936 4.55078,-3.16404 7.83204,-3.16407 2.94269,3e-5 5.2669,0.95055 6.97265,2.85157 1.71873,1.88803 2.5781,4.45965 2.57813,7.71484 m -3.59375,-1.05469 c -0.0261,-1.96613 -0.57945,-3.53514 -1.66016,-4.70703 -1.06772,-1.17186 -2.48699,-1.75779 -4.25781,-1.75781 -2.00522,2e-5 -3.61329,0.56642 -4.82422,1.69922 -1.19792,1.13283 -1.88803,2.72788 -2.07031,4.78515 l 12.8125,-0.0195"
         style="font-size:40px"
         id="path3101" />
      <path
         d="m 607.00629,511.95392 0,3.39844 c -1.01565,-0.52082 -2.07033,-0.91144 -3.16407,-1.17188 -1.09376,-0.2604 -2.22657,-0.3906 -3.39843,-0.39062 -1.78387,2e-5 -3.12501,0.27345 -4.02344,0.82031 -0.88542,0.54689 -1.32813,1.3672 -1.32813,2.46094 0,0.83334 0.31901,1.4909 0.95704,1.97265 0.63801,0.46877 1.92056,0.91798 3.84765,1.34766 l 1.23047,0.27344 c 2.55207,0.54688 4.36196,1.32162 5.42969,2.32421 1.08071,0.9896 1.62107,2.37631 1.62109,4.16016 -2e-5,2.03125 -0.80731,3.63933 -2.42187,4.82422 -1.60158,1.1849 -3.80861,1.77734 -6.6211,1.77734 -1.17188,0 -2.39584,-0.11718 -3.67187,-0.35156 -1.26303,-0.22135 -2.59766,-0.55989 -4.00391,-1.01562 l 0,-3.71094 c 1.32812,0.69011 2.63672,1.21094 3.92578,1.5625 1.28906,0.33854 2.5651,0.50781 3.82813,0.50781 1.69269,0 2.99478,-0.28645 3.90625,-0.85937 0.91144,-0.58594 1.36717,-1.40625 1.36719,-2.46094 -2e-5,-0.97656 -0.33205,-1.72525 -0.9961,-2.2461 -0.65105,-0.52082 -2.08985,-1.02212 -4.3164,-1.5039 l -1.25,-0.29297 c -2.22657,-0.46874 -3.83464,-1.18489 -4.82422,-2.14844 -0.98959,-0.97655 -1.48438,-2.31118 -1.48438,-4.0039 0,-2.05728 0.72917,-3.64582 2.1875,-4.76563 1.45833,-1.11977 3.52864,-1.67966 6.21094,-1.67969 1.32811,3e-5 2.57811,0.0977 3.75,0.29297 1.17186,0.19534 2.25259,0.48831 3.24219,0.87891"
         style="font-size:40px"
         id="path3103" />
      <path
         d="m 617.47504,505.09845 0,6.21094 7.40234,0 0,2.79297 -7.40234,0 0,11.875 c -1e-5,1.78386 0.24087,2.92969 0.72265,3.4375 0.49479,0.50781 1.49088,0.76172 2.98828,0.76171 l 3.69141,0 0,3.00782 -3.69141,0 c -2.77344,0 -4.6875,-0.51433 -5.74218,-1.54297 -1.0547,-1.04167 -1.58204,-2.92968 -1.58203,-5.66406 l 0,-11.875 -2.63672,0 0,-2.79297 2.63672,0 0,-6.21094 3.61328,0"
         style="font-size:40px"
         id="path3105" />
      <path
         d="m 642.29926,514.66876 c -0.40367,-0.23435 -0.84637,-0.40362 -1.32813,-0.50781 -0.46876,-0.11717 -0.9896,-0.17576 -1.5625,-0.17578 -2.03126,2e-5 -3.59376,0.66408 -4.6875,1.99219 -1.08074,1.31512 -1.6211,3.20965 -1.62109,5.68359 l 0,11.52344 -3.61328,0 0,-21.875 3.61328,0 0,3.39843 c 0.7552,-1.3281 1.73827,-2.31117 2.94922,-2.94921 1.21092,-0.65102 2.68227,-0.97654 4.41406,-0.97657 0.24738,3e-5 0.52082,0.0196 0.82031,0.0586 0.29946,0.0261 0.63149,0.0716 0.99609,0.13672 l 0.0195,3.6914"
         style="font-size:40px"
         id="path3107" />
      <path
         d="m 653.72504,513.82892 c -1.9271,2e-5 -3.45053,0.75523 -4.57032,2.26562 -1.11979,1.49741 -1.67969,3.5547 -1.67968,6.17188 -1e-5,2.61719 0.55338,4.68099 1.66015,6.1914 1.11979,1.4974 2.64973,2.2461 4.58985,2.2461 1.91404,0 3.43097,-0.75521 4.55078,-2.26563 1.11977,-1.51041 1.67967,-3.5677 1.67969,-6.17187 -2e-5,-2.59113 -0.55992,-4.64191 -1.67969,-6.15235 -1.11981,-1.52341 -2.63674,-2.28513 -4.55078,-2.28515 m 0,-3.04688 c 3.12498,3e-5 5.57941,1.01565 7.36328,3.04688 1.78383,2.03127 2.67576,4.84376 2.67578,8.4375 -2e-5,3.58073 -0.89195,6.39323 -2.67578,8.4375 -1.78387,2.03125 -4.2383,3.04687 -7.36328,3.04687 -3.13803,0 -5.59897,-1.01562 -7.38282,-3.04687 -1.77083,-2.04427 -2.65625,-4.85677 -2.65625,-8.4375 0,-3.59374 0.88542,-6.40623 2.65625,-8.4375 1.78385,-2.03123 4.24479,-3.04685 7.38282,-3.04688"
         style="font-size:40px"
         id="path3109" />
      <path
         d="m 678.80316,535.21564 c -1.01564,2.60416 -2.00522,4.30338 -2.96875,5.09765 -0.96355,0.79427 -2.25261,1.1914 -3.86719,1.19141 l -2.87109,0 0,-3.00781 2.10938,0 c 0.98957,-10e-6 1.7578,-0.23438 2.30468,-0.70313 0.54687,-0.46875 1.15234,-1.57552 1.81641,-3.32031 l 0.64453,-1.64063 -8.84766,-21.52343 3.8086,0 6.83594,17.10937 6.83593,-17.10937 3.8086,0 -9.60938,23.90625"
         style="font-size:40px"
         id="path3111" />
      <path
         d="m 712.08441,521.34845 0,1.75781 -16.52344,0 c 0.15625,2.47397 0.89843,4.36199 2.22657,5.66406 1.34113,1.28907 3.20311,1.9336 5.58593,1.9336 1.3802,0 2.71483,-0.16927 4.00391,-0.50781 1.30206,-0.33854 2.59113,-0.84635 3.86719,-1.52344 l 0,3.39844 c -1.28908,0.54687 -2.6107,0.96354 -3.96485,1.25 -1.35418,0.28645 -2.72788,0.42968 -4.12109,0.42968 -3.48959,0 -6.25652,-1.01562 -8.30078,-3.04687 -2.03125,-2.03125 -3.04688,-4.77864 -3.04688,-8.24219 0,-3.58071 0.96354,-6.41925 2.89063,-8.51562 1.9401,-2.10936 4.55077,-3.16404 7.83203,-3.16407 2.94269,3e-5 5.26691,0.95055 6.97266,2.85157 1.71872,1.88803 2.5781,4.45965 2.57812,7.71484 m -3.59375,-1.05469 c -0.0261,-1.96613 -0.57944,-3.53514 -1.66015,-4.70703 -1.06773,-1.17186 -2.487,-1.75779 -4.25782,-1.75781 -2.00522,2e-5 -3.61329,0.56642 -4.82422,1.69922 -1.19792,1.13283 -1.88802,2.72788 -2.07031,4.78515 l 12.8125,-0.0195"
         style="font-size:40px"
         id="path3113" />
      <path
         d="m 732.37738,514.6297 0,-11.83594 3.59375,0 0,30.39063 -3.59375,0 0,-3.28125 c -0.75523,1.30208 -1.71226,2.27213 -2.87109,2.91015 -1.14585,0.625 -2.52606,0.9375 -4.14063,0.9375 -2.64324,0 -4.79818,-1.05468 -6.46484,-3.16406 -1.65365,-2.10937 -2.48047,-4.8828 -2.48047,-8.32031 0,-3.43749 0.82682,-6.21092 2.48047,-8.32031 1.66666,-2.10936 3.8216,-3.16404 6.46484,-3.16407 1.61457,3e-5 2.99478,0.31904 4.14063,0.95703 1.15883,0.62503 2.11586,1.58857 2.87109,2.89063 m -12.24609,7.63672 c -1e-5,2.64324 0.54035,4.72006 1.62109,6.23047 1.09374,1.4974 2.59114,2.24609 4.49219,2.24609 1.90103,0 3.39842,-0.74869 4.49219,-2.24609 1.09373,-1.51041 1.6406,-3.58723 1.64062,-6.23047 -2e-5,-2.64322 -0.54689,-4.71353 -1.64062,-6.21094 -1.09377,-1.5104 -2.59116,-2.2656 -4.49219,-2.26562 -1.90105,2e-5 -3.39845,0.75522 -4.49219,2.26562 -1.08074,1.49741 -1.6211,3.56772 -1.62109,6.21094"
         style="font-size:40px"
         id="path3115" />
    </g>
    <path
       style="fill:none;stroke:#000000;stroke-width:1.5;stroke-linecap:butt;stroke-linejoin:miter;stroke-miterlimit:4;stroke-opacity:1;stroke-dasharray:none;marker-end:url(#TriangleOutL)"
       d="M 337.46749,366.49384 518.77553,492.79498"
       id="path4361"
       inkscape:connector-curvature="0" />
    <path
       style="fill:none;stroke:#000000;stroke-width:1.5;stroke-linecap:butt;stroke-linejoin:miter;stroke-miterlimit:4;stroke-opacity:1;stroke-dasharray:none;marker-end:url(#TriangleOutL)"
       d="m 631.26737,367.06387 -0.24065,102.07516"
       id="path4363"
       inkscape:connector-curvature="0" />
    <g
       style="font-size:28.04614258px;font-style:normal;font-weight:normal;text-align:center;text-anchor:middle;fill:#000000;fill-opacity:1;stroke:none;font-family:Bitstream Vera Sans"
       id="text4343-5">
      <path
         d="m 847.84988,388.59013 0,1.97199 -0.84906,0 c -2.27328,0 -3.79792,-0.3378 -4.57393,-1.01338 -0.76689,-0.6756 -1.15034,-2.02221 -1.15033,-4.03985 l 0,-3.27297 c -10e-6,-1.37856 -0.2465,-2.33261 -0.7395,-2.86213 -0.493,-0.52951 -1.3877,-0.79427 -2.6841,-0.79427 l -0.83536,0 0,-1.9583 0.83536,0 c 1.30553,1e-5 2.20023,-0.26019 2.6841,-0.78058 0.493,-0.52951 0.73949,-1.47442 0.7395,-2.83475 l 0,-3.28665 c -10e-6,-2.01763 0.38344,-3.35968 1.15033,-4.02616 0.77601,-0.67557 2.30065,-1.01336 4.57393,-1.01339 l 0.84906,0 0,1.9583 -0.93122,0 c -1.28729,2e-5 -2.12721,0.20088 -2.51977,0.60256 -0.39259,0.40172 -0.58887,1.24621 -0.58886,2.53346 l 0,3.39622 c -10e-6,1.43336 -0.20999,2.47413 -0.62995,3.12232 -0.41084,0.64821 -1.11838,1.08643 -2.12263,1.31466 1.01338,0.24651 1.72549,0.69386 2.13633,1.34206 0.41082,0.6482 0.61624,1.68441 0.61625,3.10863 l 0,3.39621 c -10e-6,1.28727 0.19627,2.13176 0.58886,2.53346 0.39256,0.4017 1.23248,0.60255 2.51977,0.60256 l 0.93122,0"
         style=""
         id="path3044" />
      <path
         d="m 856.88819,376.22408 0,7.49084 4.43698,0 c 1.48812,0 2.58823,-0.30584 3.30035,-0.91753 0.72123,-0.62081 1.08185,-1.56572 1.08186,-2.83474 -10e-6,-1.27814 -0.36063,-2.21848 -1.08186,-2.82105 -0.71212,-0.61167 -1.81223,-0.91751 -3.30035,-0.91752 l -4.43698,0 m 0,-8.40837 0,6.16249 4.09462,0 c 1.35117,10e-6 2.35543,-0.25106 3.01277,-0.7532 0.66645,-0.51124 0.99968,-1.28726 0.99969,-2.32805 -10e-6,-1.03162 -0.33324,-1.80308 -0.99969,-2.31435 -0.65734,-0.51124 -1.6616,-0.76687 -3.01277,-0.76689 l -4.09462,0 m -2.76627,-2.27327 7.06631,0 c 2.10893,2e-5 3.73399,0.43824 4.87521,1.31467 1.14118,0.87646 1.71178,2.12265 1.7118,3.73857 -2e-5,1.25077 -0.29217,2.24589 -0.87644,2.98538 -0.58431,0.73951 -1.4425,1.20055 -2.57455,1.38313 1.36029,0.29216 2.41476,0.90384 3.16341,1.83505 0.75774,0.9221 1.13661,2.077 1.13663,3.46469 -2e-5,1.82592 -0.62083,3.23645 -1.86244,4.23157 -1.24164,0.99513 -3.00822,1.49269 -5.29973,1.49269 l -7.3402,0 0,-20.44575"
         style=""
         id="path3046" />
      <path
         d="m 869.00773,365.54244 2.97169,0 5.66948,8.40837 5.62841,-8.40837 2.97168,0 -7.23064,10.70903 0,9.73672 -2.77997,0 0,-9.73672 -7.23065,-10.70903"
         style=""
         id="path3048" />
      <path
         d="m 888.96049,365.54244 12.92751,0 0,2.32805 -10.16124,0 0,6.05293 9.73672,0 0,2.32805 -9.73672,0 0,7.40867 10.40774,0 0,2.32805 -13.17401,0 0,-20.44575"
         style=""
         id="path3050" />
      <path
         d="m 907.46163,388.59013 0.9586,0 c 1.27814,-10e-6 2.10894,-0.19629 2.49239,-0.58886 0.39256,-0.39258 0.58885,-1.24163 0.58885,-2.54716 l 0,-3.39621 c 0,-1.42422 0.20541,-2.46043 0.61625,-3.10863 0.41083,-0.6482 1.12293,-1.09555 2.13633,-1.34206 -1.0134,-0.22823 -1.7255,-0.66645 -2.13633,-1.31466 -0.41084,-0.64819 -0.61625,-1.68896 -0.61625,-3.12232 l 0,-3.39622 c 0,-1.29638 -0.19629,-2.14087 -0.58885,-2.53346 -0.38345,-0.40168 -1.21425,-0.60254 -2.49239,-0.60256 l -0.9586,0 0,-1.9583 0.86274,0 c 2.27327,3e-5 3.78878,0.33782 4.54655,1.01339 0.76687,0.66648 1.15032,2.00853 1.15033,4.02616 l 0,3.28665 c -10e-6,1.36033 0.24648,2.30524 0.73949,2.83475 0.49299,0.52039 1.38769,0.78059 2.68411,0.78058 l 0.84905,0 0,1.9583 -0.84905,0 c -1.29642,0 -2.19112,0.26476 -2.68411,0.79427 -0.49301,0.52952 -0.7395,1.48357 -0.73949,2.86213 l 0,3.27297 c -10e-6,2.01764 -0.38346,3.36425 -1.15033,4.03985 -0.75777,0.67558 -2.27328,1.01338 -4.54655,1.01338 l -0.86274,0 0,-1.97199"
         style=""
         id="path3052" />
    </g>
    <path
       id="path3028"
       d="M 1048.2116,365.78967 761.23192,504.03563"
       style="fill:none;stroke:#000000;stroke-width:1.5;stroke-linecap:butt;stroke-linejoin:miter;stroke-miterlimit:4;stroke-opacity:1;stroke-dasharray:none;marker-end:url(#TriangleOutL)"
       inkscape:connector-curvature="0" />
    <g
       style="font-size:28.04614258px;font-style:normal;font-weight:normal;fill:#000000;fill-opacity:1;stroke:none;font-family:Bitstream Vera Sans"
       id="text4343-5-1">
      <path
         d="m 923.001,469.48353 0,1.97199 -0.84905,0 c -2.27329,0 -3.79793,-0.3378 -4.57393,-1.01338 -0.7669,-0.6756 -1.15034,-2.02221 -1.15033,-4.03985 l 0,-3.27297 c -10e-6,-1.37856 -0.24651,-2.3326 -0.7395,-2.86213 -0.49301,-0.52951 -1.38771,-0.79426 -2.68411,-0.79427 l -0.83535,0 0,-1.9583 0.83535,0 c 1.30553,1e-5 2.20023,-0.26019 2.68411,-0.78058 0.49299,-0.52951 0.73949,-1.47442 0.7395,-2.83474 l 0,-3.28666 c -10e-6,-2.01763 0.38343,-3.35968 1.15033,-4.02616 0.776,-0.67557 2.30064,-1.01336 4.57393,-1.01338 l 0.84905,0 0,1.9583 -0.93122,0 c -1.28729,2e-5 -2.12721,0.20087 -2.51977,0.60255 -0.39258,0.40172 -0.58887,1.24621 -0.58886,2.53347 l 0,3.39621 c -10e-6,1.43336 -0.20999,2.47413 -0.62994,3.12232 -0.41084,0.64821 -1.11839,1.08643 -2.12264,1.31467 1.01338,0.2465 1.72549,0.69385 2.13633,1.34205 0.41082,0.64821 0.61624,1.68441 0.61625,3.10863 l 0,3.39621 c -10e-6,1.28727 0.19628,2.13176 0.58886,2.53347 0.39256,0.4017 1.23248,0.60255 2.51977,0.60255 l 0.93122,0"
         style="text-align:center;text-anchor:middle"
         id="path3009" />
      <path
         d="m 932.03931,457.11748 0,7.49084 4.43699,0 c 1.48811,0 2.58823,-0.30584 3.30035,-0.91752 0.72122,-0.62081 1.08184,-1.56573 1.08186,-2.83475 -2e-5,-1.27813 -0.36064,-2.21848 -1.08186,-2.82104 -0.71212,-0.61168 -1.81224,-0.91752 -3.30035,-0.91753 l -4.43699,0 m 0,-8.40836 0,6.16248 4.09463,0 c 1.35117,10e-6 2.35542,-0.25105 3.01276,-0.75319 0.66645,-0.51125 0.99968,-1.28726 0.9997,-2.32805 -2e-5,-1.03163 -0.33325,-1.80308 -0.9997,-2.31436 -0.65734,-0.51124 -1.66159,-0.76687 -3.01276,-0.76688 l -4.09463,0 m -2.76627,-2.27328 7.06631,0 c 2.10893,2e-5 3.734,0.43825 4.87521,1.31467 1.14118,0.87646 1.71178,2.12265 1.7118,3.73857 -2e-5,1.25077 -0.29216,2.2459 -0.87644,2.98538 -0.58431,0.73951 -1.44249,1.20055 -2.57455,1.38314 1.3603,0.29215 2.41477,0.90384 3.16341,1.83505 0.75774,0.92209 1.13662,2.07699 1.13663,3.46468 -10e-6,1.82592 -0.62083,3.23645 -1.86244,4.23157 -1.24164,0.99513 -3.00821,1.49269 -5.29973,1.49269 l -7.3402,0 0,-20.44575"
         style="text-align:center;text-anchor:middle"
         id="path3011" />
      <path
         d="m 944.15886,446.43584 2.97168,0 5.66949,8.40837 5.6284,-8.40837 2.97168,0 -7.23064,10.70903 0,9.73672 -2.77997,0 0,-9.73672 -7.23064,-10.70903"
         style="text-align:center;text-anchor:middle"
         id="path3013" />
      <path
         d="m 964.11161,446.43584 12.92752,0 0,2.32805 -10.16125,0 0,6.05293 9.73672,0 0,2.32805 -9.73672,0 0,7.40867 10.40775,0 0,2.32805 -13.17402,0 0,-20.44575"
         style="text-align:center;text-anchor:middle"
         id="path3015" />
      <path
         d="m 982.61275,469.48353 0.95861,0 c 1.27814,0 2.10893,-0.19629 2.49238,-0.58886 0.39256,-0.39258 0.58885,-1.24163 0.58886,-2.54716 l 0,-3.39621 c -10e-6,-1.42422 0.20541,-2.46042 0.61625,-3.10863 0.41082,-0.6482 1.12293,-1.09555 2.13632,-1.34205 -1.01339,-0.22824 -1.7255,-0.66646 -2.13632,-1.31467 -0.41084,-0.64819 -0.61626,-1.68896 -0.61625,-3.12232 l 0,-3.39621 c -10e-6,-1.29639 -0.1963,-2.14088 -0.58886,-2.53347 -0.38345,-0.40168 -1.21424,-0.60253 -2.49238,-0.60255 l -0.95861,0 0,-1.9583 0.86275,0 c 2.27326,2e-5 3.78877,0.33781 4.54654,1.01338 0.76688,0.66648 1.15032,2.00853 1.15033,4.02616 l 0,3.28666 c -10e-6,1.36032 0.24649,2.30523 0.7395,2.83474 0.49298,0.52039 1.38768,0.78059 2.6841,0.78058 l 0.84905,0 0,1.9583 -0.84905,0 c -1.29642,1e-5 -2.19112,0.26476 -2.6841,0.79427 -0.49301,0.52953 -0.73951,1.48357 -0.7395,2.86213 l 0,3.27297 c -10e-6,2.01764 -0.38345,3.36425 -1.15033,4.03985 -0.75777,0.67558 -2.27328,1.01338 -4.54654,1.01338 l -0.86275,0 0,-1.97199"
         style="text-align:center;text-anchor:middle"
         id="path3017" />
    </g>
  </g>
</svg>
